%TF.GenerationSoftware,KiCad,Pcbnew,9.0.2-rc1*%
%TF.CreationDate,2025-07-09T15:34:15-06:00*%
%TF.ProjectId,mister-vector,6d697374-6572-42d7-9665-63746f722e6b,rev?*%
%TF.SameCoordinates,Original*%
%TF.FileFunction,Soldermask,Top*%
%TF.FilePolarity,Negative*%
%FSLAX46Y46*%
G04 Gerber Fmt 4.6, Leading zero omitted, Abs format (unit mm)*
G04 Created by KiCad (PCBNEW 9.0.2-rc1) date 2025-07-09 15:34:15*
%MOMM*%
%LPD*%
G01*
G04 APERTURE LIST*
G04 Aperture macros list*
%AMRoundRect*
0 Rectangle with rounded corners*
0 $1 Rounding radius*
0 $2 $3 $4 $5 $6 $7 $8 $9 X,Y pos of 4 corners*
0 Add a 4 corners polygon primitive as box body*
4,1,4,$2,$3,$4,$5,$6,$7,$8,$9,$2,$3,0*
0 Add four circle primitives for the rounded corners*
1,1,$1+$1,$2,$3*
1,1,$1+$1,$4,$5*
1,1,$1+$1,$6,$7*
1,1,$1+$1,$8,$9*
0 Add four rect primitives between the rounded corners*
20,1,$1+$1,$2,$3,$4,$5,0*
20,1,$1+$1,$4,$5,$6,$7,0*
20,1,$1+$1,$6,$7,$8,$9,0*
20,1,$1+$1,$8,$9,$2,$3,0*%
G04 Aperture macros list end*
%ADD10C,0.203200*%
%ADD11C,0.000000*%
%ADD12C,0.100000*%
%ADD13RoundRect,0.140000X0.170000X-0.140000X0.170000X0.140000X-0.170000X0.140000X-0.170000X-0.140000X0*%
%ADD14C,1.800000*%
%ADD15C,4.460000*%
%ADD16RoundRect,0.150000X0.150000X-0.875000X0.150000X0.875000X-0.150000X0.875000X-0.150000X-0.875000X0*%
%ADD17RoundRect,0.150000X0.825000X0.150000X-0.825000X0.150000X-0.825000X-0.150000X0.825000X-0.150000X0*%
%ADD18RoundRect,0.135000X0.185000X-0.135000X0.185000X0.135000X-0.185000X0.135000X-0.185000X-0.135000X0*%
%ADD19RoundRect,0.135000X-0.185000X0.135000X-0.185000X-0.135000X0.185000X-0.135000X0.185000X0.135000X0*%
%ADD20C,0.800000*%
%ADD21C,6.000000*%
%ADD22RoundRect,0.135000X0.135000X0.185000X-0.135000X0.185000X-0.135000X-0.185000X0.135000X-0.185000X0*%
%ADD23RoundRect,0.135000X-0.135000X-0.185000X0.135000X-0.185000X0.135000X0.185000X-0.135000X0.185000X0*%
%ADD24RoundRect,0.140000X0.140000X0.170000X-0.140000X0.170000X-0.140000X-0.170000X0.140000X-0.170000X0*%
%ADD25RoundRect,0.875000X0.875000X0.875000X-0.875000X0.875000X-0.875000X-0.875000X0.875000X-0.875000X0*%
%ADD26RoundRect,0.750000X0.750000X1.000000X-0.750000X1.000000X-0.750000X-1.000000X0.750000X-1.000000X0*%
%ADD27R,3.500000X3.500000*%
%ADD28RoundRect,0.225000X0.250000X-0.225000X0.250000X0.225000X-0.250000X0.225000X-0.250000X-0.225000X0*%
%ADD29RoundRect,0.076750X0.230250X-0.810250X0.230250X0.810250X-0.230250X0.810250X-0.230250X-0.810250X0*%
%ADD30C,1.700000*%
%ADD31R,1.700000X1.700000*%
%ADD32O,1.524000X2.844800*%
%ADD33RoundRect,0.150000X1.050000X0.150000X-1.050000X0.150000X-1.050000X-0.150000X1.050000X-0.150000X0*%
%ADD34RoundRect,0.150000X0.875000X0.150000X-0.875000X0.150000X-0.875000X-0.150000X0.875000X-0.150000X0*%
%ADD35RoundRect,0.140000X-0.170000X0.140000X-0.170000X-0.140000X0.170000X-0.140000X0.170000X0.140000X0*%
%ADD36RoundRect,0.250000X-0.250000X-0.475000X0.250000X-0.475000X0.250000X0.475000X-0.250000X0.475000X0*%
%ADD37C,1.426000*%
%ADD38RoundRect,0.102000X-0.611000X-0.611000X0.611000X-0.611000X0.611000X0.611000X-0.611000X0.611000X0*%
%ADD39RoundRect,0.250000X0.250000X0.475000X-0.250000X0.475000X-0.250000X-0.475000X0.250000X-0.475000X0*%
%ADD40RoundRect,0.225000X0.225000X0.250000X-0.225000X0.250000X-0.225000X-0.250000X0.225000X-0.250000X0*%
%ADD41RoundRect,0.225000X-0.225000X-0.250000X0.225000X-0.250000X0.225000X0.250000X-0.225000X0.250000X0*%
%ADD42RoundRect,0.100500X-0.986500X-0.301500X0.986500X-0.301500X0.986500X0.301500X-0.986500X0.301500X0*%
%ADD43R,2.350000X8.000000*%
%ADD44O,1.700000X1.700000*%
G04 APERTURE END LIST*
D10*
X52962645Y-80449935D02*
X51692645Y-80449935D01*
X51692645Y-80449935D02*
X52599788Y-80026601D01*
X52599788Y-80026601D02*
X51692645Y-79603268D01*
X51692645Y-79603268D02*
X52962645Y-79603268D01*
X52962645Y-78998506D02*
X51692645Y-78998506D01*
X52902169Y-78454220D02*
X52962645Y-78272791D01*
X52962645Y-78272791D02*
X52962645Y-77970410D01*
X52962645Y-77970410D02*
X52902169Y-77849458D01*
X52902169Y-77849458D02*
X52841692Y-77788982D01*
X52841692Y-77788982D02*
X52720740Y-77728505D01*
X52720740Y-77728505D02*
X52599788Y-77728505D01*
X52599788Y-77728505D02*
X52478835Y-77788982D01*
X52478835Y-77788982D02*
X52418359Y-77849458D01*
X52418359Y-77849458D02*
X52357883Y-77970410D01*
X52357883Y-77970410D02*
X52297407Y-78212315D01*
X52297407Y-78212315D02*
X52236930Y-78333267D01*
X52236930Y-78333267D02*
X52176454Y-78393744D01*
X52176454Y-78393744D02*
X52055502Y-78454220D01*
X52055502Y-78454220D02*
X51934549Y-78454220D01*
X51934549Y-78454220D02*
X51813597Y-78393744D01*
X51813597Y-78393744D02*
X51753121Y-78333267D01*
X51753121Y-78333267D02*
X51692645Y-78212315D01*
X51692645Y-78212315D02*
X51692645Y-77909934D01*
X51692645Y-77909934D02*
X51753121Y-77728505D01*
X51692645Y-77365648D02*
X51692645Y-76639934D01*
X52962645Y-77002791D02*
X51692645Y-77002791D01*
X52297407Y-76216601D02*
X52297407Y-75793267D01*
X52962645Y-75611839D02*
X52962645Y-76216601D01*
X52962645Y-76216601D02*
X51692645Y-76216601D01*
X51692645Y-76216601D02*
X51692645Y-75611839D01*
X52962645Y-74341838D02*
X52357883Y-74765172D01*
X52962645Y-75067553D02*
X51692645Y-75067553D01*
X51692645Y-75067553D02*
X51692645Y-74583743D01*
X51692645Y-74583743D02*
X51753121Y-74462791D01*
X51753121Y-74462791D02*
X51813597Y-74402314D01*
X51813597Y-74402314D02*
X51934549Y-74341838D01*
X51934549Y-74341838D02*
X52115978Y-74341838D01*
X52115978Y-74341838D02*
X52236930Y-74402314D01*
X52236930Y-74402314D02*
X52297407Y-74462791D01*
X52297407Y-74462791D02*
X52357883Y-74583743D01*
X52357883Y-74583743D02*
X52357883Y-75067553D01*
X51692645Y-73011362D02*
X52962645Y-72588029D01*
X52962645Y-72588029D02*
X51692645Y-72164695D01*
X52297407Y-71741363D02*
X52297407Y-71318029D01*
X52962645Y-71136601D02*
X52962645Y-71741363D01*
X52962645Y-71741363D02*
X51692645Y-71741363D01*
X51692645Y-71741363D02*
X51692645Y-71136601D01*
X52841692Y-69866600D02*
X52902169Y-69927076D01*
X52902169Y-69927076D02*
X52962645Y-70108505D01*
X52962645Y-70108505D02*
X52962645Y-70229457D01*
X52962645Y-70229457D02*
X52902169Y-70410886D01*
X52902169Y-70410886D02*
X52781216Y-70531838D01*
X52781216Y-70531838D02*
X52660264Y-70592315D01*
X52660264Y-70592315D02*
X52418359Y-70652791D01*
X52418359Y-70652791D02*
X52236930Y-70652791D01*
X52236930Y-70652791D02*
X51995026Y-70592315D01*
X51995026Y-70592315D02*
X51874073Y-70531838D01*
X51874073Y-70531838D02*
X51753121Y-70410886D01*
X51753121Y-70410886D02*
X51692645Y-70229457D01*
X51692645Y-70229457D02*
X51692645Y-70108505D01*
X51692645Y-70108505D02*
X51753121Y-69927076D01*
X51753121Y-69927076D02*
X51813597Y-69866600D01*
X51692645Y-69503743D02*
X51692645Y-68778029D01*
X52962645Y-69140886D02*
X51692645Y-69140886D01*
X51692645Y-68112791D02*
X51692645Y-67870886D01*
X51692645Y-67870886D02*
X51753121Y-67749934D01*
X51753121Y-67749934D02*
X51874073Y-67628981D01*
X51874073Y-67628981D02*
X52115978Y-67568505D01*
X52115978Y-67568505D02*
X52539311Y-67568505D01*
X52539311Y-67568505D02*
X52781216Y-67628981D01*
X52781216Y-67628981D02*
X52902169Y-67749934D01*
X52902169Y-67749934D02*
X52962645Y-67870886D01*
X52962645Y-67870886D02*
X52962645Y-68112791D01*
X52962645Y-68112791D02*
X52902169Y-68233743D01*
X52902169Y-68233743D02*
X52781216Y-68354696D01*
X52781216Y-68354696D02*
X52539311Y-68415172D01*
X52539311Y-68415172D02*
X52115978Y-68415172D01*
X52115978Y-68415172D02*
X51874073Y-68354696D01*
X51874073Y-68354696D02*
X51753121Y-68233743D01*
X51753121Y-68233743D02*
X51692645Y-68112791D01*
X52962645Y-66298505D02*
X52357883Y-66721839D01*
X52962645Y-67024220D02*
X51692645Y-67024220D01*
X51692645Y-67024220D02*
X51692645Y-66540410D01*
X51692645Y-66540410D02*
X51753121Y-66419458D01*
X51753121Y-66419458D02*
X51813597Y-66358981D01*
X51813597Y-66358981D02*
X51934549Y-66298505D01*
X51934549Y-66298505D02*
X52115978Y-66298505D01*
X52115978Y-66298505D02*
X52236930Y-66358981D01*
X52236930Y-66358981D02*
X52297407Y-66419458D01*
X52297407Y-66419458D02*
X52357883Y-66540410D01*
X52357883Y-66540410D02*
X52357883Y-67024220D01*
X53737274Y-80087077D02*
X54644417Y-80087077D01*
X54644417Y-80087077D02*
X54825845Y-80147554D01*
X54825845Y-80147554D02*
X54946798Y-80268506D01*
X54946798Y-80268506D02*
X55007274Y-80449935D01*
X55007274Y-80449935D02*
X55007274Y-80570887D01*
X54644417Y-79542792D02*
X54644417Y-78938030D01*
X55007274Y-79663744D02*
X53737274Y-79240411D01*
X53737274Y-79240411D02*
X55007274Y-78817077D01*
X55007274Y-78393745D02*
X53737274Y-78393745D01*
X53737274Y-78393745D02*
X54644417Y-77970411D01*
X54644417Y-77970411D02*
X53737274Y-77547078D01*
X53737274Y-77547078D02*
X55007274Y-77547078D01*
X55007274Y-76942316D02*
X53737274Y-76942316D01*
X53737274Y-76942316D02*
X54644417Y-76518982D01*
X54644417Y-76518982D02*
X53737274Y-76095649D01*
X53737274Y-76095649D02*
X55007274Y-76095649D01*
X54644417Y-75551363D02*
X54644417Y-74946601D01*
X55007274Y-75672315D02*
X53737274Y-75248982D01*
X53737274Y-75248982D02*
X55007274Y-74825648D01*
X53737274Y-73616125D02*
X55007274Y-73192792D01*
X55007274Y-73192792D02*
X53737274Y-72769458D01*
X55007274Y-71680887D02*
X55007274Y-72406602D01*
X55007274Y-72043745D02*
X53737274Y-72043745D01*
X53737274Y-72043745D02*
X53918702Y-72164697D01*
X53918702Y-72164697D02*
X54039655Y-72285649D01*
X54039655Y-72285649D02*
X54100131Y-72406602D01*
X54886321Y-71136602D02*
X54946798Y-71076125D01*
X54946798Y-71076125D02*
X55007274Y-71136602D01*
X55007274Y-71136602D02*
X54946798Y-71197078D01*
X54946798Y-71197078D02*
X54886321Y-71136602D01*
X54886321Y-71136602D02*
X55007274Y-71136602D01*
X53737274Y-70289935D02*
X53737274Y-70168982D01*
X53737274Y-70168982D02*
X53797750Y-70048030D01*
X53797750Y-70048030D02*
X53858226Y-69987554D01*
X53858226Y-69987554D02*
X53979178Y-69927078D01*
X53979178Y-69927078D02*
X54221083Y-69866601D01*
X54221083Y-69866601D02*
X54523464Y-69866601D01*
X54523464Y-69866601D02*
X54765369Y-69927078D01*
X54765369Y-69927078D02*
X54886321Y-69987554D01*
X54886321Y-69987554D02*
X54946798Y-70048030D01*
X54946798Y-70048030D02*
X55007274Y-70168982D01*
X55007274Y-70168982D02*
X55007274Y-70289935D01*
X55007274Y-70289935D02*
X54946798Y-70410887D01*
X54946798Y-70410887D02*
X54886321Y-70471363D01*
X54886321Y-70471363D02*
X54765369Y-70531840D01*
X54765369Y-70531840D02*
X54523464Y-70592316D01*
X54523464Y-70592316D02*
X54221083Y-70592316D01*
X54221083Y-70592316D02*
X53979178Y-70531840D01*
X53979178Y-70531840D02*
X53858226Y-70471363D01*
X53858226Y-70471363D02*
X53797750Y-70410887D01*
X53797750Y-70410887D02*
X53737274Y-70289935D01*
X54039655Y-67326601D02*
X53979178Y-67447554D01*
X53979178Y-67447554D02*
X53979178Y-67689458D01*
X53979178Y-67689458D02*
X54039655Y-67810411D01*
X54039655Y-67810411D02*
X54160607Y-67931363D01*
X54160607Y-67931363D02*
X54281559Y-67991839D01*
X54281559Y-67991839D02*
X54523464Y-67991839D01*
X54523464Y-67991839D02*
X54644417Y-67931363D01*
X54644417Y-67931363D02*
X54765369Y-67810411D01*
X54765369Y-67810411D02*
X54825845Y-67689458D01*
X54825845Y-67689458D02*
X54825845Y-67447554D01*
X54825845Y-67447554D02*
X54765369Y-67326601D01*
X53555845Y-67568506D02*
X53616321Y-67870887D01*
X53616321Y-67870887D02*
X53797750Y-68173268D01*
X53797750Y-68173268D02*
X54100131Y-68354697D01*
X54100131Y-68354697D02*
X54402512Y-68415173D01*
X54402512Y-68415173D02*
X54704893Y-68354697D01*
X54704893Y-68354697D02*
X55007274Y-68173268D01*
X55007274Y-68173268D02*
X55188702Y-67870887D01*
X55188702Y-67870887D02*
X55249178Y-67568506D01*
X55249178Y-67568506D02*
X55188702Y-67266125D01*
X55188702Y-67266125D02*
X55007274Y-66963744D01*
X55007274Y-66963744D02*
X54704893Y-66782316D01*
X54704893Y-66782316D02*
X54402512Y-66721839D01*
X54402512Y-66721839D02*
X54100131Y-66782316D01*
X54100131Y-66782316D02*
X53797750Y-66963744D01*
X53797750Y-66963744D02*
X53616321Y-67266125D01*
X53616321Y-67266125D02*
X53555845Y-67568506D01*
X53858226Y-66238030D02*
X53797750Y-66177554D01*
X53797750Y-66177554D02*
X53737274Y-66056601D01*
X53737274Y-66056601D02*
X53737274Y-65754220D01*
X53737274Y-65754220D02*
X53797750Y-65633268D01*
X53797750Y-65633268D02*
X53858226Y-65572792D01*
X53858226Y-65572792D02*
X53979178Y-65512315D01*
X53979178Y-65512315D02*
X54100131Y-65512315D01*
X54100131Y-65512315D02*
X54281559Y-65572792D01*
X54281559Y-65572792D02*
X55007274Y-66298506D01*
X55007274Y-66298506D02*
X55007274Y-65512315D01*
X53737274Y-64726125D02*
X53737274Y-64605172D01*
X53737274Y-64605172D02*
X53797750Y-64484220D01*
X53797750Y-64484220D02*
X53858226Y-64423744D01*
X53858226Y-64423744D02*
X53979178Y-64363268D01*
X53979178Y-64363268D02*
X54221083Y-64302791D01*
X54221083Y-64302791D02*
X54523464Y-64302791D01*
X54523464Y-64302791D02*
X54765369Y-64363268D01*
X54765369Y-64363268D02*
X54886321Y-64423744D01*
X54886321Y-64423744D02*
X54946798Y-64484220D01*
X54946798Y-64484220D02*
X55007274Y-64605172D01*
X55007274Y-64605172D02*
X55007274Y-64726125D01*
X55007274Y-64726125D02*
X54946798Y-64847077D01*
X54946798Y-64847077D02*
X54886321Y-64907553D01*
X54886321Y-64907553D02*
X54765369Y-64968030D01*
X54765369Y-64968030D02*
X54523464Y-65028506D01*
X54523464Y-65028506D02*
X54221083Y-65028506D01*
X54221083Y-65028506D02*
X53979178Y-64968030D01*
X53979178Y-64968030D02*
X53858226Y-64907553D01*
X53858226Y-64907553D02*
X53797750Y-64847077D01*
X53797750Y-64847077D02*
X53737274Y-64726125D01*
X53858226Y-63818982D02*
X53797750Y-63758506D01*
X53797750Y-63758506D02*
X53737274Y-63637553D01*
X53737274Y-63637553D02*
X53737274Y-63335172D01*
X53737274Y-63335172D02*
X53797750Y-63214220D01*
X53797750Y-63214220D02*
X53858226Y-63153744D01*
X53858226Y-63153744D02*
X53979178Y-63093267D01*
X53979178Y-63093267D02*
X54100131Y-63093267D01*
X54100131Y-63093267D02*
X54281559Y-63153744D01*
X54281559Y-63153744D02*
X55007274Y-63879458D01*
X55007274Y-63879458D02*
X55007274Y-63093267D01*
X53737274Y-61944220D02*
X53737274Y-62548982D01*
X53737274Y-62548982D02*
X54342036Y-62609458D01*
X54342036Y-62609458D02*
X54281559Y-62548982D01*
X54281559Y-62548982D02*
X54221083Y-62428029D01*
X54221083Y-62428029D02*
X54221083Y-62125648D01*
X54221083Y-62125648D02*
X54281559Y-62004696D01*
X54281559Y-62004696D02*
X54342036Y-61944220D01*
X54342036Y-61944220D02*
X54462988Y-61883743D01*
X54462988Y-61883743D02*
X54765369Y-61883743D01*
X54765369Y-61883743D02*
X54886321Y-61944220D01*
X54886321Y-61944220D02*
X54946798Y-62004696D01*
X54946798Y-62004696D02*
X55007274Y-62125648D01*
X55007274Y-62125648D02*
X55007274Y-62428029D01*
X55007274Y-62428029D02*
X54946798Y-62548982D01*
X54946798Y-62548982D02*
X54886321Y-62609458D01*
D11*
%TO.C,G\u002A\u002A\u002A*%
G36*
X52125918Y-55742857D02*
G01*
X51671811Y-55742857D01*
X51671811Y-55139045D01*
X52125918Y-55139045D01*
X52125918Y-55742857D01*
G37*
G36*
X52125918Y-58472483D02*
G01*
X51671811Y-58472483D01*
X51671811Y-57868672D01*
X52125918Y-57868672D01*
X52125918Y-58472483D01*
G37*
G36*
X54854336Y-54531473D02*
G01*
X54853049Y-54832149D01*
X53944837Y-54837139D01*
X53943437Y-54976864D01*
X53943167Y-55013746D01*
X53943107Y-55047785D01*
X53943243Y-55077580D01*
X53943564Y-55101730D01*
X53944058Y-55118834D01*
X53944711Y-55127490D01*
X53944780Y-55127817D01*
X53947522Y-55139045D01*
X54855544Y-55139045D01*
X54855544Y-55593050D01*
X55081350Y-55594348D01*
X55307155Y-55595646D01*
X55307155Y-56653564D01*
X55081376Y-56654862D01*
X54855597Y-56656161D01*
X54854323Y-56200756D01*
X54853049Y-55745352D01*
X54627244Y-55744053D01*
X54401438Y-55742755D01*
X54401438Y-57868774D01*
X54627244Y-57867475D01*
X54853049Y-57866177D01*
X54854323Y-57410772D01*
X54855597Y-56955368D01*
X55081376Y-56956666D01*
X55307155Y-56957965D01*
X55308426Y-57484821D01*
X55308567Y-57556500D01*
X55308642Y-57625365D01*
X55308654Y-57690761D01*
X55308604Y-57752033D01*
X55308496Y-57808524D01*
X55308332Y-57859580D01*
X55308114Y-57904543D01*
X55307846Y-57942760D01*
X55307529Y-57973573D01*
X55307166Y-57996327D01*
X55306760Y-58010366D01*
X55306346Y-58015028D01*
X55300814Y-58015720D01*
X55286320Y-58016364D01*
X55263880Y-58016945D01*
X55234514Y-58017447D01*
X55199239Y-58017856D01*
X55159072Y-58018157D01*
X55115031Y-58018334D01*
X55079271Y-58018377D01*
X54855544Y-58018377D01*
X54855544Y-58472483D01*
X53947522Y-58472483D01*
X53944780Y-58483711D01*
X53944112Y-58491508D01*
X53943603Y-58507882D01*
X53943266Y-58531434D01*
X53943111Y-58560761D01*
X53943153Y-58594463D01*
X53943403Y-58631138D01*
X53943437Y-58634664D01*
X53944837Y-58774389D01*
X54853049Y-58779379D01*
X54854336Y-59080055D01*
X54855622Y-59380731D01*
X54173177Y-59379466D01*
X53490731Y-59378200D01*
X53489444Y-59077593D01*
X53488236Y-58795219D01*
X53488158Y-58776986D01*
X53262391Y-58775687D01*
X53036625Y-58774389D01*
X53033983Y-58472483D01*
X52580024Y-58472483D01*
X52580024Y-57868672D01*
X52125918Y-57868672D01*
X52125918Y-57564271D01*
X53034028Y-57564271D01*
X53035326Y-57790077D01*
X53036625Y-58015882D01*
X53262430Y-58017181D01*
X53488236Y-58018479D01*
X53488236Y-57564271D01*
X53034028Y-57564271D01*
X52125918Y-57564271D01*
X52125918Y-57414668D01*
X52351723Y-57413369D01*
X52577529Y-57412071D01*
X52577529Y-56199458D01*
X52351723Y-56198159D01*
X52125918Y-56196861D01*
X52125918Y-55868332D01*
X53034917Y-55868332D01*
X53034936Y-55909120D01*
X53035089Y-55953341D01*
X53035239Y-55979890D01*
X53036625Y-56194468D01*
X53262430Y-56195766D01*
X53488236Y-56197064D01*
X53488236Y-55742857D01*
X53039310Y-55742857D01*
X53036581Y-55754084D01*
X53036035Y-55761338D01*
X53035589Y-55777481D01*
X53035249Y-55801422D01*
X53035023Y-55832069D01*
X53034917Y-55868332D01*
X52125918Y-55868332D01*
X52125918Y-55742857D01*
X52580024Y-55742857D01*
X52580024Y-55139045D01*
X53033983Y-55139045D01*
X53036625Y-54837139D01*
X53262391Y-54835841D01*
X53488158Y-54834543D01*
X53489444Y-54533935D01*
X53490731Y-54233328D01*
X54173177Y-54232063D01*
X54855622Y-54230797D01*
X54854336Y-54531473D01*
G37*
%TO.C,J8*%
D12*
X44624000Y-37186000D02*
X165124000Y-37186000D01*
X165124000Y-47936000D01*
X44624000Y-47936000D01*
X44624000Y-37186000D01*
G36*
X44624000Y-37186000D02*
G01*
X165124000Y-37186000D01*
X165124000Y-47936000D01*
X44624000Y-47936000D01*
X44624000Y-37186000D01*
G37*
%TD*%
D13*
%TO.C,C18*%
X83908000Y-83466000D03*
X83908000Y-82506000D03*
%TD*%
D14*
%TO.C,VR4*%
X133808000Y-104731000D03*
X133808000Y-107231000D03*
X133808000Y-109731000D03*
D15*
X140808000Y-102831000D03*
X140808000Y-111631000D03*
%TD*%
D16*
%TO.C,U8*%
X143833000Y-76736000D03*
X145103000Y-76736000D03*
X146373000Y-76736000D03*
X147643000Y-76736000D03*
X148913000Y-76736000D03*
X150183000Y-76736000D03*
X151453000Y-76736000D03*
X152723000Y-76736000D03*
X153993000Y-76736000D03*
X155263000Y-76736000D03*
X156533000Y-76736000D03*
X157803000Y-76736000D03*
X157803000Y-67436000D03*
X156533000Y-67436000D03*
X155263000Y-67436000D03*
X153993000Y-67436000D03*
X152723000Y-67436000D03*
X151453000Y-67436000D03*
X150183000Y-67436000D03*
X148913000Y-67436000D03*
X147643000Y-67436000D03*
X146373000Y-67436000D03*
X145103000Y-67436000D03*
X143833000Y-67436000D03*
%TD*%
D17*
%TO.C,U14*%
X76698000Y-73526000D03*
X76698000Y-72256000D03*
X76698000Y-70986000D03*
X76698000Y-69716000D03*
X76698000Y-68446000D03*
X76698000Y-67176000D03*
X76698000Y-65906000D03*
X81648000Y-65906000D03*
X81648000Y-67176000D03*
X81648000Y-68446000D03*
X81648000Y-69716000D03*
X81648000Y-70986000D03*
X81648000Y-72256000D03*
X81648000Y-73526000D03*
%TD*%
D18*
%TO.C,R78*%
X74598000Y-66076000D03*
X74598000Y-67096000D03*
%TD*%
D13*
%TO.C,C11*%
X99838000Y-51262000D03*
X99838000Y-52222000D03*
%TD*%
D18*
%TO.C,R81*%
X73398000Y-72556000D03*
X73398000Y-73576000D03*
%TD*%
D19*
%TO.C,R1*%
X156283000Y-61582000D03*
X156283000Y-62602000D03*
%TD*%
D20*
%TO.C,H3*%
X161639000Y-92711000D03*
X160979990Y-94301990D03*
X160979990Y-91120010D03*
X159389000Y-94961000D03*
D21*
X159389000Y-92711000D03*
D20*
X159389000Y-90461000D03*
X157798010Y-94301990D03*
X157798010Y-91120010D03*
X157139000Y-92711000D03*
%TD*%
D22*
%TO.C,R48*%
X60845500Y-57794236D03*
X61865500Y-57794236D03*
%TD*%
%TO.C,R63*%
X85188000Y-80286000D03*
X86208000Y-80286000D03*
%TD*%
%TO.C,R60*%
X72793000Y-55386000D03*
X73813000Y-55386000D03*
%TD*%
D19*
%TO.C,R82*%
X74598000Y-73596000D03*
X74598000Y-72576000D03*
%TD*%
D23*
%TO.C,R16*%
X148473000Y-58292000D03*
X149493000Y-58292000D03*
%TD*%
D24*
%TO.C,C12*%
X75228000Y-61886000D03*
X76188000Y-61886000D03*
%TD*%
D19*
%TO.C,R35*%
X121064000Y-78921000D03*
X121064000Y-77901000D03*
%TD*%
D24*
%TO.C,C1*%
X80628000Y-95148400D03*
X79668000Y-95148400D03*
%TD*%
D19*
%TO.C,R62*%
X73498000Y-79896000D03*
X73498000Y-78876000D03*
%TD*%
D24*
%TO.C,C4*%
X76128000Y-95148400D03*
X75168000Y-95148400D03*
%TD*%
D22*
%TO.C,R51*%
X84555500Y-54528501D03*
X85575500Y-54528501D03*
%TD*%
%TO.C,R2*%
X156193000Y-60482000D03*
X155173000Y-60482000D03*
%TD*%
%TO.C,R49*%
X60845500Y-58894236D03*
X61865500Y-58894236D03*
%TD*%
D19*
%TO.C,R31*%
X95164000Y-82126000D03*
X95164000Y-83146000D03*
%TD*%
D22*
%TO.C,R45*%
X60845500Y-54544236D03*
X61865500Y-54544236D03*
%TD*%
D19*
%TO.C,R25*%
X95164000Y-77926000D03*
X95164000Y-78946000D03*
%TD*%
D23*
%TO.C,R43*%
X123074000Y-83011000D03*
X122054000Y-83011000D03*
%TD*%
D18*
%TO.C,R71*%
X85098000Y-65076000D03*
X85098000Y-66096000D03*
%TD*%
D22*
%TO.C,R84*%
X72793000Y-57586000D03*
X73813000Y-57586000D03*
%TD*%
D25*
%TO.C,J10*%
X151630000Y-140786000D03*
D26*
X154630000Y-145486000D03*
D27*
X148630000Y-145486000D03*
%TD*%
D20*
%TO.C,H2*%
X61182000Y-92711000D03*
X60522990Y-94301990D03*
X60522990Y-91120010D03*
X58932000Y-94961000D03*
D21*
X58932000Y-92711000D03*
D20*
X58932000Y-90461000D03*
X57341010Y-94301990D03*
X57341010Y-91120010D03*
X56682000Y-92711000D03*
%TD*%
D13*
%TO.C,C24*%
X142208000Y-67566000D03*
X142208000Y-66606000D03*
%TD*%
D19*
%TO.C,R15*%
X148883000Y-61582000D03*
X148883000Y-62602000D03*
%TD*%
D22*
%TO.C,R90*%
X96388000Y-57686000D03*
X97408000Y-57686000D03*
%TD*%
D18*
%TO.C,R44*%
X118764000Y-82001000D03*
X118764000Y-83021000D03*
%TD*%
D22*
%TO.C,R3*%
X156193000Y-59392000D03*
X155173000Y-59392000D03*
%TD*%
%TO.C,R56*%
X84555500Y-60028501D03*
X85575500Y-60028501D03*
%TD*%
%TO.C,R46*%
X60845500Y-55594236D03*
X61865500Y-55594236D03*
%TD*%
D23*
%TO.C,R37*%
X123074000Y-79011000D03*
X122054000Y-79011000D03*
%TD*%
D19*
%TO.C,R36*%
X119864000Y-78921000D03*
X119864000Y-77901000D03*
%TD*%
D22*
%TO.C,R76*%
X84788000Y-72186000D03*
X85808000Y-72186000D03*
%TD*%
%TO.C,R11*%
X151493000Y-59392000D03*
X150473000Y-59392000D03*
%TD*%
D28*
%TO.C,C47*%
X149208000Y-104186000D03*
X149208000Y-105736000D03*
%TD*%
D13*
%TO.C,C40*%
X91008000Y-99406000D03*
X91008000Y-100366000D03*
%TD*%
D19*
%TO.C,R17*%
X146683000Y-61582000D03*
X146683000Y-62602000D03*
%TD*%
D13*
%TO.C,C7*%
X88165500Y-51448501D03*
X88165500Y-52408501D03*
%TD*%
D22*
%TO.C,R13*%
X149493000Y-60492000D03*
X148473000Y-60492000D03*
%TD*%
D19*
%TO.C,R98*%
X91008000Y-97696000D03*
X91008000Y-96676000D03*
%TD*%
D29*
%TO.C,U10*%
X99213000Y-54316000D03*
X99863000Y-54316000D03*
X100513000Y-54316000D03*
X101163000Y-54316000D03*
X101813000Y-54316000D03*
X102463000Y-54316000D03*
X103113000Y-54316000D03*
X103763000Y-54316000D03*
X103763000Y-60056000D03*
X103113000Y-60056000D03*
X102463000Y-60056000D03*
X101813000Y-60056000D03*
X101163000Y-60056000D03*
X100513000Y-60056000D03*
X99863000Y-60056000D03*
X99213000Y-60056000D03*
%TD*%
D18*
%TO.C,R65*%
X74598000Y-78876000D03*
X74598000Y-79896000D03*
%TD*%
D13*
%TO.C,C6*%
X64365500Y-51434236D03*
X64365500Y-52394236D03*
%TD*%
D22*
%TO.C,R14*%
X149493000Y-59392000D03*
X148473000Y-59392000D03*
%TD*%
D19*
%TO.C,R9*%
X151483000Y-61582000D03*
X151483000Y-62602000D03*
%TD*%
%TO.C,R23*%
X144183000Y-61582000D03*
X144183000Y-62602000D03*
%TD*%
D23*
%TO.C,R8*%
X153173000Y-58292000D03*
X154193000Y-58292000D03*
%TD*%
D22*
%TO.C,R19*%
X146693000Y-59392000D03*
X145673000Y-59392000D03*
%TD*%
%TO.C,R5*%
X154193000Y-60492000D03*
X153173000Y-60492000D03*
%TD*%
D29*
%TO.C,U5*%
X87490500Y-54358501D03*
X88140500Y-54358501D03*
X88790500Y-54358501D03*
X89440500Y-54358501D03*
X90090500Y-54358501D03*
X90740500Y-54358501D03*
X91390500Y-54358501D03*
X92040500Y-54358501D03*
X92040500Y-60098501D03*
X91390500Y-60098501D03*
X90740500Y-60098501D03*
X90090500Y-60098501D03*
X89440500Y-60098501D03*
X88790500Y-60098501D03*
X88140500Y-60098501D03*
X87490500Y-60098501D03*
%TD*%
D13*
%TO.C,C41*%
X98708000Y-99406000D03*
X98708000Y-100366000D03*
%TD*%
D18*
%TO.C,R99*%
X149508000Y-107251000D03*
X149508000Y-108271000D03*
%TD*%
D30*
%TO.C,J100*%
X138208000Y-140886000D03*
X135668000Y-140886000D03*
D31*
X133128000Y-140886000D03*
%TD*%
D22*
%TO.C,R73*%
X73588000Y-64886000D03*
X74608000Y-64886000D03*
%TD*%
D29*
%TO.C,U4*%
X63690500Y-54344236D03*
X64340500Y-54344236D03*
X64990500Y-54344236D03*
X65640500Y-54344236D03*
X66290500Y-54344236D03*
X66940500Y-54344236D03*
X67590500Y-54344236D03*
X68240500Y-54344236D03*
X68240500Y-60084236D03*
X67590500Y-60084236D03*
X66940500Y-60084236D03*
X66290500Y-60084236D03*
X65640500Y-60084236D03*
X64990500Y-60084236D03*
X64340500Y-60084236D03*
X63690500Y-60084236D03*
%TD*%
D32*
%TO.C,U1*%
X66948000Y-100247000D03*
X69488000Y-100247000D03*
X74568000Y-100247000D03*
X77108000Y-100247000D03*
X79648000Y-100247000D03*
%TD*%
D23*
%TO.C,R27*%
X96354000Y-79036000D03*
X97374000Y-79036000D03*
%TD*%
D13*
%TO.C,C10*%
X75808000Y-51406000D03*
X75808000Y-52366000D03*
%TD*%
D19*
%TO.C,R70*%
X85298000Y-86596000D03*
X85298000Y-85576000D03*
%TD*%
D22*
%TO.C,R50*%
X60845500Y-59994236D03*
X61865500Y-59994236D03*
%TD*%
D18*
%TO.C,R67*%
X84198000Y-85576000D03*
X84198000Y-86596000D03*
%TD*%
D20*
%TO.C,H4*%
X61182000Y-154941000D03*
X60522990Y-156531990D03*
X60522990Y-153350010D03*
X58932000Y-157191000D03*
D21*
X58932000Y-154941000D03*
D20*
X58932000Y-152691000D03*
X57341010Y-156531990D03*
X57341010Y-153350010D03*
X56682000Y-154941000D03*
%TD*%
D18*
%TO.C,R34*%
X92964000Y-83146000D03*
X92964000Y-82126000D03*
%TD*%
D19*
%TO.C,R57*%
X127808000Y-87796000D03*
X127808000Y-86776000D03*
%TD*%
%TO.C,R79*%
X83698000Y-73396000D03*
X83698000Y-72376000D03*
%TD*%
D22*
%TO.C,R86*%
X72793000Y-59786000D03*
X73813000Y-59786000D03*
%TD*%
%TO.C,R101*%
X153698000Y-109886000D03*
X154718000Y-109886000D03*
%TD*%
D33*
%TO.C,U3*%
X116158000Y-76006000D03*
X116158000Y-74736000D03*
X116158000Y-73466000D03*
X116158000Y-72196000D03*
X116158000Y-70926000D03*
X116158000Y-69656000D03*
X116158000Y-68386000D03*
X116158000Y-67116000D03*
X122658000Y-67116000D03*
X122658000Y-68386000D03*
X122658000Y-69656000D03*
X122658000Y-70926000D03*
X122658000Y-72196000D03*
X122658000Y-73466000D03*
X122658000Y-74736000D03*
X122658000Y-76006000D03*
%TD*%
D34*
%TO.C,U9*%
X128458000Y-81046000D03*
X128458000Y-79776000D03*
X128458000Y-78506000D03*
X128458000Y-77236000D03*
X128458000Y-75966000D03*
X128458000Y-74696000D03*
X128458000Y-73426000D03*
X128458000Y-72156000D03*
X128458000Y-70886000D03*
X128458000Y-69616000D03*
X128458000Y-68346000D03*
X128458000Y-67076000D03*
X137758000Y-67076000D03*
X137758000Y-68346000D03*
X137758000Y-69616000D03*
X137758000Y-70886000D03*
X137758000Y-72156000D03*
X137758000Y-73426000D03*
X137758000Y-74696000D03*
X137758000Y-75966000D03*
X137758000Y-77236000D03*
X137758000Y-78506000D03*
X137758000Y-79776000D03*
X137758000Y-81046000D03*
%TD*%
D19*
%TO.C,R26*%
X94064000Y-77926000D03*
X94064000Y-78946000D03*
%TD*%
%TO.C,R72*%
X84898000Y-74496000D03*
X84898000Y-73476000D03*
%TD*%
D35*
%TO.C,C21*%
X74608000Y-69766000D03*
X74608000Y-68806000D03*
%TD*%
D22*
%TO.C,R54*%
X84555500Y-57828501D03*
X85575500Y-57828501D03*
%TD*%
%TO.C,R21*%
X144593000Y-60492000D03*
X143573000Y-60492000D03*
%TD*%
D18*
%TO.C,R58*%
X103808000Y-96676000D03*
X103808000Y-97696000D03*
%TD*%
D19*
%TO.C,R4*%
X155083000Y-61582000D03*
X155083000Y-62602000D03*
%TD*%
D22*
%TO.C,R53*%
X84555500Y-56728501D03*
X85575500Y-56728501D03*
%TD*%
D18*
%TO.C,R74*%
X85098000Y-67186000D03*
X85098000Y-68206000D03*
%TD*%
D36*
%TO.C,C3*%
X66998000Y-97048400D03*
X68898000Y-97048400D03*
%TD*%
D22*
%TO.C,R10*%
X151493000Y-60492000D03*
X150473000Y-60492000D03*
%TD*%
D23*
%TO.C,R30*%
X96354000Y-81136000D03*
X97374000Y-81136000D03*
%TD*%
D22*
%TO.C,R87*%
X96388000Y-54386000D03*
X97408000Y-54386000D03*
%TD*%
D23*
%TO.C,R33*%
X96354000Y-83136000D03*
X97374000Y-83136000D03*
%TD*%
D22*
%TO.C,R18*%
X146693000Y-60492000D03*
X145673000Y-60492000D03*
%TD*%
D19*
%TO.C,R38*%
X120964000Y-81021000D03*
X120964000Y-80001000D03*
%TD*%
%TO.C,R39*%
X119864000Y-81021000D03*
X119864000Y-80001000D03*
%TD*%
D22*
%TO.C,R52*%
X84555500Y-55628501D03*
X85575500Y-55628501D03*
%TD*%
D23*
%TO.C,R40*%
X123074000Y-81011000D03*
X122054000Y-81011000D03*
%TD*%
D24*
%TO.C,C9*%
X87128000Y-61786000D03*
X88088000Y-61786000D03*
%TD*%
D37*
%TO.C,VR3*%
X70482500Y-88156000D03*
X67942500Y-85616000D03*
D38*
X65402500Y-88156000D03*
%TD*%
D22*
%TO.C,R6*%
X154193000Y-59392000D03*
X153173000Y-59392000D03*
%TD*%
D37*
%TO.C,VR2*%
X70482500Y-79756000D03*
X67942500Y-77216000D03*
D38*
X65402500Y-79756000D03*
%TD*%
D19*
%TO.C,R66*%
X73598000Y-87296000D03*
X73598000Y-86276000D03*
%TD*%
D34*
%TO.C,U7*%
X111958000Y-81071000D03*
X111958000Y-79801000D03*
X111958000Y-78531000D03*
X111958000Y-77261000D03*
X111958000Y-75991000D03*
X111958000Y-74721000D03*
X111958000Y-73451000D03*
X111958000Y-72181000D03*
X111958000Y-70911000D03*
X111958000Y-69641000D03*
X111958000Y-68371000D03*
X111958000Y-67101000D03*
X102658000Y-67101000D03*
X102658000Y-68371000D03*
X102658000Y-69641000D03*
X102658000Y-70911000D03*
X102658000Y-72181000D03*
X102658000Y-73451000D03*
X102658000Y-74721000D03*
X102658000Y-75991000D03*
X102658000Y-77261000D03*
X102658000Y-78531000D03*
X102658000Y-79801000D03*
X102658000Y-81071000D03*
%TD*%
D22*
%TO.C,R91*%
X96388000Y-58786000D03*
X97408000Y-58786000D03*
%TD*%
%TO.C,R61*%
X73588000Y-77686000D03*
X74608000Y-77686000D03*
%TD*%
%TO.C,R89*%
X96388000Y-56586000D03*
X97408000Y-56586000D03*
%TD*%
D19*
%TO.C,R68*%
X74698000Y-86296000D03*
X74698000Y-85276000D03*
%TD*%
%TO.C,R20*%
X145383000Y-61582000D03*
X145383000Y-62602000D03*
%TD*%
%TO.C,R32*%
X94064000Y-82126000D03*
X94064000Y-83146000D03*
%TD*%
D39*
%TO.C,C2*%
X81098000Y-96848400D03*
X79198000Y-96848400D03*
%TD*%
D19*
%TO.C,R28*%
X95164000Y-80026000D03*
X95164000Y-81046000D03*
%TD*%
D22*
%TO.C,R69*%
X85188000Y-84586000D03*
X86208000Y-84586000D03*
%TD*%
D33*
%TO.C,U2*%
X96858000Y-76031000D03*
X96858000Y-74761000D03*
X96858000Y-73491000D03*
X96858000Y-72221000D03*
X96858000Y-70951000D03*
X96858000Y-69681000D03*
X96858000Y-68411000D03*
X96858000Y-67141000D03*
X90358000Y-67141000D03*
X90358000Y-68411000D03*
X90358000Y-69681000D03*
X90358000Y-70951000D03*
X90358000Y-72221000D03*
X90358000Y-73491000D03*
X90358000Y-74761000D03*
X90358000Y-76031000D03*
%TD*%
D29*
%TO.C,U6*%
X75533000Y-54386000D03*
X76183000Y-54386000D03*
X76833000Y-54386000D03*
X77483000Y-54386000D03*
X78133000Y-54386000D03*
X78783000Y-54386000D03*
X79433000Y-54386000D03*
X80083000Y-54386000D03*
X80083000Y-60126000D03*
X79433000Y-60126000D03*
X78783000Y-60126000D03*
X78133000Y-60126000D03*
X77483000Y-60126000D03*
X76833000Y-60126000D03*
X76183000Y-60126000D03*
X75533000Y-60126000D03*
%TD*%
D22*
%TO.C,R85*%
X72793000Y-58686000D03*
X73813000Y-58686000D03*
%TD*%
D24*
%TO.C,C13*%
X98928000Y-61786000D03*
X99888000Y-61786000D03*
%TD*%
D36*
%TO.C,C5*%
X74642000Y-96858100D03*
X76542000Y-96858100D03*
%TD*%
D22*
%TO.C,R92*%
X96388000Y-59886000D03*
X97408000Y-59886000D03*
%TD*%
D17*
%TO.C,U13*%
X76723000Y-86296000D03*
X76723000Y-85026000D03*
X76723000Y-83756000D03*
X76723000Y-82486000D03*
X76723000Y-81216000D03*
X76723000Y-79946000D03*
X76723000Y-78676000D03*
X81673000Y-78676000D03*
X81673000Y-79946000D03*
X81673000Y-81216000D03*
X81673000Y-82486000D03*
X81673000Y-83756000D03*
X81673000Y-85026000D03*
X81673000Y-86296000D03*
%TD*%
D19*
%TO.C,R29*%
X94064000Y-80026000D03*
X94064000Y-81046000D03*
%TD*%
D22*
%TO.C,R55*%
X84555500Y-58928501D03*
X85575500Y-58928501D03*
%TD*%
D37*
%TO.C,VR1*%
X70482500Y-71256000D03*
X67942500Y-68716000D03*
D38*
X65402500Y-71256000D03*
%TD*%
D19*
%TO.C,R97*%
X98708000Y-97696000D03*
X98708000Y-96676000D03*
%TD*%
D24*
%TO.C,C22*%
X102688000Y-82786000D03*
X101728000Y-82786000D03*
%TD*%
D22*
%TO.C,R59*%
X72773000Y-54286000D03*
X73793000Y-54286000D03*
%TD*%
%TO.C,R47*%
X60845500Y-56694236D03*
X61865500Y-56694236D03*
%TD*%
D19*
%TO.C,R7*%
X153783000Y-61582000D03*
X153783000Y-62602000D03*
%TD*%
D40*
%TO.C,C16*%
X72823000Y-71086000D03*
X74373000Y-71086000D03*
%TD*%
D13*
%TO.C,C19*%
X74608000Y-82506000D03*
X74608000Y-83466000D03*
%TD*%
D41*
%TO.C,C17*%
X87973000Y-82486000D03*
X86423000Y-82486000D03*
%TD*%
D20*
%TO.C,H1*%
X161639000Y-154941000D03*
X160979990Y-156531990D03*
X160979990Y-153350010D03*
X159389000Y-157191000D03*
D21*
X159389000Y-154941000D03*
D20*
X159389000Y-152691000D03*
X157798010Y-156531990D03*
X157798010Y-153350010D03*
X157139000Y-154941000D03*
%TD*%
D22*
%TO.C,R22*%
X144593000Y-59392000D03*
X143573000Y-59392000D03*
%TD*%
D19*
%TO.C,R12*%
X150183000Y-61582000D03*
X150183000Y-62602000D03*
%TD*%
D42*
%TO.C,U12*%
X156762000Y-104456000D03*
X156762000Y-105726000D03*
X156762000Y-106996000D03*
X156762000Y-108266000D03*
X151822000Y-108266000D03*
X151822000Y-106996000D03*
X151822000Y-105726000D03*
X151822000Y-104456000D03*
%TD*%
D24*
%TO.C,C8*%
X63328000Y-61786000D03*
X64288000Y-61786000D03*
%TD*%
D19*
%TO.C,R42*%
X119864000Y-83021000D03*
X119864000Y-82001000D03*
%TD*%
D23*
%TO.C,R24*%
X143573000Y-58292000D03*
X144593000Y-58292000D03*
%TD*%
D18*
%TO.C,R64*%
X83898000Y-79276000D03*
X83898000Y-80296000D03*
%TD*%
D23*
%TO.C,R80*%
X77708000Y-75286000D03*
X76688000Y-75286000D03*
%TD*%
D24*
%TO.C,C23*%
X127528000Y-82786000D03*
X128488000Y-82786000D03*
%TD*%
D22*
%TO.C,R88*%
X96388000Y-55486000D03*
X97408000Y-55486000D03*
%TD*%
%TO.C,R83*%
X72793000Y-56486000D03*
X73813000Y-56486000D03*
%TD*%
D19*
%TO.C,R75*%
X73398000Y-67096000D03*
X73398000Y-66076000D03*
%TD*%
D43*
%TO.C,J8*%
X51804000Y-43986000D03*
X55764000Y-43986000D03*
X59724000Y-43986000D03*
X63684000Y-43986000D03*
X67644000Y-43986000D03*
X71604000Y-43986000D03*
X75564000Y-43986000D03*
X79524000Y-43986000D03*
X83484000Y-43986000D03*
X87444000Y-43986000D03*
X91404000Y-43986000D03*
X95364000Y-43986000D03*
X99324000Y-43986000D03*
X103284000Y-43986000D03*
X107244000Y-43986000D03*
X111204000Y-43986000D03*
X115164000Y-43986000D03*
X119124000Y-43986000D03*
X123084000Y-43986000D03*
X127044000Y-43986000D03*
X131004000Y-43986000D03*
X138924000Y-43986000D03*
X142884000Y-43986000D03*
X146844000Y-43986000D03*
X150804000Y-43986000D03*
X154764000Y-43986000D03*
X158724000Y-43986000D03*
X51804000Y-43986000D03*
X55764000Y-43986000D03*
X59724000Y-43986000D03*
X63684000Y-43986000D03*
X67644000Y-43986000D03*
X71604000Y-43986000D03*
X75564000Y-43986000D03*
X79524000Y-43986000D03*
X83484000Y-43986000D03*
X87444000Y-43986000D03*
X91404000Y-43986000D03*
X95364000Y-43986000D03*
X99324000Y-43986000D03*
X103284000Y-43986000D03*
X107244000Y-43986000D03*
X111204000Y-43986000D03*
X115164000Y-43986000D03*
X119124000Y-43986000D03*
X123084000Y-43986000D03*
X127044000Y-43986000D03*
X131004000Y-43986000D03*
X138924000Y-43986000D03*
X142884000Y-43986000D03*
X146844000Y-43986000D03*
X150804000Y-43986000D03*
X154764000Y-43986000D03*
X158724000Y-43986000D03*
%TD*%
D18*
%TO.C,R77*%
X83798000Y-66076000D03*
X83798000Y-67096000D03*
%TD*%
D19*
%TO.C,R41*%
X120964000Y-83021000D03*
X120964000Y-82001000D03*
%TD*%
D35*
%TO.C,C20*%
X83808000Y-70066000D03*
X83808000Y-69106000D03*
%TD*%
D44*
%TO.C,J7*%
X139323000Y-91060000D03*
X139323000Y-93600000D03*
X136783000Y-91060000D03*
X136783000Y-93600000D03*
X134243000Y-91060000D03*
X134243000Y-93600000D03*
X131703000Y-91060000D03*
X131703000Y-93600000D03*
X129163000Y-91060000D03*
X129163000Y-93600000D03*
X126623000Y-91060000D03*
X126623000Y-93600000D03*
X124083000Y-91060000D03*
X124083000Y-93600000D03*
X121543000Y-91060000D03*
X121543000Y-93600000D03*
X119003000Y-91060000D03*
X119003000Y-93600000D03*
X116463000Y-91060000D03*
X116463000Y-93600000D03*
X113923000Y-91060000D03*
X113923000Y-93600000D03*
X111383000Y-91060000D03*
X111383000Y-93600000D03*
X108843000Y-91060000D03*
X108843000Y-93600000D03*
X106303000Y-91060000D03*
X106303000Y-93600000D03*
X103763000Y-91060000D03*
X103763000Y-93600000D03*
X101223000Y-91060000D03*
X101223000Y-93600000D03*
X98683000Y-91060000D03*
X98683000Y-93600000D03*
X96143000Y-91060000D03*
X96143000Y-93600000D03*
X93603000Y-91060000D03*
X93603000Y-93600000D03*
X91063000Y-91060000D03*
D31*
X91063000Y-93600000D03*
%TD*%
M02*
