M48
; DRILL file {KiCad 9.0.2-rc1} date 2025-07-09T15:34:15-0600
; FORMAT={-:-/ absolute / inch / decimal}
; #@! TF.CreationDate,2025-07-09T15:34:15-06:00
; #@! TF.GenerationSoftware,Kicad,Pcbnew,9.0.2-rc1
; #@! TF.FileFunction,Plated,1,4,PTH
FMAT,2
INCH
; #@! TA.AperFunction,Plated,PTH,ViaDrill
T1C0.0079
; #@! TA.AperFunction,Plated,PTH,ViaDrill
T2C0.0130
; #@! TA.AperFunction,Plated,PTH,ViaDrill
T3C0.0138
; #@! TA.AperFunction,Plated,PTH,ViaDrill
T4C0.0157
; #@! TA.AperFunction,Plated,PTH,ComponentDrill
T5C0.0197
; #@! TA.AperFunction,Plated,PTH,ViaDrill
T6C0.0236
; #@! TA.AperFunction,Plated,PTH,ComponentDrill
T7C0.0281
; #@! TA.AperFunction,Plated,PTH,ComponentDrill
T8C0.0320
; #@! TA.AperFunction,Plated,PTH,ComponentDrill
T9C0.0394
; #@! TA.AperFunction,Plated,PTH,ComponentDrill
T10C0.0472
; #@! TA.AperFunction,Plated,PTH,ComponentDrill
T11C0.1171
; #@! TA.AperFunction,Plated,PTH,ComponentDrill
T12C0.1181
%
G90
G05
T1
X2.5082Y-2.3183
X2.5597Y-2.2984
X2.583Y-2.2826
X2.6105Y-2.2669
X2.6342Y-2.2502
X2.6608Y-2.2304
X2.6854Y-2.4168
X2.9745Y-2.3205
X3.0259Y-2.3026
X3.0494Y-2.2826
X3.0751Y-2.2669
X3.1027Y-2.2502
X3.1263Y-2.2304
X3.1539Y-2.4207
X3.443Y-2.3205
X3.4964Y-2.3019
X3.5181Y-2.2826
X3.5436Y-2.2669
X3.5712Y-2.2475
X3.597Y-2.2278
X3.6244Y-2.4194
X3.9058Y-2.3193
X3.9578Y-2.3019
X3.9728Y-2.4443
X3.9828Y-2.2829
X4.0082Y-2.2632
X4.034Y-2.2475
X4.0594Y-2.2278
X4.0948Y-2.4168
X4.4609Y-2.6924
X4.4609Y-2.7396
X4.4609Y-2.7908
X4.4609Y-2.842
X4.4609Y-2.8931
X4.4609Y-2.9404
X4.4609Y-2.9916
X4.4609Y-3.0428
X4.4609Y-3.09
X4.4609Y-3.1412
X5.4773Y-2.739
X5.4773Y-2.7902
X5.4773Y-2.8414
X5.4773Y-2.8926
X5.4773Y-2.9398
X5.4773Y-2.991
X5.4773Y-3.0422
X5.4773Y-3.0894
X5.4773Y-3.1406
X5.4806Y-2.6918
X6.2129Y-2.7278
T2
X4.1106Y-2.6451
X5.0567Y-2.5808
T3
X2.8448Y-3.0526
X2.8582Y-3.4365
X2.8621Y-2.5616
X2.898Y-3.2475
X2.9019Y-2.7467
X3.073Y-2.7104
X3.1515Y-2.6902
X3.1548Y-2.8019
X3.1548Y-3.198
X3.1548Y-3.2965
X3.2838Y-2.9325
X3.3113Y-2.5554
X3.3428Y-2.7593
X3.3428Y-3.2435
X3.4019Y-3.0113
X4.6696Y-2.5861
X5.7769Y-2.2967
X5.9619Y-2.2928
X6.1509Y-2.2928
T4
X2.0395Y-2.0191
X2.1175Y-2.0191
X2.1954Y-2.0191
X2.394Y-2.4522
X2.457Y-2.4325
X2.4767Y-2.09
X2.4964Y-1.9365
X2.531Y-2.4994
X2.5357Y-1.9876
X2.7247Y-2.1412
X2.7696Y-3.8208
X2.8271Y-2.7514
X2.8468Y-2.6018
X2.8507Y-2.8971
X2.8665Y-2.468
X2.8901Y-2.6963
X2.9216Y-2.4365
X2.9394Y-2.0851
X2.9452Y-3.2002
X2.9531Y-3.3223
X2.9609Y-3.7042
X2.9846Y-1.9876
X2.9964Y-2.5034
X3.0239Y-2.0703
X3.0353Y-3.7463
X3.0505Y-2.0191
X3.0585Y-1.971
X3.0668Y-3.8132
X3.0983Y-3.7463
X3.1342Y-1.9916
X3.1578Y-2.0349
X3.1578Y-2.0782
X3.1775Y-3.7002
X3.2956Y-3.3183
X3.3074Y-2.6806
X3.3271Y-2.468
X3.3901Y-2.4296
X3.4137Y-2.842
X3.4216Y-2.09
X3.4373Y-1.9404
X3.4609Y-3.2002
X3.4688Y-1.9876
X3.4688Y-2.5231
X3.583Y-3.9876
X3.6263Y-2.0743
X3.6578Y-3.1924
X3.7956Y-2.4719
X3.8586Y-2.4325
X3.8847Y-2.0826
X3.8861Y-3.9876
X3.9294Y-1.9837
X3.9294Y-2.527
X3.9649Y-3.2593
X3.9688Y-2.0546
X4.0062Y-2.0276
X4.0328Y-1.9955
X4.0436Y-3.3026
X4.0591Y-2.0575
X4.0869Y-3.8853
X4.0948Y-2.027
X4.1145Y-2.0782
X4.2222Y-1.9848
X4.2222Y-2.0321
X4.3704Y-2.1057
X4.4688Y-2.0743
X4.4767Y-2.6412
X4.4806Y-3.1884
X4.5357Y-2.09
X4.6263Y-1.9876
X4.6735Y-3.1884
X4.6893Y-2.0349
X4.8468Y-2.0546
X4.9821Y-3.2564
X5.4255Y-2.5782
X5.4734Y-1.9365
X5.4924Y-3.1884
X5.5987Y-2.5821
X5.6066Y-3.0231
X5.6263Y-1.9384
X5.7287Y-2.2947
X5.7405Y-3.3656
X5.7813Y-2.0211
X5.8586Y-2.0211
X5.8743Y-4.0467
X5.9216Y-2.2947
X5.9372Y-2.0211
X6.0712Y-4.1126
X6.0712Y-4.1638
X6.0712Y-4.215
X6.0712Y-4.2622
X6.0931Y-2.0204
X6.1066Y-2.2947
X6.171Y-2.0204
X6.2326Y-4.2126
X6.249Y-2.0204
X6.2523Y-3.0191
T5
X2.2316Y-3.65
X2.2316Y-6.1
X2.2575Y-3.5874
X2.2575Y-3.7127
X2.2575Y-6.0374
X2.2575Y-6.1627
X2.3202Y-3.5615
X2.3202Y-3.7386
X2.3202Y-6.0115
X2.3202Y-6.1886
X2.3828Y-3.5874
X2.3828Y-3.7127
X2.3828Y-6.0374
X2.3828Y-6.1627
X2.4087Y-3.65
X2.4087Y-6.1
X6.1866Y-3.65
X6.1866Y-6.1
X6.2125Y-3.5874
X6.2125Y-3.7127
X6.2125Y-6.0374
X6.2125Y-6.1627
X6.2752Y-3.5615
X6.2752Y-3.7386
X6.2752Y-6.0115
X6.2752Y-6.1886
X6.3378Y-3.5874
X6.3378Y-3.7127
X6.3378Y-6.0374
X6.3378Y-6.1627
X6.3637Y-3.65
X6.3637Y-6.1
T6
X5.0318Y-3.3617
X5.5476Y-2.6609
T7
X2.5749Y-2.8054
X2.5749Y-3.14
X2.5749Y-3.4707
X2.6749Y-2.7054
X2.6749Y-3.04
X2.6749Y-3.3707
X2.7749Y-2.8054
X2.7749Y-3.14
X2.7749Y-3.4707
T8
X2.6357Y-3.9467
X2.7357Y-3.9467
X2.9357Y-3.9467
X3.0357Y-3.9467
X3.1357Y-3.9467
T9
X3.5852Y-3.585
X3.5852Y-3.685
X3.6852Y-3.585
X3.6852Y-3.685
X3.7852Y-3.585
X3.7852Y-3.685
X3.8852Y-3.585
X3.8852Y-3.685
X3.9852Y-3.585
X3.9852Y-3.685
X4.0852Y-3.585
X4.0852Y-3.685
X4.1852Y-3.585
X4.1852Y-3.685
X4.2852Y-3.585
X4.2852Y-3.685
X4.3852Y-3.585
X4.3852Y-3.685
X4.4852Y-3.585
X4.4852Y-3.685
X4.5852Y-3.585
X4.5852Y-3.685
X4.6852Y-3.585
X4.6852Y-3.685
X4.7852Y-3.585
X4.7852Y-3.685
X4.8852Y-3.585
X4.8852Y-3.685
X4.9852Y-3.585
X4.9852Y-3.685
X5.0852Y-3.585
X5.0852Y-3.685
X5.1852Y-3.585
X5.1852Y-3.685
X5.2413Y-5.5467
X5.2852Y-3.585
X5.2852Y-3.685
X5.3413Y-5.5467
X5.3852Y-3.585
X5.3852Y-3.685
X5.4413Y-5.5467
X5.4852Y-3.585
X5.4852Y-3.685
T10
X5.268Y-4.1233
X5.268Y-4.2217
X5.268Y-4.3201
T11
X5.5436Y-4.0485
X5.5436Y-4.3949
T12
X2.3202Y-3.65
X2.3202Y-6.1
X6.2752Y-3.65
X6.2752Y-6.1
T9
G00X5.8516Y-5.7672
M15
G01X5.8516Y-5.6884
M16
G05
G00X6.0091Y-5.5428
M15
G01X5.9303Y-5.5428
M16
G05
G00X6.0878Y-5.7672
M15
G01X6.0878Y-5.6884
M16
G05
M30
