%TF.GenerationSoftware,KiCad,Pcbnew,9.0.2-rc1*%
%TF.CreationDate,2025-07-09T15:34:15-06:00*%
%TF.ProjectId,mister-vector,6d697374-6572-42d7-9665-63746f722e6b,rev?*%
%TF.SameCoordinates,Original*%
%TF.FileFunction,Profile,NP*%
%FSLAX46Y46*%
G04 Gerber Fmt 4.6, Leading zero omitted, Abs format (unit mm)*
G04 Created by KiCad (PCBNEW 9.0.2-rc1) date 2025-07-09 15:34:15*
%MOMM*%
%LPD*%
G01*
G04 APERTURE LIST*
%TA.AperFunction,Profile*%
%ADD10C,0.100000*%
%TD*%
G04 APERTURE END LIST*
D10*
X136464000Y-39536000D02*
X161808000Y-39536000D01*
X55564000Y-158286000D02*
X88904000Y-158286000D01*
X133464000Y-39536000D02*
X133464000Y-49536000D01*
X99953000Y-148718000D02*
X100334000Y-149099000D01*
X141609000Y-158286000D02*
X162764000Y-158286000D01*
X133460000Y-39536000D02*
X48916687Y-39536000D01*
X162764000Y-40486000D02*
X162764000Y-158286000D01*
X133464000Y-49536000D02*
X136464000Y-49536000D01*
X140720000Y-149099000D02*
X141609000Y-149988000D01*
X100334000Y-149099000D02*
X140720000Y-149099000D01*
X55564000Y-89386000D02*
X47964000Y-81786000D01*
X141609000Y-149988000D02*
X141609000Y-158286000D01*
X55564000Y-89386000D02*
X55564000Y-158286000D01*
X136464000Y-49536000D02*
X136464000Y-39536000D01*
X126281798Y-126382000D02*
G75*
G02*
X88229202Y-126382000I-19026298J0D01*
G01*
X88229202Y-126382000D02*
G75*
G02*
X126281798Y-126382000I19026298J0D01*
G01*
X99953000Y-146305000D02*
X99953000Y-148718000D01*
X47968723Y-40536000D02*
X48908000Y-39536000D01*
X90555000Y-146305000D02*
X88904000Y-147956000D01*
X88904000Y-147956000D02*
X88904000Y-158286000D01*
X47964000Y-40541028D02*
X47964000Y-81786000D01*
X90555000Y-146305000D02*
X99953000Y-146305000D01*
X162764000Y-40486000D02*
X161814000Y-39536000D01*
M02*
