%TF.GenerationSoftware,KiCad,Pcbnew,9.0.2-rc1*%
%TF.CreationDate,2025-07-09T15:34:15-06:00*%
%TF.ProjectId,mister-vector,6d697374-6572-42d7-9665-63746f722e6b,rev?*%
%TF.SameCoordinates,Original*%
%TF.FileFunction,Copper,L3,Inr*%
%TF.FilePolarity,Positive*%
%FSLAX46Y46*%
G04 Gerber Fmt 4.6, Leading zero omitted, Abs format (unit mm)*
G04 Created by KiCad (PCBNEW 9.0.2-rc1) date 2025-07-09 15:34:15*
%MOMM*%
%LPD*%
G01*
G04 APERTURE LIST*
G04 Aperture macros list*
%AMRoundRect*
0 Rectangle with rounded corners*
0 $1 Rounding radius*
0 $2 $3 $4 $5 $6 $7 $8 $9 X,Y pos of 4 corners*
0 Add a 4 corners polygon primitive as box body*
4,1,4,$2,$3,$4,$5,$6,$7,$8,$9,$2,$3,0*
0 Add four circle primitives for the rounded corners*
1,1,$1+$1,$2,$3*
1,1,$1+$1,$4,$5*
1,1,$1+$1,$6,$7*
1,1,$1+$1,$8,$9*
0 Add four rect primitives between the rounded corners*
20,1,$1+$1,$2,$3,$4,$5,0*
20,1,$1+$1,$4,$5,$6,$7,0*
20,1,$1+$1,$6,$7,$8,$9,0*
20,1,$1+$1,$8,$9,$2,$3,0*%
G04 Aperture macros list end*
%TA.AperFunction,ComponentPad*%
%ADD10C,1.800000*%
%TD*%
%TA.AperFunction,ComponentPad*%
%ADD11C,4.460000*%
%TD*%
%TA.AperFunction,ComponentPad*%
%ADD12C,0.800000*%
%TD*%
%TA.AperFunction,ComponentPad*%
%ADD13C,6.000000*%
%TD*%
%TA.AperFunction,ComponentPad*%
%ADD14RoundRect,0.875000X0.875000X0.875000X-0.875000X0.875000X-0.875000X-0.875000X0.875000X-0.875000X0*%
%TD*%
%TA.AperFunction,ComponentPad*%
%ADD15RoundRect,0.750000X0.750000X1.000000X-0.750000X1.000000X-0.750000X-1.000000X0.750000X-1.000000X0*%
%TD*%
%TA.AperFunction,ComponentPad*%
%ADD16R,3.500000X3.500000*%
%TD*%
%TA.AperFunction,ComponentPad*%
%ADD17C,1.700000*%
%TD*%
%TA.AperFunction,ComponentPad*%
%ADD18R,1.700000X1.700000*%
%TD*%
%TA.AperFunction,ComponentPad*%
%ADD19O,1.320800X2.641600*%
%TD*%
%TA.AperFunction,ComponentPad*%
%ADD20C,1.222000*%
%TD*%
%TA.AperFunction,ComponentPad*%
%ADD21R,1.222000X1.222000*%
%TD*%
%TA.AperFunction,ComponentPad*%
%ADD22O,1.700000X1.700000*%
%TD*%
%TA.AperFunction,ViaPad*%
%ADD23C,0.800000*%
%TD*%
%TA.AperFunction,ViaPad*%
%ADD24C,0.756400*%
%TD*%
%TA.AperFunction,ViaPad*%
%ADD25C,0.400000*%
%TD*%
%TA.AperFunction,ViaPad*%
%ADD26C,1.200000*%
%TD*%
%TA.AperFunction,ViaPad*%
%ADD27C,0.736600*%
%TD*%
%TA.AperFunction,Conductor*%
%ADD28C,0.250000*%
%TD*%
G04 APERTURE END LIST*
D10*
%TO.N,Net-(C40-Pad2)*%
%TO.C,VR4*%
X133808000Y-104731000D03*
%TO.N,Net-(R99-Pad2)*%
X133808000Y-107231000D03*
%TO.N,GND*%
X133808000Y-109731000D03*
D11*
%TO.N,N/C*%
X140808000Y-102831000D03*
X140808000Y-111631000D03*
%TD*%
D12*
%TO.N,GND*%
%TO.C,H3*%
X161639000Y-92711000D03*
X160979990Y-94301990D03*
X160979990Y-91120010D03*
X159389000Y-94961000D03*
D13*
X159389000Y-92711000D03*
D12*
X159389000Y-90461000D03*
X157798010Y-94301990D03*
X157798010Y-91120010D03*
X157139000Y-92711000D03*
%TD*%
D14*
%TO.N,GND*%
%TO.C,J10*%
X151630000Y-140786000D03*
D15*
X154630000Y-145486000D03*
D16*
%TO.N,+5V*%
X148630000Y-145486000D03*
%TD*%
D12*
%TO.N,GND*%
%TO.C,H2*%
X61182000Y-92711000D03*
X60522990Y-94301990D03*
X60522990Y-91120010D03*
X58932000Y-94961000D03*
D13*
X58932000Y-92711000D03*
D12*
X58932000Y-90461000D03*
X57341010Y-94301990D03*
X57341010Y-91120010D03*
X56682000Y-92711000D03*
%TD*%
D17*
%TO.N,unconnected-(J100-Pin_3-Pad3)*%
%TO.C,J100*%
X138208000Y-140886000D03*
%TO.N,+5V*%
X135668000Y-140886000D03*
D18*
%TO.N,GND*%
X133128000Y-140886000D03*
%TD*%
D19*
%TO.N,+5V*%
%TO.C,U1*%
X66948000Y-100247000D03*
%TO.N,GND*%
X69488000Y-100247000D03*
%TO.N,-12V*%
X74568000Y-100247000D03*
%TO.N,GND*%
X77108000Y-100247000D03*
%TO.N,+12V*%
X79648000Y-100247000D03*
%TD*%
D12*
%TO.N,GND*%
%TO.C,H4*%
X61182000Y-154941000D03*
X60522990Y-156531990D03*
X60522990Y-153350010D03*
X58932000Y-157191000D03*
D13*
X58932000Y-154941000D03*
D12*
X58932000Y-152691000D03*
X57341010Y-156531990D03*
X57341010Y-153350010D03*
X56682000Y-154941000D03*
%TD*%
D20*
%TO.N,Net-(U13D-OUT)*%
%TO.C,VR3*%
X70482500Y-88156000D03*
%TO.N,Net-(U13D--IN)*%
X67942500Y-85616000D03*
D21*
%TO.N,unconnected-(VR3-Pad1)*%
X65402500Y-88156000D03*
%TD*%
D20*
%TO.N,Net-(U13C-OUT)*%
%TO.C,VR2*%
X70482500Y-79756000D03*
%TO.N,Net-(U13C--IN)*%
X67942500Y-77216000D03*
D21*
%TO.N,unconnected-(VR2-Pad1)*%
X65402500Y-79756000D03*
%TD*%
D20*
%TO.N,+3.3V*%
%TO.C,VR1*%
X70482500Y-71256000D03*
%TO.N,Net-(U14D-+IN)*%
X67942500Y-68716000D03*
D21*
%TO.N,GND*%
X65402500Y-71256000D03*
%TD*%
D12*
%TO.N,GND*%
%TO.C,H1*%
X161639000Y-154941000D03*
X160979990Y-156531990D03*
X160979990Y-153350010D03*
X159389000Y-157191000D03*
D13*
X159389000Y-154941000D03*
D12*
X159389000Y-152691000D03*
X157798010Y-156531990D03*
X157798010Y-153350010D03*
X157139000Y-154941000D03*
%TD*%
D22*
%TO.N,/D4*%
%TO.C,J7*%
X139323000Y-91060000D03*
%TO.N,/D5*%
X139323000Y-93600000D03*
%TO.N,/D3*%
X136783000Y-91060000D03*
%TO.N,/D6*%
X136783000Y-93600000D03*
%TO.N,/D2*%
X134243000Y-91060000D03*
%TO.N,/D7*%
X134243000Y-93600000D03*
%TO.N,/D1*%
X131703000Y-91060000D03*
%TO.N,/D8*%
X131703000Y-93600000D03*
%TO.N,/D0*%
X129163000Y-91060000D03*
%TO.N,/D9*%
X129163000Y-93600000D03*
%TO.N,GND*%
X126623000Y-91060000D03*
%TO.N,Net-(J7-Pad29)*%
X126623000Y-93600000D03*
%TO.N,unconnected-(J7-Pad28)*%
X124083000Y-91060000D03*
%TO.N,unconnected-(J7-Pad27)*%
X124083000Y-93600000D03*
%TO.N,/CLK_RGB*%
X121543000Y-91060000D03*
%TO.N,unconnected-(J7-Pad25)*%
X121543000Y-93600000D03*
%TO.N,/CLK_Y*%
X119003000Y-91060000D03*
%TO.N,unconnected-(J7-Pad23)*%
X119003000Y-93600000D03*
%TO.N,/CLK_X*%
X116463000Y-91060000D03*
%TO.N,unconnected-(J7-Pad21)*%
X116463000Y-93600000D03*
%TO.N,/CLK_P21*%
X113923000Y-91060000D03*
%TO.N,unconnected-(J7-Pad19)*%
X113923000Y-93600000D03*
%TO.N,/CLK_P11*%
X111383000Y-91060000D03*
%TO.N,/BTN_RESET*%
X111383000Y-93600000D03*
%TO.N,/CLK_P20*%
X108843000Y-91060000D03*
%TO.N,/BTN_USER*%
X108843000Y-93600000D03*
%TO.N,/CLK_P10*%
X106303000Y-91060000D03*
%TO.N,/BTN_OSD*%
X106303000Y-93600000D03*
%TO.N,GND*%
X103763000Y-91060000D03*
%TO.N,Net-(J7-Pad11)*%
X103763000Y-93600000D03*
%TO.N,GND*%
X101223000Y-91060000D03*
%TO.N,/SPDIF*%
X101223000Y-93600000D03*
%TO.N,/SD_CMD*%
X98683000Y-91060000D03*
%TO.N,/AUDIO_R*%
X98683000Y-93600000D03*
%TO.N,/SD_DAT3*%
X96143000Y-91060000D03*
%TO.N,/LED_POWER*%
X96143000Y-93600000D03*
%TO.N,/SD_DAT2*%
X93603000Y-91060000D03*
%TO.N,/LED_DISK*%
X93603000Y-93600000D03*
%TO.N,/AUDIO_L*%
X91063000Y-91060000D03*
D18*
%TO.N,/LED_USER*%
X91063000Y-93600000D03*
%TD*%
D23*
%TO.N,GND*%
X84008000Y-68086000D03*
X74808000Y-81286000D03*
X83708000Y-84286000D03*
D24*
%TO.N,+12V*%
X84908000Y-70086000D03*
%TO.N,-12V*%
X73708000Y-69766000D03*
X73608000Y-82486000D03*
%TO.N,+12V*%
X84908000Y-82386000D03*
D23*
%TO.N,GND*%
X137808000Y-65486000D03*
D25*
%TO.N,/D0*%
X100908000Y-62086000D03*
D23*
%TO.N,/-5V_NC*%
X142908000Y-49236000D03*
%TO.N,/JAMMA_PIN_11(Y)*%
X117508000Y-50486000D03*
%TO.N,/JAMMA_VIDEO_R*%
X113508000Y-52686000D03*
%TO.N,/JAMMA_VIDEO_B*%
X111008000Y-53486000D03*
D25*
%TO.N,/D2*%
X101163000Y-57986000D03*
%TO.N,/D0*%
X99208000Y-58911000D03*
%TO.N,/D1*%
X100526956Y-58467044D03*
D23*
%TO.N,+5V*%
X96408000Y-62786000D03*
X72808000Y-62686000D03*
X150804000Y-51335998D03*
X84508000Y-62686000D03*
X158308000Y-107001000D03*
X146844000Y-51335998D03*
X148808000Y-51336000D03*
X103808000Y-98686000D03*
X60808000Y-62286000D03*
%TO.N,+3.3V*%
X88108000Y-64086000D03*
X99808000Y-64186000D03*
X102708000Y-83886000D03*
X76108000Y-63586000D03*
X64288000Y-63486000D03*
D26*
X140908000Y-67586000D03*
X127808000Y-85386000D03*
D23*
%TO.N,GND*%
X77896300Y-96855900D03*
X51804000Y-51286000D03*
X99808000Y-50386000D03*
X156744000Y-51317998D03*
X154208000Y-107061000D03*
X139508000Y-80986000D03*
X75008000Y-84386000D03*
X98708000Y-101286000D03*
X72308000Y-66086000D03*
X158808000Y-76686000D03*
X150408000Y-58286000D03*
X100708000Y-82786000D03*
X104508000Y-52786000D03*
X91008000Y-101286000D03*
X69208000Y-54386000D03*
X55764000Y-51286000D03*
X72408000Y-73586000D03*
X88108000Y-50486000D03*
X80208000Y-52786000D03*
X158724000Y-51317998D03*
X53784000Y-51286000D03*
X87908000Y-81286000D03*
X145808000Y-85486000D03*
X154764000Y-51317998D03*
X126544532Y-82713313D03*
X154208000Y-104461000D03*
X154208000Y-105761000D03*
X78696300Y-95155900D03*
X77096300Y-95155900D03*
X118708000Y-80986000D03*
X86108000Y-61711000D03*
X154208000Y-108261000D03*
X75808000Y-50486000D03*
X149208000Y-102786000D03*
X145508000Y-58286000D03*
X155108000Y-58286000D03*
X113708000Y-67086000D03*
X142208000Y-65586000D03*
X73408000Y-68486000D03*
X107244000Y-51616002D03*
X142408000Y-76786000D03*
X92908000Y-81086000D03*
X74208000Y-61886000D03*
X92108000Y-52686000D03*
X107244000Y-50414635D03*
X113808000Y-80986000D03*
X98008000Y-61786000D03*
X62408000Y-61786000D03*
X86708000Y-72186000D03*
X70348000Y-97048400D03*
X64408000Y-50486000D03*
%TO.N,+12V*%
X80708000Y-93986000D03*
%TO.N,/+12V_NC*%
X139024000Y-49186000D03*
%TO.N,-12V*%
X75208000Y-94086000D03*
D25*
%TO.N,/D5*%
X79408000Y-56652756D03*
X139123000Y-73471000D03*
X113308000Y-73486000D03*
X67585156Y-56652756D03*
X91364000Y-56586000D03*
X103108000Y-56586000D03*
D27*
%TO.N,/CLK_Y*%
X128440548Y-65553452D03*
D25*
%TO.N,/D7*%
X139123000Y-70871000D03*
X113308000Y-70886000D03*
%TO.N,/D2*%
X89359439Y-57979021D03*
X139123000Y-77271000D03*
X113308000Y-77286000D03*
X65608000Y-57979021D03*
X77455491Y-57979021D03*
%TO.N,/D8*%
X113308000Y-69586000D03*
X139123000Y-69571000D03*
%TO.N,/D9*%
X113308000Y-68386000D03*
X139208000Y-68371000D03*
%TO.N,/D1*%
X113308000Y-78486000D03*
X65016021Y-58379021D03*
X76858000Y-58486000D03*
X88808000Y-58467044D03*
X139123000Y-78471000D03*
D27*
%TO.N,/CLK_X*%
X104408000Y-67186000D03*
D25*
%TO.N,/D6*%
X113308000Y-72186000D03*
X139123000Y-72171000D03*
%TO.N,/D0*%
X75553000Y-58941000D03*
X63708000Y-58886000D03*
X87453000Y-58941000D03*
X139123000Y-79771000D03*
X113308000Y-79786000D03*
%TO.N,/CLK_RGB*%
X157808000Y-69286000D03*
%TO.N,/D4*%
X90708000Y-57086000D03*
X102463000Y-57086000D03*
X78808000Y-57154533D03*
X139123000Y-74671000D03*
X66908000Y-57154533D03*
X113308000Y-74686000D03*
%TO.N,/D3*%
X139123000Y-75971000D03*
X113308000Y-75986000D03*
X66306400Y-57579021D03*
X101808000Y-57486000D03*
X78108000Y-57579021D03*
X90008000Y-57579021D03*
D24*
%TO.N,/Vector Amplifiers/DAC_R*%
X80048000Y-68330000D03*
X146733000Y-58336000D03*
%TO.N,/Vector Amplifiers/DAC_G*%
X80132600Y-71168477D03*
X151433000Y-58236000D03*
%TO.N,/Vector Amplifiers/DAC_B*%
X156233000Y-58236000D03*
X78054800Y-68843387D03*
%TO.N,/Vector Amplifiers/DAC_Y*%
X118608000Y-65686000D03*
X80132600Y-83730000D03*
%TO.N,/Vector Amplifiers/DAC_X*%
X86408000Y-76486000D03*
X80132600Y-81230000D03*
D25*
%TO.N,/CLK_P20*%
X80108000Y-61486000D03*
%TO.N,/CLK_P11*%
X92059104Y-61453127D03*
%TO.N,/CLK_P21*%
X104008000Y-61386000D03*
%TO.N,/CLK_P10*%
X68208000Y-61386000D03*
D23*
%TO.N,/JAMMA_SERVICE*%
X104008000Y-51486000D03*
%TO.N,/JAMMA_TILT*%
X103100450Y-52261681D03*
%TO.N,/JAMMA_P2_R*%
X79608000Y-50586000D03*
%TO.N,/JAMMA_SPEAKER-*%
X123108000Y-52186000D03*
D24*
%TO.N,/JAMMA_VIDEO_G*%
X83408000Y-74486000D03*
D23*
X115208000Y-53086000D03*
D24*
%TO.N,/JAMMA_VIDEO_R*%
X84108000Y-64907800D03*
%TO.N,/JAMMA_VIDEO_B*%
X72698000Y-65064200D03*
D23*
%TO.N,/JAMMA_P2_D*%
X98670685Y-52897000D03*
%TO.N,/JAMMA_P2_BUTTON3*%
X76808000Y-52586000D03*
%TO.N,/JAMMA_P2_U*%
X100808000Y-52186000D03*
%TO.N,/JAMMA_P2_START*%
X101758000Y-51500203D03*
%TO.N,/JAMMA_P2_COIN*%
X102433000Y-50686000D03*
%TO.N,/JAMMA_P2_BUTTON2*%
X77483000Y-51286000D03*
%TO.N,/JAMMA_P2_BUTTON1*%
X77685298Y-50063298D03*
%TO.N,/JAMMA_P2_L*%
X80208000Y-51686000D03*
%TO.N,/JAMMA_P1_D*%
X87308000Y-49286000D03*
X86908000Y-53086000D03*
%TO.N,/JAMMA_PIN_M(X)*%
X119108000Y-51686000D03*
D24*
X72258000Y-77536000D03*
%TO.N,/JAMMA_PIN_11(Y)*%
X72598000Y-87286000D03*
D23*
%TO.N,/JAMMA_P2_BUTTON4*%
X74659820Y-52961000D03*
%TO.N,/JAMMA_P1_BUTTON4*%
X63408000Y-49186000D03*
X62908000Y-53086000D03*
%TO.N,GND*%
X71808000Y-69886000D03*
%TD*%
D28*
%TO.N,/JAMMA_VIDEO_G*%
X115208000Y-53086000D02*
X111308000Y-56986000D01*
X111308000Y-56986000D02*
X104608000Y-56986000D01*
X104608000Y-56986000D02*
X95708000Y-65886000D01*
X95708000Y-65886000D02*
X80908000Y-65886000D01*
X79208000Y-67586000D02*
X79208000Y-72624314D01*
X81069686Y-74486000D02*
X83408000Y-74486000D01*
X80908000Y-65886000D02*
X79208000Y-67586000D01*
X79208000Y-72624314D02*
X81069686Y-74486000D01*
%TO.N,/JAMMA_PIN_M(X)*%
X69308000Y-63886000D02*
X69308000Y-74586000D01*
X78508000Y-54686000D02*
X69308000Y-63886000D01*
X119108000Y-51686000D02*
X111308000Y-51686000D01*
X111308000Y-51686000D02*
X108308000Y-54686000D01*
X108308000Y-54686000D02*
X78508000Y-54686000D01*
X69308000Y-74586000D02*
X72258000Y-77536000D01*
%TO.N,/Vector Amplifiers/DAC_X*%
X86326013Y-76404013D02*
X86408000Y-76486000D01*
X84958587Y-76404013D02*
X86326013Y-76404013D01*
X80132600Y-81230000D02*
X84958587Y-76404013D01*
%TO.N,/Vector Amplifiers/DAC_B*%
X151283000Y-63186000D02*
X113108000Y-63186000D01*
X78489800Y-73433486D02*
X78489800Y-69278387D01*
X78489800Y-69278387D02*
X78054800Y-68843387D01*
X100543187Y-75750813D02*
X80807127Y-75750813D01*
X113108000Y-63186000D02*
X100543187Y-75750813D01*
X156233000Y-58236000D02*
X151283000Y-63186000D01*
X80807127Y-75750813D02*
X78489800Y-73433486D01*
%TO.N,/Vector Amplifiers/DAC_Y*%
X118608000Y-65686000D02*
X113508000Y-65686000D01*
X113508000Y-65686000D02*
X96008000Y-83186000D01*
X96008000Y-83186000D02*
X80676600Y-83186000D01*
X80676600Y-83186000D02*
X80132600Y-83730000D01*
%TO.N,/JAMMA_VIDEO_R*%
X110408000Y-55786000D02*
X113508000Y-52686000D01*
X84108000Y-64907800D02*
X93229800Y-55786000D01*
X93229800Y-55786000D02*
X110408000Y-55786000D01*
%TO.N,/JAMMA_PIN_11(Y)*%
X111508000Y-50486000D02*
X117508000Y-50486000D01*
X66808000Y-65286000D02*
X78308000Y-53786000D01*
X72598000Y-87286000D02*
X66808000Y-81496000D01*
X66808000Y-81496000D02*
X66808000Y-65286000D01*
X108208000Y-53786000D02*
X111508000Y-50486000D01*
X78308000Y-53786000D02*
X108208000Y-53786000D01*
%TO.N,/JAMMA_VIDEO_B*%
X72698000Y-65064200D02*
X82576200Y-55186000D01*
X82576200Y-55186000D02*
X109308000Y-55186000D01*
X109308000Y-55186000D02*
X111008000Y-53486000D01*
%TO.N,/Vector Amplifiers/DAC_R*%
X80048000Y-68330000D02*
X81692000Y-66686000D01*
X100008000Y-66686000D02*
X107408000Y-59286000D01*
X107408000Y-59286000D02*
X145808000Y-59286000D01*
X81692000Y-66686000D02*
X100008000Y-66686000D01*
X145808000Y-59286000D02*
X145808000Y-59261000D01*
X145808000Y-59261000D02*
X146733000Y-58336000D01*
%TO.N,/Vector Amplifiers/DAC_G*%
X151433000Y-58236000D02*
X148383000Y-61286000D01*
X148383000Y-61286000D02*
X108908000Y-61286000D01*
X99025523Y-71168477D02*
X80132600Y-71168477D01*
X108908000Y-61286000D02*
X99025523Y-71168477D01*
%TD*%
%TA.AperFunction,Conductor*%
%TO.N,GND*%
G36*
X133249148Y-48000352D02*
G01*
X133263500Y-48035000D01*
X133263500Y-49452950D01*
X133263500Y-49619050D01*
X133380950Y-49736500D01*
X133380951Y-49736500D01*
X136547049Y-49736500D01*
X136547050Y-49736500D01*
X136664500Y-49619050D01*
X136664500Y-49046660D01*
X138323500Y-49046660D01*
X138323500Y-49046662D01*
X138323500Y-49325338D01*
X138323500Y-49325340D01*
X138323501Y-49325341D01*
X138430144Y-49582802D01*
X138430146Y-49582805D01*
X138627195Y-49779854D01*
X138627197Y-49779855D01*
X138627198Y-49779856D01*
X138884662Y-49886500D01*
X138884664Y-49886500D01*
X139163336Y-49886500D01*
X139163338Y-49886500D01*
X139420802Y-49779856D01*
X139420803Y-49779854D01*
X139420805Y-49779854D01*
X139617854Y-49582805D01*
X139617854Y-49582803D01*
X139617856Y-49582802D01*
X139724500Y-49325338D01*
X139724500Y-49096660D01*
X142207500Y-49096660D01*
X142207500Y-49096662D01*
X142207500Y-49375338D01*
X142207500Y-49375340D01*
X142207501Y-49375341D01*
X142314144Y-49632802D01*
X142314146Y-49632805D01*
X142511195Y-49829854D01*
X142511197Y-49829855D01*
X142511198Y-49829856D01*
X142768662Y-49936500D01*
X142768664Y-49936500D01*
X143047336Y-49936500D01*
X143047338Y-49936500D01*
X143304802Y-49829856D01*
X143304803Y-49829854D01*
X143304805Y-49829854D01*
X143501854Y-49632805D01*
X143501854Y-49632803D01*
X143501856Y-49632802D01*
X143608500Y-49375338D01*
X143608500Y-49096662D01*
X143501856Y-48839198D01*
X143501855Y-48839197D01*
X143501854Y-48839195D01*
X143304805Y-48642146D01*
X143304802Y-48642144D01*
X143047341Y-48535501D01*
X143047339Y-48535500D01*
X143047338Y-48535500D01*
X142768662Y-48535500D01*
X142768660Y-48535500D01*
X142768658Y-48535501D01*
X142511197Y-48642144D01*
X142314144Y-48839197D01*
X142207501Y-49096658D01*
X142207500Y-49096660D01*
X139724500Y-49096660D01*
X139724500Y-49046662D01*
X139617856Y-48789198D01*
X139617855Y-48789197D01*
X139617854Y-48789195D01*
X139420805Y-48592146D01*
X139420802Y-48592144D01*
X139163341Y-48485501D01*
X139163339Y-48485500D01*
X139163338Y-48485500D01*
X138884662Y-48485500D01*
X138884660Y-48485500D01*
X138884658Y-48485501D01*
X138627197Y-48592144D01*
X138430144Y-48789197D01*
X138323501Y-49046658D01*
X138323500Y-49046660D01*
X136664500Y-49046660D01*
X136664500Y-48035000D01*
X136678852Y-48000352D01*
X136713500Y-47986000D01*
X162514500Y-47986000D01*
X162549148Y-48000352D01*
X162563500Y-48035000D01*
X162563500Y-158036500D01*
X162549148Y-158071148D01*
X162514500Y-158085500D01*
X141858500Y-158085500D01*
X141823852Y-158071148D01*
X141809500Y-158036500D01*
X141809500Y-149904950D01*
X140803050Y-148898500D01*
X100437346Y-148898500D01*
X100402698Y-148884148D01*
X100167852Y-148649302D01*
X100153500Y-148614654D01*
X100153500Y-146221950D01*
X100036050Y-146104500D01*
X90471950Y-146104500D01*
X88703500Y-147872949D01*
X88703500Y-158036500D01*
X88689148Y-158071148D01*
X88654500Y-158085500D01*
X55813500Y-158085500D01*
X55778852Y-158071148D01*
X55764500Y-158036500D01*
X55764500Y-142284286D01*
X89462500Y-142284286D01*
X89462500Y-142705713D01*
X89571570Y-143112769D01*
X89571571Y-143112772D01*
X89757899Y-143435500D01*
X89782281Y-143477730D01*
X90080270Y-143775719D01*
X90213852Y-143852843D01*
X90445227Y-143986428D01*
X90445230Y-143986429D01*
X90852286Y-144095499D01*
X90852287Y-144095500D01*
X90852290Y-144095500D01*
X91273713Y-144095500D01*
X91273713Y-144095499D01*
X91680770Y-143986429D01*
X92045730Y-143775719D01*
X92343719Y-143477730D01*
X92554429Y-143112770D01*
X92663499Y-142705713D01*
X92663500Y-142705713D01*
X92663500Y-142284287D01*
X92663499Y-142284286D01*
X92554429Y-141877230D01*
X92554428Y-141877227D01*
X92420843Y-141645852D01*
X92343719Y-141512270D01*
X92045730Y-141214281D01*
X91962483Y-141166218D01*
X91680772Y-141003571D01*
X91680769Y-141003570D01*
X91273713Y-140894500D01*
X91273710Y-140894500D01*
X90852290Y-140894500D01*
X90852287Y-140894500D01*
X90445230Y-141003570D01*
X90445227Y-141003571D01*
X90080269Y-141214281D01*
X90080269Y-141214282D01*
X89782282Y-141512269D01*
X89782281Y-141512269D01*
X89571571Y-141877227D01*
X89571570Y-141877230D01*
X89462500Y-142284286D01*
X55764500Y-142284286D01*
X55764500Y-125626577D01*
X88028702Y-125626577D01*
X88028702Y-127137422D01*
X88147241Y-128643610D01*
X88147241Y-128643611D01*
X88383591Y-130135864D01*
X88609007Y-131074787D01*
X88736290Y-131604958D01*
X89203167Y-133041857D01*
X89203172Y-133041869D01*
X89203173Y-133041872D01*
X89781339Y-134437692D01*
X90467256Y-135783879D01*
X91256657Y-137072064D01*
X91256660Y-137072069D01*
X91256665Y-137072076D01*
X91256667Y-137072079D01*
X92144720Y-138294379D01*
X92144724Y-138294384D01*
X93125937Y-139443236D01*
X93125944Y-139443244D01*
X94194255Y-140511555D01*
X94194263Y-140511562D01*
X94194265Y-140511564D01*
X95343121Y-141492780D01*
X96565421Y-142380833D01*
X96565425Y-142380835D01*
X96565430Y-142380839D01*
X96565435Y-142380842D01*
X97853620Y-143170243D01*
X97853624Y-143170245D01*
X97853629Y-143170248D01*
X98733866Y-143618751D01*
X99199807Y-143856160D01*
X99869005Y-144133350D01*
X100595643Y-144434333D01*
X102032542Y-144901210D01*
X103337733Y-145214558D01*
X103501635Y-145253908D01*
X103501636Y-145253908D01*
X103501644Y-145253910D01*
X104993889Y-145490259D01*
X106500077Y-145608798D01*
X106500088Y-145608798D01*
X108010912Y-145608798D01*
X108010923Y-145608798D01*
X109517111Y-145490259D01*
X111009356Y-145253910D01*
X112478458Y-144901210D01*
X113915357Y-144434333D01*
X115311197Y-143856158D01*
X116657371Y-143170248D01*
X117945579Y-142380833D01*
X118078465Y-142284286D01*
X121847500Y-142284286D01*
X121847500Y-142705713D01*
X121956570Y-143112769D01*
X121956571Y-143112772D01*
X122142899Y-143435500D01*
X122167281Y-143477730D01*
X122465270Y-143775719D01*
X122598852Y-143852843D01*
X122830227Y-143986428D01*
X122830230Y-143986429D01*
X123237286Y-144095499D01*
X123237287Y-144095500D01*
X123237290Y-144095500D01*
X123658713Y-144095500D01*
X123658713Y-144095499D01*
X124065770Y-143986429D01*
X124430730Y-143775719D01*
X124500045Y-143706404D01*
X146579500Y-143706404D01*
X146579500Y-147265596D01*
X146596935Y-147353249D01*
X146623537Y-147393062D01*
X146663351Y-147452648D01*
X146703165Y-147479250D01*
X146762751Y-147519065D01*
X146850404Y-147536500D01*
X146850407Y-147536500D01*
X150409593Y-147536500D01*
X150409596Y-147536500D01*
X150497249Y-147519065D01*
X150596648Y-147452648D01*
X150663065Y-147353249D01*
X150680500Y-147265596D01*
X150680500Y-143706404D01*
X150663065Y-143618751D01*
X150623250Y-143559165D01*
X150596648Y-143519351D01*
X150534357Y-143477730D01*
X150497249Y-143452935D01*
X150409596Y-143435500D01*
X146850404Y-143435500D01*
X146762751Y-143452935D01*
X146663351Y-143519351D01*
X146596935Y-143618751D01*
X146579500Y-143706404D01*
X124500045Y-143706404D01*
X124728719Y-143477730D01*
X124939429Y-143112770D01*
X125048499Y-142705713D01*
X125048500Y-142705713D01*
X125048500Y-142284287D01*
X125048499Y-142284286D01*
X124939429Y-141877230D01*
X124939428Y-141877227D01*
X124805843Y-141645852D01*
X124728719Y-141512270D01*
X124430730Y-141214281D01*
X124347483Y-141166218D01*
X124065772Y-141003571D01*
X124065769Y-141003570D01*
X123658713Y-140894500D01*
X123658710Y-140894500D01*
X123237290Y-140894500D01*
X123237287Y-140894500D01*
X122830230Y-141003570D01*
X122830227Y-141003571D01*
X122465269Y-141214281D01*
X122465269Y-141214282D01*
X122167282Y-141512269D01*
X122167281Y-141512269D01*
X121956571Y-141877227D01*
X121956570Y-141877230D01*
X121847500Y-142284286D01*
X118078465Y-142284286D01*
X119167879Y-141492780D01*
X120055675Y-140734530D01*
X134517500Y-140734530D01*
X134517500Y-141037469D01*
X134595903Y-141330076D01*
X134595904Y-141330079D01*
X134747371Y-141592424D01*
X134961576Y-141806629D01*
X135057598Y-141862068D01*
X135223920Y-141958095D01*
X135223923Y-141958096D01*
X135516530Y-142036499D01*
X135516531Y-142036500D01*
X135516534Y-142036500D01*
X135819469Y-142036500D01*
X135819469Y-142036499D01*
X136112077Y-141958096D01*
X136374424Y-141806629D01*
X136588629Y-141592424D01*
X136740096Y-141330077D01*
X136818499Y-141037469D01*
X136818500Y-141037469D01*
X136818500Y-140734531D01*
X136818499Y-140734530D01*
X137057500Y-140734530D01*
X137057500Y-141037469D01*
X137135903Y-141330076D01*
X137135904Y-141330079D01*
X137287371Y-141592424D01*
X137501576Y-141806629D01*
X137597598Y-141862068D01*
X137763920Y-141958095D01*
X137763923Y-141958096D01*
X138056530Y-142036499D01*
X138056531Y-142036500D01*
X138056534Y-142036500D01*
X138359469Y-142036500D01*
X138359469Y-142036499D01*
X138652077Y-141958096D01*
X138914424Y-141806629D01*
X139128629Y-141592424D01*
X139280096Y-141330077D01*
X139358499Y-141037469D01*
X139358500Y-141037469D01*
X139358500Y-140734531D01*
X139358499Y-140734530D01*
X139280096Y-140441923D01*
X139280095Y-140441920D01*
X139184068Y-140275598D01*
X139128629Y-140179576D01*
X138914424Y-139965371D01*
X138652079Y-139813904D01*
X138652076Y-139813903D01*
X138359469Y-139735500D01*
X138359466Y-139735500D01*
X138056534Y-139735500D01*
X138056531Y-139735500D01*
X137763923Y-139813903D01*
X137763920Y-139813904D01*
X137501575Y-139965371D01*
X137501575Y-139965372D01*
X137287372Y-140179575D01*
X137287371Y-140179575D01*
X137135904Y-140441920D01*
X137135903Y-140441923D01*
X137057500Y-140734530D01*
X136818499Y-140734530D01*
X136740096Y-140441923D01*
X136740095Y-140441920D01*
X136644068Y-140275598D01*
X136588629Y-140179576D01*
X136374424Y-139965371D01*
X136112079Y-139813904D01*
X136112076Y-139813903D01*
X135819469Y-139735500D01*
X135819466Y-139735500D01*
X135516534Y-139735500D01*
X135516531Y-139735500D01*
X135223923Y-139813903D01*
X135223920Y-139813904D01*
X134961575Y-139965371D01*
X134961575Y-139965372D01*
X134747372Y-140179575D01*
X134747371Y-140179575D01*
X134595904Y-140441920D01*
X134595903Y-140441923D01*
X134517500Y-140734530D01*
X120055675Y-140734530D01*
X120316735Y-140511564D01*
X121385064Y-139443235D01*
X122366280Y-138294379D01*
X123254333Y-137072079D01*
X124043748Y-135783871D01*
X124729658Y-134437697D01*
X125307833Y-133041857D01*
X125774710Y-131604958D01*
X126127410Y-130135856D01*
X126363759Y-128643611D01*
X126482298Y-127137423D01*
X126482298Y-125626577D01*
X126363759Y-124120389D01*
X126127410Y-122628144D01*
X125774710Y-121159042D01*
X125307833Y-119722143D01*
X124729658Y-118326303D01*
X124043748Y-116980129D01*
X124043745Y-116980124D01*
X124043743Y-116980120D01*
X123254342Y-115691935D01*
X123254339Y-115691930D01*
X123254335Y-115691925D01*
X123254333Y-115691921D01*
X122366280Y-114469621D01*
X121385064Y-113320765D01*
X121385062Y-113320763D01*
X121385055Y-113320755D01*
X120316744Y-112252444D01*
X120316736Y-112252437D01*
X119167884Y-111271224D01*
X119167882Y-111271222D01*
X119167879Y-111271220D01*
X117945579Y-110383167D01*
X117945576Y-110383165D01*
X117945569Y-110383160D01*
X117945564Y-110383157D01*
X117478365Y-110096857D01*
X117415423Y-110058286D01*
X121847500Y-110058286D01*
X121847500Y-110479713D01*
X121956570Y-110886769D01*
X121956571Y-110886772D01*
X122148806Y-111219730D01*
X122167281Y-111251730D01*
X122465270Y-111549719D01*
X122598852Y-111626843D01*
X122830227Y-111760428D01*
X122830230Y-111760429D01*
X123237286Y-111869499D01*
X123237287Y-111869500D01*
X123237290Y-111869500D01*
X123658713Y-111869500D01*
X123658713Y-111869499D01*
X124065770Y-111760429D01*
X124430730Y-111549719D01*
X124598687Y-111381762D01*
X138277500Y-111381762D01*
X138277500Y-111880237D01*
X138374743Y-112369108D01*
X138374748Y-112369127D01*
X138565498Y-112829637D01*
X138565500Y-112829641D01*
X138842432Y-113244100D01*
X139194900Y-113596568D01*
X139609359Y-113873500D01*
X139810204Y-113956692D01*
X140069872Y-114064251D01*
X140069874Y-114064251D01*
X140069880Y-114064254D01*
X140310843Y-114112184D01*
X140558762Y-114161499D01*
X140558765Y-114161499D01*
X140558768Y-114161500D01*
X140558769Y-114161500D01*
X141057231Y-114161500D01*
X141057232Y-114161500D01*
X141546120Y-114064254D01*
X142006641Y-113873500D01*
X142421100Y-113596568D01*
X142773568Y-113244100D01*
X143050500Y-112829641D01*
X143241254Y-112369120D01*
X143338500Y-111880232D01*
X143338500Y-111381768D01*
X143316511Y-111271224D01*
X143241256Y-110892891D01*
X143241254Y-110892880D01*
X143225468Y-110854770D01*
X143133692Y-110633204D01*
X143050500Y-110432359D01*
X142773568Y-110017900D01*
X142421100Y-109665432D01*
X142399845Y-109651230D01*
X142284191Y-109573952D01*
X142006641Y-109388500D01*
X142006638Y-109388498D01*
X142006637Y-109388498D01*
X141546127Y-109197748D01*
X141546121Y-109197746D01*
X141546120Y-109197746D01*
X141546117Y-109197745D01*
X141546108Y-109197743D01*
X141057237Y-109100500D01*
X141057232Y-109100500D01*
X140558768Y-109100500D01*
X140558762Y-109100500D01*
X140069891Y-109197743D01*
X140069872Y-109197748D01*
X139609362Y-109388498D01*
X139194900Y-109665431D01*
X138842431Y-110017900D01*
X138565498Y-110432362D01*
X138374748Y-110892872D01*
X138374743Y-110892891D01*
X138277500Y-111381762D01*
X124598687Y-111381762D01*
X124728719Y-111251730D01*
X124935895Y-110892891D01*
X124939428Y-110886772D01*
X124939429Y-110886769D01*
X124948004Y-110854769D01*
X125048499Y-110479713D01*
X125048500Y-110479713D01*
X125048500Y-110058287D01*
X125048499Y-110058286D01*
X124939429Y-109651230D01*
X124939428Y-109651227D01*
X124805843Y-109419852D01*
X124728719Y-109286270D01*
X124430730Y-108988281D01*
X124375306Y-108956282D01*
X124065772Y-108777571D01*
X124065769Y-108777570D01*
X123658713Y-108668500D01*
X123658710Y-108668500D01*
X123237290Y-108668500D01*
X123237287Y-108668500D01*
X122830230Y-108777570D01*
X122830227Y-108777571D01*
X122465269Y-108988281D01*
X122465269Y-108988282D01*
X122167282Y-109286269D01*
X122167281Y-109286269D01*
X121956571Y-109651227D01*
X121956570Y-109651230D01*
X121847500Y-110058286D01*
X117415423Y-110058286D01*
X116657379Y-109593756D01*
X115311192Y-108907839D01*
X113915372Y-108329673D01*
X113915369Y-108329672D01*
X113915357Y-108329667D01*
X112478458Y-107862790D01*
X111948287Y-107735507D01*
X111009364Y-107510091D01*
X110072622Y-107361725D01*
X109517111Y-107273741D01*
X108010923Y-107155202D01*
X106500077Y-107155202D01*
X104993889Y-107273741D01*
X104993888Y-107273741D01*
X103501635Y-107510091D01*
X102317862Y-107794290D01*
X102032542Y-107862790D01*
X100595643Y-108329667D01*
X100595634Y-108329670D01*
X100595627Y-108329673D01*
X99199807Y-108907839D01*
X97853620Y-109593756D01*
X96565435Y-110383157D01*
X96565430Y-110383160D01*
X95343129Y-111271214D01*
X95343115Y-111271224D01*
X94194263Y-112252437D01*
X94194255Y-112252444D01*
X93125944Y-113320755D01*
X93125937Y-113320763D01*
X92144724Y-114469615D01*
X92144714Y-114469629D01*
X91256660Y-115691930D01*
X91256657Y-115691935D01*
X90467256Y-116980120D01*
X89781339Y-118326307D01*
X89203173Y-119722127D01*
X89203170Y-119722134D01*
X89203167Y-119722143D01*
X88736291Y-121159039D01*
X88383591Y-122628135D01*
X88147241Y-124120388D01*
X88147241Y-124120389D01*
X88028702Y-125626577D01*
X55764500Y-125626577D01*
X55764500Y-110026286D01*
X89462500Y-110026286D01*
X89462500Y-110447713D01*
X89571570Y-110854769D01*
X89571571Y-110854772D01*
X89782281Y-111219730D01*
X90080270Y-111517719D01*
X90135694Y-111549718D01*
X90445227Y-111728428D01*
X90445230Y-111728429D01*
X90852286Y-111837499D01*
X90852287Y-111837500D01*
X90852290Y-111837500D01*
X91273713Y-111837500D01*
X91273713Y-111837499D01*
X91680770Y-111728429D01*
X92045730Y-111517719D01*
X92343719Y-111219730D01*
X92554429Y-110854770D01*
X92663499Y-110447713D01*
X92663500Y-110447713D01*
X92663500Y-110026287D01*
X92663499Y-110026286D01*
X92554429Y-109619230D01*
X92554428Y-109619227D01*
X92362194Y-109286270D01*
X92343719Y-109254270D01*
X92045730Y-108956281D01*
X91680772Y-108745571D01*
X91680769Y-108745570D01*
X91273713Y-108636500D01*
X91273710Y-108636500D01*
X90852290Y-108636500D01*
X90852287Y-108636500D01*
X90445230Y-108745570D01*
X90445227Y-108745571D01*
X90080269Y-108956281D01*
X90080269Y-108956282D01*
X89782282Y-109254269D01*
X89782281Y-109254269D01*
X89571571Y-109619227D01*
X89571570Y-109619230D01*
X89462500Y-110026286D01*
X55764500Y-110026286D01*
X55764500Y-107072947D01*
X132607500Y-107072947D01*
X132607500Y-107389052D01*
X132689311Y-107694374D01*
X132689312Y-107694378D01*
X132847361Y-107968124D01*
X133070876Y-108191639D01*
X133171072Y-108249487D01*
X133344621Y-108349687D01*
X133344623Y-108349687D01*
X133344624Y-108349688D01*
X133585425Y-108414210D01*
X133649947Y-108431499D01*
X133649948Y-108431500D01*
X133649951Y-108431500D01*
X133966052Y-108431500D01*
X133966052Y-108431499D01*
X134271376Y-108349688D01*
X134545124Y-108191639D01*
X134768639Y-107968124D01*
X134926688Y-107694376D01*
X135008499Y-107389052D01*
X135008500Y-107389052D01*
X135008500Y-107072948D01*
X135008499Y-107072947D01*
X134953991Y-106869518D01*
X134951885Y-106861660D01*
X157607500Y-106861660D01*
X157607500Y-106861662D01*
X157607500Y-107140338D01*
X157607500Y-107140340D01*
X157607501Y-107140341D01*
X157714144Y-107397802D01*
X157714146Y-107397805D01*
X157911195Y-107594854D01*
X157911197Y-107594855D01*
X157911198Y-107594856D01*
X158168662Y-107701500D01*
X158168664Y-107701500D01*
X158447336Y-107701500D01*
X158447338Y-107701500D01*
X158704802Y-107594856D01*
X158704803Y-107594854D01*
X158704805Y-107594854D01*
X158901854Y-107397805D01*
X158901854Y-107397803D01*
X158901856Y-107397802D01*
X159008500Y-107140338D01*
X159008500Y-106861662D01*
X158901856Y-106604198D01*
X158901855Y-106604197D01*
X158901854Y-106604195D01*
X158704805Y-106407146D01*
X158704802Y-106407144D01*
X158447341Y-106300501D01*
X158447339Y-106300500D01*
X158447338Y-106300500D01*
X158168662Y-106300500D01*
X158168660Y-106300500D01*
X158168658Y-106300501D01*
X157911197Y-106407144D01*
X157714144Y-106604197D01*
X157607501Y-106861658D01*
X157607500Y-106861660D01*
X134951885Y-106861660D01*
X134926688Y-106767625D01*
X134926687Y-106767621D01*
X134768638Y-106493875D01*
X134545124Y-106270361D01*
X134271378Y-106112312D01*
X134271374Y-106112311D01*
X133966052Y-106030500D01*
X133966049Y-106030500D01*
X133649951Y-106030500D01*
X133649948Y-106030500D01*
X133344625Y-106112311D01*
X133344621Y-106112312D01*
X133070875Y-106270361D01*
X133070875Y-106270362D01*
X132847362Y-106493875D01*
X132847361Y-106493875D01*
X132689312Y-106767621D01*
X132689311Y-106767625D01*
X132607500Y-107072947D01*
X55764500Y-107072947D01*
X55764500Y-104572947D01*
X132607500Y-104572947D01*
X132607500Y-104889052D01*
X132689311Y-105194374D01*
X132689312Y-105194378D01*
X132785801Y-105361500D01*
X132847361Y-105468124D01*
X133070876Y-105691639D01*
X133171072Y-105749487D01*
X133344621Y-105849687D01*
X133344623Y-105849687D01*
X133344624Y-105849688D01*
X133585425Y-105914210D01*
X133649947Y-105931499D01*
X133649948Y-105931500D01*
X133649951Y-105931500D01*
X133966052Y-105931500D01*
X133966052Y-105931499D01*
X134271376Y-105849688D01*
X134545124Y-105691639D01*
X134768639Y-105468124D01*
X134926688Y-105194376D01*
X135008499Y-104889052D01*
X135008500Y-104889052D01*
X135008500Y-104572948D01*
X135008499Y-104572947D01*
X134991210Y-104508425D01*
X134926688Y-104267624D01*
X134926687Y-104267623D01*
X134926687Y-104267621D01*
X134789288Y-104029641D01*
X134768639Y-103993876D01*
X134545124Y-103770361D01*
X134271378Y-103612312D01*
X134271374Y-103612311D01*
X133966052Y-103530500D01*
X133966049Y-103530500D01*
X133649951Y-103530500D01*
X133649948Y-103530500D01*
X133344625Y-103612311D01*
X133344621Y-103612312D01*
X133070875Y-103770361D01*
X133070875Y-103770362D01*
X132847362Y-103993875D01*
X132847361Y-103993875D01*
X132689312Y-104267621D01*
X132689311Y-104267625D01*
X132607500Y-104572947D01*
X55764500Y-104572947D01*
X55764500Y-102581762D01*
X138277500Y-102581762D01*
X138277500Y-103080237D01*
X138374743Y-103569108D01*
X138374748Y-103569127D01*
X138565498Y-104029637D01*
X138565500Y-104029641D01*
X138842432Y-104444100D01*
X139194900Y-104796568D01*
X139609359Y-105073500D01*
X139810204Y-105156692D01*
X140069872Y-105264251D01*
X140069874Y-105264251D01*
X140069880Y-105264254D01*
X140310843Y-105312184D01*
X140558762Y-105361499D01*
X140558765Y-105361499D01*
X140558768Y-105361500D01*
X140558769Y-105361500D01*
X141057231Y-105361500D01*
X141057232Y-105361500D01*
X141546120Y-105264254D01*
X142006641Y-105073500D01*
X142421100Y-104796568D01*
X142773568Y-104444100D01*
X143050500Y-104029641D01*
X143241254Y-103569120D01*
X143338500Y-103080232D01*
X143338500Y-102581768D01*
X143241254Y-102092880D01*
X143050500Y-101632359D01*
X142773568Y-101217900D01*
X142421100Y-100865432D01*
X142006641Y-100588500D01*
X142006638Y-100588498D01*
X142006637Y-100588498D01*
X141546127Y-100397748D01*
X141546121Y-100397746D01*
X141546120Y-100397746D01*
X141546117Y-100397745D01*
X141546108Y-100397743D01*
X141057237Y-100300500D01*
X141057232Y-100300500D01*
X140558768Y-100300500D01*
X140558762Y-100300500D01*
X140069891Y-100397743D01*
X140069872Y-100397748D01*
X139609362Y-100588498D01*
X139194900Y-100865431D01*
X138842431Y-101217900D01*
X138565498Y-101632362D01*
X138374748Y-102092872D01*
X138374743Y-102092891D01*
X138277500Y-102581762D01*
X55764500Y-102581762D01*
X55764500Y-99460091D01*
X65987100Y-99460091D01*
X65987100Y-101033908D01*
X66052582Y-101278293D01*
X66052583Y-101278296D01*
X66179088Y-101497407D01*
X66357993Y-101676312D01*
X66438192Y-101722615D01*
X66577103Y-101802816D01*
X66577106Y-101802817D01*
X66821491Y-101868299D01*
X66821492Y-101868300D01*
X66821495Y-101868300D01*
X67074508Y-101868300D01*
X67074508Y-101868299D01*
X67318894Y-101802817D01*
X67538007Y-101676312D01*
X67716912Y-101497407D01*
X67843417Y-101278294D01*
X67908899Y-101033908D01*
X67908900Y-101033908D01*
X67908900Y-99460092D01*
X67908899Y-99460091D01*
X73607100Y-99460091D01*
X73607100Y-101033908D01*
X73672582Y-101278293D01*
X73672583Y-101278296D01*
X73799088Y-101497407D01*
X73977993Y-101676312D01*
X74058192Y-101722615D01*
X74197103Y-101802816D01*
X74197106Y-101802817D01*
X74441491Y-101868299D01*
X74441492Y-101868300D01*
X74441495Y-101868300D01*
X74694508Y-101868300D01*
X74694508Y-101868299D01*
X74938894Y-101802817D01*
X75158007Y-101676312D01*
X75336912Y-101497407D01*
X75463417Y-101278294D01*
X75528899Y-101033908D01*
X75528900Y-101033908D01*
X75528900Y-99460092D01*
X75528899Y-99460091D01*
X78687100Y-99460091D01*
X78687100Y-101033908D01*
X78752582Y-101278293D01*
X78752583Y-101278296D01*
X78879088Y-101497407D01*
X79057993Y-101676312D01*
X79138192Y-101722615D01*
X79277103Y-101802816D01*
X79277106Y-101802817D01*
X79521491Y-101868299D01*
X79521492Y-101868300D01*
X79521495Y-101868300D01*
X79774508Y-101868300D01*
X79774508Y-101868299D01*
X80018894Y-101802817D01*
X80238007Y-101676312D01*
X80416912Y-101497407D01*
X80543417Y-101278294D01*
X80608899Y-101033908D01*
X80608900Y-101033908D01*
X80608900Y-99460092D01*
X80608899Y-99460091D01*
X80543417Y-99215706D01*
X80543416Y-99215703D01*
X80416911Y-98996592D01*
X80238007Y-98817688D01*
X80018896Y-98691183D01*
X80018893Y-98691182D01*
X79774508Y-98625700D01*
X79774505Y-98625700D01*
X79521495Y-98625700D01*
X79521492Y-98625700D01*
X79277106Y-98691182D01*
X79277103Y-98691183D01*
X79057992Y-98817688D01*
X79057992Y-98817689D01*
X78879089Y-98996592D01*
X78879088Y-98996592D01*
X78752583Y-99215703D01*
X78752582Y-99215706D01*
X78687100Y-99460091D01*
X75528899Y-99460091D01*
X75463417Y-99215706D01*
X75463416Y-99215703D01*
X75336911Y-98996592D01*
X75158007Y-98817688D01*
X74938896Y-98691183D01*
X74938893Y-98691182D01*
X74694508Y-98625700D01*
X74694505Y-98625700D01*
X74441495Y-98625700D01*
X74441492Y-98625700D01*
X74197106Y-98691182D01*
X74197103Y-98691183D01*
X73977992Y-98817688D01*
X73977992Y-98817689D01*
X73799089Y-98996592D01*
X73799088Y-98996592D01*
X73672583Y-99215703D01*
X73672582Y-99215706D01*
X73607100Y-99460091D01*
X67908899Y-99460091D01*
X67843417Y-99215706D01*
X67843416Y-99215703D01*
X67716911Y-98996592D01*
X67538007Y-98817688D01*
X67318896Y-98691183D01*
X67318893Y-98691182D01*
X67074508Y-98625700D01*
X67074505Y-98625700D01*
X66821495Y-98625700D01*
X66821492Y-98625700D01*
X66577106Y-98691182D01*
X66577103Y-98691183D01*
X66357992Y-98817688D01*
X66357992Y-98817689D01*
X66179089Y-98996592D01*
X66179088Y-98996592D01*
X66052583Y-99215703D01*
X66052582Y-99215706D01*
X65987100Y-99460091D01*
X55764500Y-99460091D01*
X55764500Y-98546660D01*
X103107500Y-98546660D01*
X103107500Y-98546662D01*
X103107500Y-98825338D01*
X103107500Y-98825340D01*
X103107501Y-98825341D01*
X103214144Y-99082802D01*
X103214146Y-99082805D01*
X103411195Y-99279854D01*
X103411197Y-99279855D01*
X103411198Y-99279856D01*
X103668662Y-99386500D01*
X103668664Y-99386500D01*
X103947336Y-99386500D01*
X103947338Y-99386500D01*
X104204802Y-99279856D01*
X104204803Y-99279854D01*
X104204805Y-99279854D01*
X104401854Y-99082805D01*
X104401854Y-99082803D01*
X104401856Y-99082802D01*
X104508500Y-98825338D01*
X104508500Y-98546662D01*
X104401856Y-98289198D01*
X104401855Y-98289197D01*
X104401854Y-98289195D01*
X104204805Y-98092146D01*
X104204802Y-98092144D01*
X103947341Y-97985501D01*
X103947339Y-97985500D01*
X103947338Y-97985500D01*
X103668662Y-97985500D01*
X103668660Y-97985500D01*
X103668658Y-97985501D01*
X103411197Y-98092144D01*
X103214144Y-98289197D01*
X103107501Y-98546658D01*
X103107500Y-98546660D01*
X55764500Y-98546660D01*
X55764500Y-93946660D01*
X74507500Y-93946660D01*
X74507500Y-93946662D01*
X74507500Y-94225338D01*
X74507500Y-94225340D01*
X74507501Y-94225341D01*
X74614144Y-94482802D01*
X74614146Y-94482805D01*
X74811195Y-94679854D01*
X74811197Y-94679855D01*
X74811198Y-94679856D01*
X75068662Y-94786500D01*
X75068664Y-94786500D01*
X75347336Y-94786500D01*
X75347338Y-94786500D01*
X75604802Y-94679856D01*
X75604803Y-94679854D01*
X75604805Y-94679854D01*
X75801854Y-94482805D01*
X75801854Y-94482803D01*
X75801856Y-94482802D01*
X75908500Y-94225338D01*
X75908500Y-93946662D01*
X75867078Y-93846660D01*
X80007500Y-93846660D01*
X80007500Y-93846662D01*
X80007500Y-94125338D01*
X80007500Y-94125340D01*
X80007501Y-94125341D01*
X80114144Y-94382802D01*
X80114146Y-94382805D01*
X80311195Y-94579854D01*
X80311197Y-94579855D01*
X80311198Y-94579856D01*
X80568662Y-94686500D01*
X80568664Y-94686500D01*
X80847336Y-94686500D01*
X80847338Y-94686500D01*
X81104802Y-94579856D01*
X81104803Y-94579854D01*
X81104805Y-94579854D01*
X81301854Y-94382805D01*
X81301854Y-94382803D01*
X81301856Y-94382802D01*
X81408500Y-94125338D01*
X81408500Y-93846662D01*
X81301856Y-93589198D01*
X81301855Y-93589197D01*
X81301854Y-93589195D01*
X81104805Y-93392146D01*
X81104802Y-93392144D01*
X80847341Y-93285501D01*
X80847339Y-93285500D01*
X80847338Y-93285500D01*
X80568662Y-93285500D01*
X80568660Y-93285500D01*
X80568658Y-93285501D01*
X80311197Y-93392144D01*
X80114144Y-93589197D01*
X80007501Y-93846658D01*
X80007500Y-93846660D01*
X75867078Y-93846660D01*
X75801856Y-93689198D01*
X75801855Y-93689197D01*
X75801854Y-93689195D01*
X75604805Y-93492146D01*
X75604802Y-93492144D01*
X75347341Y-93385501D01*
X75347339Y-93385500D01*
X75347338Y-93385500D01*
X75068662Y-93385500D01*
X75068660Y-93385500D01*
X75068658Y-93385501D01*
X74811197Y-93492144D01*
X74614144Y-93689197D01*
X74507501Y-93946658D01*
X74507500Y-93946660D01*
X55764500Y-93946660D01*
X55764500Y-92720404D01*
X89912500Y-92720404D01*
X89912500Y-94479596D01*
X89929935Y-94567249D01*
X89938359Y-94579856D01*
X89996351Y-94666648D01*
X90026059Y-94686498D01*
X90095751Y-94733065D01*
X90183404Y-94750500D01*
X90183407Y-94750500D01*
X91942593Y-94750500D01*
X91942596Y-94750500D01*
X92030249Y-94733065D01*
X92129648Y-94666648D01*
X92196065Y-94567249D01*
X92213500Y-94479596D01*
X92213500Y-93448530D01*
X92452500Y-93448530D01*
X92452500Y-93751469D01*
X92530903Y-94044076D01*
X92530904Y-94044079D01*
X92635557Y-94225341D01*
X92682371Y-94306424D01*
X92896576Y-94520629D01*
X92977322Y-94567248D01*
X93158920Y-94672095D01*
X93158923Y-94672096D01*
X93451530Y-94750499D01*
X93451531Y-94750500D01*
X93451534Y-94750500D01*
X93754469Y-94750500D01*
X93754469Y-94750499D01*
X94047077Y-94672096D01*
X94309424Y-94520629D01*
X94523629Y-94306424D01*
X94675096Y-94044077D01*
X94753499Y-93751469D01*
X94753500Y-93751469D01*
X94753500Y-93448531D01*
X94753499Y-93448530D01*
X94992500Y-93448530D01*
X94992500Y-93751469D01*
X95070903Y-94044076D01*
X95070904Y-94044079D01*
X95175557Y-94225341D01*
X95222371Y-94306424D01*
X95436576Y-94520629D01*
X95517322Y-94567248D01*
X95698920Y-94672095D01*
X95698923Y-94672096D01*
X95991530Y-94750499D01*
X95991531Y-94750500D01*
X95991534Y-94750500D01*
X96294469Y-94750500D01*
X96294469Y-94750499D01*
X96587077Y-94672096D01*
X96849424Y-94520629D01*
X97063629Y-94306424D01*
X97215096Y-94044077D01*
X97293499Y-93751469D01*
X97293500Y-93751469D01*
X97293500Y-93448531D01*
X97293499Y-93448530D01*
X97532500Y-93448530D01*
X97532500Y-93751469D01*
X97610903Y-94044076D01*
X97610904Y-94044079D01*
X97715557Y-94225341D01*
X97762371Y-94306424D01*
X97976576Y-94520629D01*
X98057322Y-94567248D01*
X98238920Y-94672095D01*
X98238923Y-94672096D01*
X98531530Y-94750499D01*
X98531531Y-94750500D01*
X98531534Y-94750500D01*
X98834469Y-94750500D01*
X98834469Y-94750499D01*
X99127077Y-94672096D01*
X99389424Y-94520629D01*
X99603629Y-94306424D01*
X99755096Y-94044077D01*
X99833499Y-93751469D01*
X99833500Y-93751469D01*
X99833500Y-93448531D01*
X99833499Y-93448530D01*
X100072500Y-93448530D01*
X100072500Y-93751469D01*
X100150903Y-94044076D01*
X100150904Y-94044079D01*
X100255557Y-94225341D01*
X100302371Y-94306424D01*
X100516576Y-94520629D01*
X100597322Y-94567248D01*
X100778920Y-94672095D01*
X100778923Y-94672096D01*
X101071530Y-94750499D01*
X101071531Y-94750500D01*
X101071534Y-94750500D01*
X101374469Y-94750500D01*
X101374469Y-94750499D01*
X101667077Y-94672096D01*
X101929424Y-94520629D01*
X102143629Y-94306424D01*
X102295096Y-94044077D01*
X102373499Y-93751469D01*
X102373500Y-93751469D01*
X102373500Y-93448531D01*
X102373499Y-93448530D01*
X102612500Y-93448530D01*
X102612500Y-93751469D01*
X102690903Y-94044076D01*
X102690904Y-94044079D01*
X102795557Y-94225341D01*
X102842371Y-94306424D01*
X103056576Y-94520629D01*
X103137322Y-94567248D01*
X103318920Y-94672095D01*
X103318923Y-94672096D01*
X103611530Y-94750499D01*
X103611531Y-94750500D01*
X103611534Y-94750500D01*
X103914469Y-94750500D01*
X103914469Y-94750499D01*
X104207077Y-94672096D01*
X104469424Y-94520629D01*
X104683629Y-94306424D01*
X104835096Y-94044077D01*
X104913499Y-93751469D01*
X104913500Y-93751469D01*
X104913500Y-93448531D01*
X104913499Y-93448530D01*
X105152500Y-93448530D01*
X105152500Y-93751469D01*
X105230903Y-94044076D01*
X105230904Y-94044079D01*
X105335557Y-94225341D01*
X105382371Y-94306424D01*
X105596576Y-94520629D01*
X105677322Y-94567248D01*
X105858920Y-94672095D01*
X105858923Y-94672096D01*
X106151530Y-94750499D01*
X106151531Y-94750500D01*
X106151534Y-94750500D01*
X106454469Y-94750500D01*
X106454469Y-94750499D01*
X106747077Y-94672096D01*
X107009424Y-94520629D01*
X107223629Y-94306424D01*
X107375096Y-94044077D01*
X107453499Y-93751469D01*
X107453500Y-93751469D01*
X107453500Y-93448531D01*
X107453499Y-93448530D01*
X107692500Y-93448530D01*
X107692500Y-93751469D01*
X107770903Y-94044076D01*
X107770904Y-94044079D01*
X107875557Y-94225341D01*
X107922371Y-94306424D01*
X108136576Y-94520629D01*
X108217322Y-94567248D01*
X108398920Y-94672095D01*
X108398923Y-94672096D01*
X108691530Y-94750499D01*
X108691531Y-94750500D01*
X108691534Y-94750500D01*
X108994469Y-94750500D01*
X108994469Y-94750499D01*
X109287077Y-94672096D01*
X109549424Y-94520629D01*
X109763629Y-94306424D01*
X109915096Y-94044077D01*
X109993499Y-93751469D01*
X109993500Y-93751469D01*
X109993500Y-93448531D01*
X109993499Y-93448530D01*
X110232500Y-93448530D01*
X110232500Y-93751469D01*
X110310903Y-94044076D01*
X110310904Y-94044079D01*
X110415557Y-94225341D01*
X110462371Y-94306424D01*
X110676576Y-94520629D01*
X110757322Y-94567248D01*
X110938920Y-94672095D01*
X110938923Y-94672096D01*
X111231530Y-94750499D01*
X111231531Y-94750500D01*
X111231534Y-94750500D01*
X111534469Y-94750500D01*
X111534469Y-94750499D01*
X111827077Y-94672096D01*
X112089424Y-94520629D01*
X112303629Y-94306424D01*
X112455096Y-94044077D01*
X112533499Y-93751469D01*
X112533500Y-93751469D01*
X112533500Y-93448531D01*
X112533499Y-93448530D01*
X112772500Y-93448530D01*
X112772500Y-93751469D01*
X112850903Y-94044076D01*
X112850904Y-94044079D01*
X112955557Y-94225341D01*
X113002371Y-94306424D01*
X113216576Y-94520629D01*
X113297322Y-94567248D01*
X113478920Y-94672095D01*
X113478923Y-94672096D01*
X113771530Y-94750499D01*
X113771531Y-94750500D01*
X113771534Y-94750500D01*
X114074469Y-94750500D01*
X114074469Y-94750499D01*
X114367077Y-94672096D01*
X114629424Y-94520629D01*
X114843629Y-94306424D01*
X114995096Y-94044077D01*
X115073499Y-93751469D01*
X115073500Y-93751469D01*
X115073500Y-93448531D01*
X115073499Y-93448530D01*
X115312500Y-93448530D01*
X115312500Y-93751469D01*
X115390903Y-94044076D01*
X115390904Y-94044079D01*
X115495557Y-94225341D01*
X115542371Y-94306424D01*
X115756576Y-94520629D01*
X115837322Y-94567248D01*
X116018920Y-94672095D01*
X116018923Y-94672096D01*
X116311530Y-94750499D01*
X116311531Y-94750500D01*
X116311534Y-94750500D01*
X116614469Y-94750500D01*
X116614469Y-94750499D01*
X116907077Y-94672096D01*
X117169424Y-94520629D01*
X117383629Y-94306424D01*
X117535096Y-94044077D01*
X117613499Y-93751469D01*
X117613500Y-93751469D01*
X117613500Y-93448531D01*
X117613499Y-93448530D01*
X117852500Y-93448530D01*
X117852500Y-93751469D01*
X117930903Y-94044076D01*
X117930904Y-94044079D01*
X118035557Y-94225341D01*
X118082371Y-94306424D01*
X118296576Y-94520629D01*
X118377322Y-94567248D01*
X118558920Y-94672095D01*
X118558923Y-94672096D01*
X118851530Y-94750499D01*
X118851531Y-94750500D01*
X118851534Y-94750500D01*
X119154469Y-94750500D01*
X119154469Y-94750499D01*
X119447077Y-94672096D01*
X119709424Y-94520629D01*
X119923629Y-94306424D01*
X120075096Y-94044077D01*
X120153499Y-93751469D01*
X120153500Y-93751469D01*
X120153500Y-93448531D01*
X120153499Y-93448530D01*
X120392500Y-93448530D01*
X120392500Y-93751469D01*
X120470903Y-94044076D01*
X120470904Y-94044079D01*
X120575557Y-94225341D01*
X120622371Y-94306424D01*
X120836576Y-94520629D01*
X120917322Y-94567248D01*
X121098920Y-94672095D01*
X121098923Y-94672096D01*
X121391530Y-94750499D01*
X121391531Y-94750500D01*
X121391534Y-94750500D01*
X121694469Y-94750500D01*
X121694469Y-94750499D01*
X121987077Y-94672096D01*
X122249424Y-94520629D01*
X122463629Y-94306424D01*
X122615096Y-94044077D01*
X122693499Y-93751469D01*
X122693500Y-93751469D01*
X122693500Y-93448531D01*
X122693499Y-93448530D01*
X122932500Y-93448530D01*
X122932500Y-93751469D01*
X123010903Y-94044076D01*
X123010904Y-94044079D01*
X123115557Y-94225341D01*
X123162371Y-94306424D01*
X123376576Y-94520629D01*
X123457322Y-94567248D01*
X123638920Y-94672095D01*
X123638923Y-94672096D01*
X123931530Y-94750499D01*
X123931531Y-94750500D01*
X123931534Y-94750500D01*
X124234469Y-94750500D01*
X124234469Y-94750499D01*
X124527077Y-94672096D01*
X124789424Y-94520629D01*
X125003629Y-94306424D01*
X125155096Y-94044077D01*
X125233499Y-93751469D01*
X125233500Y-93751469D01*
X125233500Y-93448531D01*
X125233499Y-93448530D01*
X125472500Y-93448530D01*
X125472500Y-93751469D01*
X125550903Y-94044076D01*
X125550904Y-94044079D01*
X125655557Y-94225341D01*
X125702371Y-94306424D01*
X125916576Y-94520629D01*
X125997322Y-94567248D01*
X126178920Y-94672095D01*
X126178923Y-94672096D01*
X126471530Y-94750499D01*
X126471531Y-94750500D01*
X126471534Y-94750500D01*
X126774469Y-94750500D01*
X126774469Y-94750499D01*
X127067077Y-94672096D01*
X127329424Y-94520629D01*
X127543629Y-94306424D01*
X127695096Y-94044077D01*
X127773499Y-93751469D01*
X127773500Y-93751469D01*
X127773500Y-93448531D01*
X127773499Y-93448530D01*
X128012500Y-93448530D01*
X128012500Y-93751469D01*
X128090903Y-94044076D01*
X128090904Y-94044079D01*
X128195557Y-94225341D01*
X128242371Y-94306424D01*
X128456576Y-94520629D01*
X128537322Y-94567248D01*
X128718920Y-94672095D01*
X128718923Y-94672096D01*
X129011530Y-94750499D01*
X129011531Y-94750500D01*
X129011534Y-94750500D01*
X129314469Y-94750500D01*
X129314469Y-94750499D01*
X129607077Y-94672096D01*
X129869424Y-94520629D01*
X130083629Y-94306424D01*
X130235096Y-94044077D01*
X130313499Y-93751469D01*
X130313500Y-93751469D01*
X130313500Y-93448531D01*
X130313499Y-93448530D01*
X130552500Y-93448530D01*
X130552500Y-93751469D01*
X130630903Y-94044076D01*
X130630904Y-94044079D01*
X130735557Y-94225341D01*
X130782371Y-94306424D01*
X130996576Y-94520629D01*
X131077322Y-94567248D01*
X131258920Y-94672095D01*
X131258923Y-94672096D01*
X131551530Y-94750499D01*
X131551531Y-94750500D01*
X131551534Y-94750500D01*
X131854469Y-94750500D01*
X131854469Y-94750499D01*
X132147077Y-94672096D01*
X132409424Y-94520629D01*
X132623629Y-94306424D01*
X132775096Y-94044077D01*
X132853499Y-93751469D01*
X132853500Y-93751469D01*
X132853500Y-93448531D01*
X132853499Y-93448530D01*
X133092500Y-93448530D01*
X133092500Y-93751469D01*
X133170903Y-94044076D01*
X133170904Y-94044079D01*
X133275557Y-94225341D01*
X133322371Y-94306424D01*
X133536576Y-94520629D01*
X133617322Y-94567248D01*
X133798920Y-94672095D01*
X133798923Y-94672096D01*
X134091530Y-94750499D01*
X134091531Y-94750500D01*
X134091534Y-94750500D01*
X134394469Y-94750500D01*
X134394469Y-94750499D01*
X134687077Y-94672096D01*
X134949424Y-94520629D01*
X135163629Y-94306424D01*
X135315096Y-94044077D01*
X135393499Y-93751469D01*
X135393500Y-93751469D01*
X135393500Y-93448531D01*
X135393499Y-93448530D01*
X135632500Y-93448530D01*
X135632500Y-93751469D01*
X135710903Y-94044076D01*
X135710904Y-94044079D01*
X135815557Y-94225341D01*
X135862371Y-94306424D01*
X136076576Y-94520629D01*
X136157322Y-94567248D01*
X136338920Y-94672095D01*
X136338923Y-94672096D01*
X136631530Y-94750499D01*
X136631531Y-94750500D01*
X136631534Y-94750500D01*
X136934469Y-94750500D01*
X136934469Y-94750499D01*
X137227077Y-94672096D01*
X137489424Y-94520629D01*
X137703629Y-94306424D01*
X137855096Y-94044077D01*
X137933499Y-93751469D01*
X137933500Y-93751469D01*
X137933500Y-93448531D01*
X137933499Y-93448530D01*
X138172500Y-93448530D01*
X138172500Y-93751469D01*
X138250903Y-94044076D01*
X138250904Y-94044079D01*
X138355557Y-94225341D01*
X138402371Y-94306424D01*
X138616576Y-94520629D01*
X138697322Y-94567248D01*
X138878920Y-94672095D01*
X138878923Y-94672096D01*
X139171530Y-94750499D01*
X139171531Y-94750500D01*
X139171534Y-94750500D01*
X139474469Y-94750500D01*
X139474469Y-94750499D01*
X139767077Y-94672096D01*
X140029424Y-94520629D01*
X140243629Y-94306424D01*
X140395096Y-94044077D01*
X140473499Y-93751469D01*
X140473500Y-93751469D01*
X140473500Y-93448531D01*
X140473499Y-93448530D01*
X140395096Y-93155923D01*
X140395095Y-93155920D01*
X140243628Y-92893575D01*
X140029424Y-92679371D01*
X139767079Y-92527904D01*
X139767076Y-92527903D01*
X139474469Y-92449500D01*
X139474466Y-92449500D01*
X139171534Y-92449500D01*
X139171531Y-92449500D01*
X138878923Y-92527903D01*
X138878920Y-92527904D01*
X138616575Y-92679371D01*
X138616575Y-92679372D01*
X138402372Y-92893575D01*
X138402371Y-92893575D01*
X138250904Y-93155920D01*
X138250903Y-93155923D01*
X138172500Y-93448530D01*
X137933499Y-93448530D01*
X137855096Y-93155923D01*
X137855095Y-93155920D01*
X137703628Y-92893575D01*
X137489424Y-92679371D01*
X137227079Y-92527904D01*
X137227076Y-92527903D01*
X136934469Y-92449500D01*
X136934466Y-92449500D01*
X136631534Y-92449500D01*
X136631531Y-92449500D01*
X136338923Y-92527903D01*
X136338920Y-92527904D01*
X136076575Y-92679371D01*
X136076575Y-92679372D01*
X135862372Y-92893575D01*
X135862371Y-92893575D01*
X135710904Y-93155920D01*
X135710903Y-93155923D01*
X135632500Y-93448530D01*
X135393499Y-93448530D01*
X135315096Y-93155923D01*
X135315095Y-93155920D01*
X135163628Y-92893575D01*
X134949424Y-92679371D01*
X134687079Y-92527904D01*
X134687076Y-92527903D01*
X134394469Y-92449500D01*
X134394466Y-92449500D01*
X134091534Y-92449500D01*
X134091531Y-92449500D01*
X133798923Y-92527903D01*
X133798920Y-92527904D01*
X133536575Y-92679371D01*
X133536575Y-92679372D01*
X133322372Y-92893575D01*
X133322371Y-92893575D01*
X133170904Y-93155920D01*
X133170903Y-93155923D01*
X133092500Y-93448530D01*
X132853499Y-93448530D01*
X132775096Y-93155923D01*
X132775095Y-93155920D01*
X132623628Y-92893575D01*
X132409424Y-92679371D01*
X132147079Y-92527904D01*
X132147076Y-92527903D01*
X131854469Y-92449500D01*
X131854466Y-92449500D01*
X131551534Y-92449500D01*
X131551531Y-92449500D01*
X131258923Y-92527903D01*
X131258920Y-92527904D01*
X130996575Y-92679371D01*
X130996575Y-92679372D01*
X130782372Y-92893575D01*
X130782371Y-92893575D01*
X130630904Y-93155920D01*
X130630903Y-93155923D01*
X130552500Y-93448530D01*
X130313499Y-93448530D01*
X130235096Y-93155923D01*
X130235095Y-93155920D01*
X130083628Y-92893575D01*
X129869424Y-92679371D01*
X129607079Y-92527904D01*
X129607076Y-92527903D01*
X129314469Y-92449500D01*
X129314466Y-92449500D01*
X129011534Y-92449500D01*
X129011531Y-92449500D01*
X128718923Y-92527903D01*
X128718920Y-92527904D01*
X128456575Y-92679371D01*
X128456575Y-92679372D01*
X128242372Y-92893575D01*
X128242371Y-92893575D01*
X128090904Y-93155920D01*
X128090903Y-93155923D01*
X128012500Y-93448530D01*
X127773499Y-93448530D01*
X127695096Y-93155923D01*
X127695095Y-93155920D01*
X127543628Y-92893575D01*
X127329424Y-92679371D01*
X127067079Y-92527904D01*
X127067076Y-92527903D01*
X126774469Y-92449500D01*
X126774466Y-92449500D01*
X126471534Y-92449500D01*
X126471531Y-92449500D01*
X126178923Y-92527903D01*
X126178920Y-92527904D01*
X125916575Y-92679371D01*
X125916575Y-92679372D01*
X125702372Y-92893575D01*
X125702371Y-92893575D01*
X125550904Y-93155920D01*
X125550903Y-93155923D01*
X125472500Y-93448530D01*
X125233499Y-93448530D01*
X125155096Y-93155923D01*
X125155095Y-93155920D01*
X125003628Y-92893575D01*
X124789424Y-92679371D01*
X124527079Y-92527904D01*
X124527076Y-92527903D01*
X124234469Y-92449500D01*
X124234466Y-92449500D01*
X123931534Y-92449500D01*
X123931531Y-92449500D01*
X123638923Y-92527903D01*
X123638920Y-92527904D01*
X123376575Y-92679371D01*
X123376575Y-92679372D01*
X123162372Y-92893575D01*
X123162371Y-92893575D01*
X123010904Y-93155920D01*
X123010903Y-93155923D01*
X122932500Y-93448530D01*
X122693499Y-93448530D01*
X122615096Y-93155923D01*
X122615095Y-93155920D01*
X122463628Y-92893575D01*
X122249424Y-92679371D01*
X121987079Y-92527904D01*
X121987076Y-92527903D01*
X121694469Y-92449500D01*
X121694466Y-92449500D01*
X121391534Y-92449500D01*
X121391531Y-92449500D01*
X121098923Y-92527903D01*
X121098920Y-92527904D01*
X120836575Y-92679371D01*
X120836575Y-92679372D01*
X120622372Y-92893575D01*
X120622371Y-92893575D01*
X120470904Y-93155920D01*
X120470903Y-93155923D01*
X120392500Y-93448530D01*
X120153499Y-93448530D01*
X120075096Y-93155923D01*
X120075095Y-93155920D01*
X119923628Y-92893575D01*
X119709424Y-92679371D01*
X119447079Y-92527904D01*
X119447076Y-92527903D01*
X119154469Y-92449500D01*
X119154466Y-92449500D01*
X118851534Y-92449500D01*
X118851531Y-92449500D01*
X118558923Y-92527903D01*
X118558920Y-92527904D01*
X118296575Y-92679371D01*
X118296575Y-92679372D01*
X118082372Y-92893575D01*
X118082371Y-92893575D01*
X117930904Y-93155920D01*
X117930903Y-93155923D01*
X117852500Y-93448530D01*
X117613499Y-93448530D01*
X117535096Y-93155923D01*
X117535095Y-93155920D01*
X117383628Y-92893575D01*
X117169424Y-92679371D01*
X116907079Y-92527904D01*
X116907076Y-92527903D01*
X116614469Y-92449500D01*
X116614466Y-92449500D01*
X116311534Y-92449500D01*
X116311531Y-92449500D01*
X116018923Y-92527903D01*
X116018920Y-92527904D01*
X115756575Y-92679371D01*
X115756575Y-92679372D01*
X115542372Y-92893575D01*
X115542371Y-92893575D01*
X115390904Y-93155920D01*
X115390903Y-93155923D01*
X115312500Y-93448530D01*
X115073499Y-93448530D01*
X114995096Y-93155923D01*
X114995095Y-93155920D01*
X114843628Y-92893575D01*
X114629424Y-92679371D01*
X114367079Y-92527904D01*
X114367076Y-92527903D01*
X114074469Y-92449500D01*
X114074466Y-92449500D01*
X113771534Y-92449500D01*
X113771531Y-92449500D01*
X113478923Y-92527903D01*
X113478920Y-92527904D01*
X113216575Y-92679371D01*
X113216575Y-92679372D01*
X113002372Y-92893575D01*
X113002371Y-92893575D01*
X112850904Y-93155920D01*
X112850903Y-93155923D01*
X112772500Y-93448530D01*
X112533499Y-93448530D01*
X112455096Y-93155923D01*
X112455095Y-93155920D01*
X112303628Y-92893575D01*
X112089424Y-92679371D01*
X111827079Y-92527904D01*
X111827076Y-92527903D01*
X111534469Y-92449500D01*
X111534466Y-92449500D01*
X111231534Y-92449500D01*
X111231531Y-92449500D01*
X110938923Y-92527903D01*
X110938920Y-92527904D01*
X110676575Y-92679371D01*
X110676575Y-92679372D01*
X110462372Y-92893575D01*
X110462371Y-92893575D01*
X110310904Y-93155920D01*
X110310903Y-93155923D01*
X110232500Y-93448530D01*
X109993499Y-93448530D01*
X109915096Y-93155923D01*
X109915095Y-93155920D01*
X109763628Y-92893575D01*
X109549424Y-92679371D01*
X109287079Y-92527904D01*
X109287076Y-92527903D01*
X108994469Y-92449500D01*
X108994466Y-92449500D01*
X108691534Y-92449500D01*
X108691531Y-92449500D01*
X108398923Y-92527903D01*
X108398920Y-92527904D01*
X108136575Y-92679371D01*
X108136575Y-92679372D01*
X107922372Y-92893575D01*
X107922371Y-92893575D01*
X107770904Y-93155920D01*
X107770903Y-93155923D01*
X107692500Y-93448530D01*
X107453499Y-93448530D01*
X107375096Y-93155923D01*
X107375095Y-93155920D01*
X107223628Y-92893575D01*
X107009424Y-92679371D01*
X106747079Y-92527904D01*
X106747076Y-92527903D01*
X106454469Y-92449500D01*
X106454466Y-92449500D01*
X106151534Y-92449500D01*
X106151531Y-92449500D01*
X105858923Y-92527903D01*
X105858920Y-92527904D01*
X105596575Y-92679371D01*
X105596575Y-92679372D01*
X105382372Y-92893575D01*
X105382371Y-92893575D01*
X105230904Y-93155920D01*
X105230903Y-93155923D01*
X105152500Y-93448530D01*
X104913499Y-93448530D01*
X104835096Y-93155923D01*
X104835095Y-93155920D01*
X104683628Y-92893575D01*
X104469424Y-92679371D01*
X104207079Y-92527904D01*
X104207076Y-92527903D01*
X103914469Y-92449500D01*
X103914466Y-92449500D01*
X103611534Y-92449500D01*
X103611531Y-92449500D01*
X103318923Y-92527903D01*
X103318920Y-92527904D01*
X103056575Y-92679371D01*
X103056575Y-92679372D01*
X102842372Y-92893575D01*
X102842371Y-92893575D01*
X102690904Y-93155920D01*
X102690903Y-93155923D01*
X102612500Y-93448530D01*
X102373499Y-93448530D01*
X102295096Y-93155923D01*
X102295095Y-93155920D01*
X102143628Y-92893575D01*
X101929424Y-92679371D01*
X101667079Y-92527904D01*
X101667076Y-92527903D01*
X101374469Y-92449500D01*
X101374466Y-92449500D01*
X101071534Y-92449500D01*
X101071531Y-92449500D01*
X100778923Y-92527903D01*
X100778920Y-92527904D01*
X100516575Y-92679371D01*
X100516575Y-92679372D01*
X100302372Y-92893575D01*
X100302371Y-92893575D01*
X100150904Y-93155920D01*
X100150903Y-93155923D01*
X100072500Y-93448530D01*
X99833499Y-93448530D01*
X99755096Y-93155923D01*
X99755095Y-93155920D01*
X99603628Y-92893575D01*
X99389424Y-92679371D01*
X99127079Y-92527904D01*
X99127076Y-92527903D01*
X98834469Y-92449500D01*
X98834466Y-92449500D01*
X98531534Y-92449500D01*
X98531531Y-92449500D01*
X98238923Y-92527903D01*
X98238920Y-92527904D01*
X97976575Y-92679371D01*
X97976575Y-92679372D01*
X97762372Y-92893575D01*
X97762371Y-92893575D01*
X97610904Y-93155920D01*
X97610903Y-93155923D01*
X97532500Y-93448530D01*
X97293499Y-93448530D01*
X97215096Y-93155923D01*
X97215095Y-93155920D01*
X97063628Y-92893575D01*
X96849424Y-92679371D01*
X96587079Y-92527904D01*
X96587076Y-92527903D01*
X96294469Y-92449500D01*
X96294466Y-92449500D01*
X95991534Y-92449500D01*
X95991531Y-92449500D01*
X95698923Y-92527903D01*
X95698920Y-92527904D01*
X95436575Y-92679371D01*
X95436575Y-92679372D01*
X95222372Y-92893575D01*
X95222371Y-92893575D01*
X95070904Y-93155920D01*
X95070903Y-93155923D01*
X94992500Y-93448530D01*
X94753499Y-93448530D01*
X94675096Y-93155923D01*
X94675095Y-93155920D01*
X94523628Y-92893575D01*
X94309424Y-92679371D01*
X94047079Y-92527904D01*
X94047076Y-92527903D01*
X93754469Y-92449500D01*
X93754466Y-92449500D01*
X93451534Y-92449500D01*
X93451531Y-92449500D01*
X93158923Y-92527903D01*
X93158920Y-92527904D01*
X92896575Y-92679371D01*
X92896575Y-92679372D01*
X92682372Y-92893575D01*
X92682371Y-92893575D01*
X92530904Y-93155920D01*
X92530903Y-93155923D01*
X92452500Y-93448530D01*
X92213500Y-93448530D01*
X92213500Y-92720404D01*
X92196065Y-92632751D01*
X92156250Y-92573165D01*
X92129648Y-92533351D01*
X92070062Y-92493537D01*
X92030249Y-92466935D01*
X91942596Y-92449500D01*
X90183404Y-92449500D01*
X90095751Y-92466935D01*
X89996351Y-92533351D01*
X89929935Y-92632751D01*
X89912500Y-92720404D01*
X55764500Y-92720404D01*
X55764500Y-90908530D01*
X89912500Y-90908530D01*
X89912500Y-91211469D01*
X89990903Y-91504076D01*
X89990904Y-91504079D01*
X90142371Y-91766424D01*
X90356576Y-91980629D01*
X90452598Y-92036068D01*
X90618920Y-92132095D01*
X90618923Y-92132096D01*
X90911530Y-92210499D01*
X90911531Y-92210500D01*
X90911534Y-92210500D01*
X91214469Y-92210500D01*
X91214469Y-92210499D01*
X91507077Y-92132096D01*
X91769424Y-91980629D01*
X91983629Y-91766424D01*
X92135096Y-91504077D01*
X92213499Y-91211469D01*
X92213500Y-91211469D01*
X92213500Y-90908531D01*
X92213499Y-90908530D01*
X92452500Y-90908530D01*
X92452500Y-91211469D01*
X92530903Y-91504076D01*
X92530904Y-91504079D01*
X92682371Y-91766424D01*
X92896576Y-91980629D01*
X92992598Y-92036068D01*
X93158920Y-92132095D01*
X93158923Y-92132096D01*
X93451530Y-92210499D01*
X93451531Y-92210500D01*
X93451534Y-92210500D01*
X93754469Y-92210500D01*
X93754469Y-92210499D01*
X94047077Y-92132096D01*
X94309424Y-91980629D01*
X94523629Y-91766424D01*
X94675096Y-91504077D01*
X94753499Y-91211469D01*
X94753500Y-91211469D01*
X94753500Y-90908531D01*
X94753499Y-90908530D01*
X94992500Y-90908530D01*
X94992500Y-91211469D01*
X95070903Y-91504076D01*
X95070904Y-91504079D01*
X95222371Y-91766424D01*
X95436576Y-91980629D01*
X95532598Y-92036068D01*
X95698920Y-92132095D01*
X95698923Y-92132096D01*
X95991530Y-92210499D01*
X95991531Y-92210500D01*
X95991534Y-92210500D01*
X96294469Y-92210500D01*
X96294469Y-92210499D01*
X96587077Y-92132096D01*
X96849424Y-91980629D01*
X97063629Y-91766424D01*
X97215096Y-91504077D01*
X97293499Y-91211469D01*
X97293500Y-91211469D01*
X97293500Y-90908531D01*
X97293499Y-90908530D01*
X97532500Y-90908530D01*
X97532500Y-91211469D01*
X97610903Y-91504076D01*
X97610904Y-91504079D01*
X97762371Y-91766424D01*
X97976576Y-91980629D01*
X98072598Y-92036068D01*
X98238920Y-92132095D01*
X98238923Y-92132096D01*
X98531530Y-92210499D01*
X98531531Y-92210500D01*
X98531534Y-92210500D01*
X98834469Y-92210500D01*
X98834469Y-92210499D01*
X99127077Y-92132096D01*
X99389424Y-91980629D01*
X99603629Y-91766424D01*
X99755096Y-91504077D01*
X99833499Y-91211469D01*
X99833500Y-91211469D01*
X99833500Y-90908531D01*
X99833499Y-90908530D01*
X105152500Y-90908530D01*
X105152500Y-91211469D01*
X105230903Y-91504076D01*
X105230904Y-91504079D01*
X105382371Y-91766424D01*
X105596576Y-91980629D01*
X105692598Y-92036068D01*
X105858920Y-92132095D01*
X105858923Y-92132096D01*
X106151530Y-92210499D01*
X106151531Y-92210500D01*
X106151534Y-92210500D01*
X106454469Y-92210500D01*
X106454469Y-92210499D01*
X106747077Y-92132096D01*
X107009424Y-91980629D01*
X107223629Y-91766424D01*
X107375096Y-91504077D01*
X107453499Y-91211469D01*
X107453500Y-91211469D01*
X107453500Y-90908531D01*
X107453499Y-90908530D01*
X107692500Y-90908530D01*
X107692500Y-91211469D01*
X107770903Y-91504076D01*
X107770904Y-91504079D01*
X107922371Y-91766424D01*
X108136576Y-91980629D01*
X108232598Y-92036068D01*
X108398920Y-92132095D01*
X108398923Y-92132096D01*
X108691530Y-92210499D01*
X108691531Y-92210500D01*
X108691534Y-92210500D01*
X108994469Y-92210500D01*
X108994469Y-92210499D01*
X109287077Y-92132096D01*
X109549424Y-91980629D01*
X109763629Y-91766424D01*
X109915096Y-91504077D01*
X109993499Y-91211469D01*
X109993500Y-91211469D01*
X109993500Y-90908531D01*
X109993499Y-90908530D01*
X110232500Y-90908530D01*
X110232500Y-91211469D01*
X110310903Y-91504076D01*
X110310904Y-91504079D01*
X110462371Y-91766424D01*
X110676576Y-91980629D01*
X110772598Y-92036068D01*
X110938920Y-92132095D01*
X110938923Y-92132096D01*
X111231530Y-92210499D01*
X111231531Y-92210500D01*
X111231534Y-92210500D01*
X111534469Y-92210500D01*
X111534469Y-92210499D01*
X111827077Y-92132096D01*
X112089424Y-91980629D01*
X112303629Y-91766424D01*
X112455096Y-91504077D01*
X112533499Y-91211469D01*
X112533500Y-91211469D01*
X112533500Y-90908531D01*
X112533499Y-90908530D01*
X112772500Y-90908530D01*
X112772500Y-91211469D01*
X112850903Y-91504076D01*
X112850904Y-91504079D01*
X113002371Y-91766424D01*
X113216576Y-91980629D01*
X113312598Y-92036068D01*
X113478920Y-92132095D01*
X113478923Y-92132096D01*
X113771530Y-92210499D01*
X113771531Y-92210500D01*
X113771534Y-92210500D01*
X114074469Y-92210500D01*
X114074469Y-92210499D01*
X114367077Y-92132096D01*
X114629424Y-91980629D01*
X114843629Y-91766424D01*
X114995096Y-91504077D01*
X115073499Y-91211469D01*
X115073500Y-91211469D01*
X115073500Y-90908531D01*
X115073499Y-90908530D01*
X115312500Y-90908530D01*
X115312500Y-91211469D01*
X115390903Y-91504076D01*
X115390904Y-91504079D01*
X115542371Y-91766424D01*
X115756576Y-91980629D01*
X115852598Y-92036068D01*
X116018920Y-92132095D01*
X116018923Y-92132096D01*
X116311530Y-92210499D01*
X116311531Y-92210500D01*
X116311534Y-92210500D01*
X116614469Y-92210500D01*
X116614469Y-92210499D01*
X116907077Y-92132096D01*
X117169424Y-91980629D01*
X117383629Y-91766424D01*
X117535096Y-91504077D01*
X117613499Y-91211469D01*
X117613500Y-91211469D01*
X117613500Y-90908531D01*
X117613499Y-90908530D01*
X117852500Y-90908530D01*
X117852500Y-91211469D01*
X117930903Y-91504076D01*
X117930904Y-91504079D01*
X118082371Y-91766424D01*
X118296576Y-91980629D01*
X118392598Y-92036068D01*
X118558920Y-92132095D01*
X118558923Y-92132096D01*
X118851530Y-92210499D01*
X118851531Y-92210500D01*
X118851534Y-92210500D01*
X119154469Y-92210500D01*
X119154469Y-92210499D01*
X119447077Y-92132096D01*
X119709424Y-91980629D01*
X119923629Y-91766424D01*
X120075096Y-91504077D01*
X120153499Y-91211469D01*
X120153500Y-91211469D01*
X120153500Y-90908531D01*
X120153499Y-90908530D01*
X120392500Y-90908530D01*
X120392500Y-91211469D01*
X120470903Y-91504076D01*
X120470904Y-91504079D01*
X120622371Y-91766424D01*
X120836576Y-91980629D01*
X120932598Y-92036068D01*
X121098920Y-92132095D01*
X121098923Y-92132096D01*
X121391530Y-92210499D01*
X121391531Y-92210500D01*
X121391534Y-92210500D01*
X121694469Y-92210500D01*
X121694469Y-92210499D01*
X121987077Y-92132096D01*
X122249424Y-91980629D01*
X122463629Y-91766424D01*
X122615096Y-91504077D01*
X122693499Y-91211469D01*
X122693500Y-91211469D01*
X122693500Y-90908531D01*
X122693499Y-90908530D01*
X122932500Y-90908530D01*
X122932500Y-91211469D01*
X123010903Y-91504076D01*
X123010904Y-91504079D01*
X123162371Y-91766424D01*
X123376576Y-91980629D01*
X123472598Y-92036068D01*
X123638920Y-92132095D01*
X123638923Y-92132096D01*
X123931530Y-92210499D01*
X123931531Y-92210500D01*
X123931534Y-92210500D01*
X124234469Y-92210500D01*
X124234469Y-92210499D01*
X124527077Y-92132096D01*
X124789424Y-91980629D01*
X125003629Y-91766424D01*
X125155096Y-91504077D01*
X125233499Y-91211469D01*
X125233500Y-91211469D01*
X125233500Y-90908531D01*
X125233499Y-90908530D01*
X128012500Y-90908530D01*
X128012500Y-91211469D01*
X128090903Y-91504076D01*
X128090904Y-91504079D01*
X128242371Y-91766424D01*
X128456576Y-91980629D01*
X128552598Y-92036068D01*
X128718920Y-92132095D01*
X128718923Y-92132096D01*
X129011530Y-92210499D01*
X129011531Y-92210500D01*
X129011534Y-92210500D01*
X129314469Y-92210500D01*
X129314469Y-92210499D01*
X129607077Y-92132096D01*
X129869424Y-91980629D01*
X130083629Y-91766424D01*
X130235096Y-91504077D01*
X130313499Y-91211469D01*
X130313500Y-91211469D01*
X130313500Y-90908531D01*
X130313499Y-90908530D01*
X130552500Y-90908530D01*
X130552500Y-91211469D01*
X130630903Y-91504076D01*
X130630904Y-91504079D01*
X130782371Y-91766424D01*
X130996576Y-91980629D01*
X131092598Y-92036068D01*
X131258920Y-92132095D01*
X131258923Y-92132096D01*
X131551530Y-92210499D01*
X131551531Y-92210500D01*
X131551534Y-92210500D01*
X131854469Y-92210500D01*
X131854469Y-92210499D01*
X132147077Y-92132096D01*
X132409424Y-91980629D01*
X132623629Y-91766424D01*
X132775096Y-91504077D01*
X132853499Y-91211469D01*
X132853500Y-91211469D01*
X132853500Y-90908531D01*
X132853499Y-90908530D01*
X133092500Y-90908530D01*
X133092500Y-91211469D01*
X133170903Y-91504076D01*
X133170904Y-91504079D01*
X133322371Y-91766424D01*
X133536576Y-91980629D01*
X133632598Y-92036068D01*
X133798920Y-92132095D01*
X133798923Y-92132096D01*
X134091530Y-92210499D01*
X134091531Y-92210500D01*
X134091534Y-92210500D01*
X134394469Y-92210500D01*
X134394469Y-92210499D01*
X134687077Y-92132096D01*
X134949424Y-91980629D01*
X135163629Y-91766424D01*
X135315096Y-91504077D01*
X135393499Y-91211469D01*
X135393500Y-91211469D01*
X135393500Y-90908531D01*
X135393499Y-90908530D01*
X135632500Y-90908530D01*
X135632500Y-91211469D01*
X135710903Y-91504076D01*
X135710904Y-91504079D01*
X135862371Y-91766424D01*
X136076576Y-91980629D01*
X136172598Y-92036068D01*
X136338920Y-92132095D01*
X136338923Y-92132096D01*
X136631530Y-92210499D01*
X136631531Y-92210500D01*
X136631534Y-92210500D01*
X136934469Y-92210500D01*
X136934469Y-92210499D01*
X137227077Y-92132096D01*
X137489424Y-91980629D01*
X137703629Y-91766424D01*
X137855096Y-91504077D01*
X137933499Y-91211469D01*
X137933500Y-91211469D01*
X137933500Y-90908531D01*
X137933499Y-90908530D01*
X138172500Y-90908530D01*
X138172500Y-91211469D01*
X138250903Y-91504076D01*
X138250904Y-91504079D01*
X138402371Y-91766424D01*
X138616576Y-91980629D01*
X138712598Y-92036068D01*
X138878920Y-92132095D01*
X138878923Y-92132096D01*
X139171530Y-92210499D01*
X139171531Y-92210500D01*
X139171534Y-92210500D01*
X139474469Y-92210500D01*
X139474469Y-92210499D01*
X139767077Y-92132096D01*
X140029424Y-91980629D01*
X140243629Y-91766424D01*
X140395096Y-91504077D01*
X140473499Y-91211469D01*
X140473500Y-91211469D01*
X140473500Y-90908531D01*
X140473499Y-90908530D01*
X140395096Y-90615923D01*
X140395095Y-90615920D01*
X140243628Y-90353575D01*
X140029424Y-90139371D01*
X139767079Y-89987904D01*
X139767076Y-89987903D01*
X139474469Y-89909500D01*
X139474466Y-89909500D01*
X139171534Y-89909500D01*
X139171531Y-89909500D01*
X138878923Y-89987903D01*
X138878920Y-89987904D01*
X138616575Y-90139371D01*
X138616575Y-90139372D01*
X138402372Y-90353575D01*
X138402371Y-90353575D01*
X138250904Y-90615920D01*
X138250903Y-90615923D01*
X138172500Y-90908530D01*
X137933499Y-90908530D01*
X137855096Y-90615923D01*
X137855095Y-90615920D01*
X137703628Y-90353575D01*
X137489424Y-90139371D01*
X137227079Y-89987904D01*
X137227076Y-89987903D01*
X136934469Y-89909500D01*
X136934466Y-89909500D01*
X136631534Y-89909500D01*
X136631531Y-89909500D01*
X136338923Y-89987903D01*
X136338920Y-89987904D01*
X136076575Y-90139371D01*
X136076575Y-90139372D01*
X135862372Y-90353575D01*
X135862371Y-90353575D01*
X135710904Y-90615920D01*
X135710903Y-90615923D01*
X135632500Y-90908530D01*
X135393499Y-90908530D01*
X135315096Y-90615923D01*
X135315095Y-90615920D01*
X135163628Y-90353575D01*
X134949424Y-90139371D01*
X134687079Y-89987904D01*
X134687076Y-89987903D01*
X134394469Y-89909500D01*
X134394466Y-89909500D01*
X134091534Y-89909500D01*
X134091531Y-89909500D01*
X133798923Y-89987903D01*
X133798920Y-89987904D01*
X133536575Y-90139371D01*
X133536575Y-90139372D01*
X133322372Y-90353575D01*
X133322371Y-90353575D01*
X133170904Y-90615920D01*
X133170903Y-90615923D01*
X133092500Y-90908530D01*
X132853499Y-90908530D01*
X132775096Y-90615923D01*
X132775095Y-90615920D01*
X132623628Y-90353575D01*
X132409424Y-90139371D01*
X132147079Y-89987904D01*
X132147076Y-89987903D01*
X131854469Y-89909500D01*
X131854466Y-89909500D01*
X131551534Y-89909500D01*
X131551531Y-89909500D01*
X131258923Y-89987903D01*
X131258920Y-89987904D01*
X130996575Y-90139371D01*
X130996575Y-90139372D01*
X130782372Y-90353575D01*
X130782371Y-90353575D01*
X130630904Y-90615920D01*
X130630903Y-90615923D01*
X130552500Y-90908530D01*
X130313499Y-90908530D01*
X130235096Y-90615923D01*
X130235095Y-90615920D01*
X130083628Y-90353575D01*
X129869424Y-90139371D01*
X129607079Y-89987904D01*
X129607076Y-89987903D01*
X129314469Y-89909500D01*
X129314466Y-89909500D01*
X129011534Y-89909500D01*
X129011531Y-89909500D01*
X128718923Y-89987903D01*
X128718920Y-89987904D01*
X128456575Y-90139371D01*
X128456575Y-90139372D01*
X128242372Y-90353575D01*
X128242371Y-90353575D01*
X128090904Y-90615920D01*
X128090903Y-90615923D01*
X128012500Y-90908530D01*
X125233499Y-90908530D01*
X125155096Y-90615923D01*
X125155095Y-90615920D01*
X125003628Y-90353575D01*
X124789424Y-90139371D01*
X124527079Y-89987904D01*
X124527076Y-89987903D01*
X124234469Y-89909500D01*
X124234466Y-89909500D01*
X123931534Y-89909500D01*
X123931531Y-89909500D01*
X123638923Y-89987903D01*
X123638920Y-89987904D01*
X123376575Y-90139371D01*
X123376575Y-90139372D01*
X123162372Y-90353575D01*
X123162371Y-90353575D01*
X123010904Y-90615920D01*
X123010903Y-90615923D01*
X122932500Y-90908530D01*
X122693499Y-90908530D01*
X122615096Y-90615923D01*
X122615095Y-90615920D01*
X122463628Y-90353575D01*
X122249424Y-90139371D01*
X121987079Y-89987904D01*
X121987076Y-89987903D01*
X121694469Y-89909500D01*
X121694466Y-89909500D01*
X121391534Y-89909500D01*
X121391531Y-89909500D01*
X121098923Y-89987903D01*
X121098920Y-89987904D01*
X120836575Y-90139371D01*
X120836575Y-90139372D01*
X120622372Y-90353575D01*
X120622371Y-90353575D01*
X120470904Y-90615920D01*
X120470903Y-90615923D01*
X120392500Y-90908530D01*
X120153499Y-90908530D01*
X120075096Y-90615923D01*
X120075095Y-90615920D01*
X119923628Y-90353575D01*
X119709424Y-90139371D01*
X119447079Y-89987904D01*
X119447076Y-89987903D01*
X119154469Y-89909500D01*
X119154466Y-89909500D01*
X118851534Y-89909500D01*
X118851531Y-89909500D01*
X118558923Y-89987903D01*
X118558920Y-89987904D01*
X118296575Y-90139371D01*
X118296575Y-90139372D01*
X118082372Y-90353575D01*
X118082371Y-90353575D01*
X117930904Y-90615920D01*
X117930903Y-90615923D01*
X117852500Y-90908530D01*
X117613499Y-90908530D01*
X117535096Y-90615923D01*
X117535095Y-90615920D01*
X117383628Y-90353575D01*
X117169424Y-90139371D01*
X116907079Y-89987904D01*
X116907076Y-89987903D01*
X116614469Y-89909500D01*
X116614466Y-89909500D01*
X116311534Y-89909500D01*
X116311531Y-89909500D01*
X116018923Y-89987903D01*
X116018920Y-89987904D01*
X115756575Y-90139371D01*
X115756575Y-90139372D01*
X115542372Y-90353575D01*
X115542371Y-90353575D01*
X115390904Y-90615920D01*
X115390903Y-90615923D01*
X115312500Y-90908530D01*
X115073499Y-90908530D01*
X114995096Y-90615923D01*
X114995095Y-90615920D01*
X114843628Y-90353575D01*
X114629424Y-90139371D01*
X114367079Y-89987904D01*
X114367076Y-89987903D01*
X114074469Y-89909500D01*
X114074466Y-89909500D01*
X113771534Y-89909500D01*
X113771531Y-89909500D01*
X113478923Y-89987903D01*
X113478920Y-89987904D01*
X113216575Y-90139371D01*
X113216575Y-90139372D01*
X113002372Y-90353575D01*
X113002371Y-90353575D01*
X112850904Y-90615920D01*
X112850903Y-90615923D01*
X112772500Y-90908530D01*
X112533499Y-90908530D01*
X112455096Y-90615923D01*
X112455095Y-90615920D01*
X112303628Y-90353575D01*
X112089424Y-90139371D01*
X111827079Y-89987904D01*
X111827076Y-89987903D01*
X111534469Y-89909500D01*
X111534466Y-89909500D01*
X111231534Y-89909500D01*
X111231531Y-89909500D01*
X110938923Y-89987903D01*
X110938920Y-89987904D01*
X110676575Y-90139371D01*
X110676575Y-90139372D01*
X110462372Y-90353575D01*
X110462371Y-90353575D01*
X110310904Y-90615920D01*
X110310903Y-90615923D01*
X110232500Y-90908530D01*
X109993499Y-90908530D01*
X109915096Y-90615923D01*
X109915095Y-90615920D01*
X109763628Y-90353575D01*
X109549424Y-90139371D01*
X109287079Y-89987904D01*
X109287076Y-89987903D01*
X108994469Y-89909500D01*
X108994466Y-89909500D01*
X108691534Y-89909500D01*
X108691531Y-89909500D01*
X108398923Y-89987903D01*
X108398920Y-89987904D01*
X108136575Y-90139371D01*
X108136575Y-90139372D01*
X107922372Y-90353575D01*
X107922371Y-90353575D01*
X107770904Y-90615920D01*
X107770903Y-90615923D01*
X107692500Y-90908530D01*
X107453499Y-90908530D01*
X107375096Y-90615923D01*
X107375095Y-90615920D01*
X107223628Y-90353575D01*
X107009424Y-90139371D01*
X106747079Y-89987904D01*
X106747076Y-89987903D01*
X106454469Y-89909500D01*
X106454466Y-89909500D01*
X106151534Y-89909500D01*
X106151531Y-89909500D01*
X105858923Y-89987903D01*
X105858920Y-89987904D01*
X105596575Y-90139371D01*
X105596575Y-90139372D01*
X105382372Y-90353575D01*
X105382371Y-90353575D01*
X105230904Y-90615920D01*
X105230903Y-90615923D01*
X105152500Y-90908530D01*
X99833499Y-90908530D01*
X99755096Y-90615923D01*
X99755095Y-90615920D01*
X99603628Y-90353575D01*
X99389424Y-90139371D01*
X99127079Y-89987904D01*
X99127076Y-89987903D01*
X98834469Y-89909500D01*
X98834466Y-89909500D01*
X98531534Y-89909500D01*
X98531531Y-89909500D01*
X98238923Y-89987903D01*
X98238920Y-89987904D01*
X97976575Y-90139371D01*
X97976575Y-90139372D01*
X97762372Y-90353575D01*
X97762371Y-90353575D01*
X97610904Y-90615920D01*
X97610903Y-90615923D01*
X97532500Y-90908530D01*
X97293499Y-90908530D01*
X97215096Y-90615923D01*
X97215095Y-90615920D01*
X97063628Y-90353575D01*
X96849424Y-90139371D01*
X96587079Y-89987904D01*
X96587076Y-89987903D01*
X96294469Y-89909500D01*
X96294466Y-89909500D01*
X95991534Y-89909500D01*
X95991531Y-89909500D01*
X95698923Y-89987903D01*
X95698920Y-89987904D01*
X95436575Y-90139371D01*
X95436575Y-90139372D01*
X95222372Y-90353575D01*
X95222371Y-90353575D01*
X95070904Y-90615920D01*
X95070903Y-90615923D01*
X94992500Y-90908530D01*
X94753499Y-90908530D01*
X94675096Y-90615923D01*
X94675095Y-90615920D01*
X94523628Y-90353575D01*
X94309424Y-90139371D01*
X94047079Y-89987904D01*
X94047076Y-89987903D01*
X93754469Y-89909500D01*
X93754466Y-89909500D01*
X93451534Y-89909500D01*
X93451531Y-89909500D01*
X93158923Y-89987903D01*
X93158920Y-89987904D01*
X92896575Y-90139371D01*
X92896575Y-90139372D01*
X92682372Y-90353575D01*
X92682371Y-90353575D01*
X92530904Y-90615920D01*
X92530903Y-90615923D01*
X92452500Y-90908530D01*
X92213499Y-90908530D01*
X92135096Y-90615923D01*
X92135095Y-90615920D01*
X91983628Y-90353575D01*
X91769424Y-90139371D01*
X91507079Y-89987904D01*
X91507076Y-89987903D01*
X91214469Y-89909500D01*
X91214466Y-89909500D01*
X90911534Y-89909500D01*
X90911531Y-89909500D01*
X90618923Y-89987903D01*
X90618920Y-89987904D01*
X90356575Y-90139371D01*
X90356575Y-90139372D01*
X90142372Y-90353575D01*
X90142371Y-90353575D01*
X89990904Y-90615920D01*
X89990903Y-90615923D01*
X89912500Y-90908530D01*
X55764500Y-90908530D01*
X55764500Y-89302950D01*
X53976954Y-87515404D01*
X64491000Y-87515404D01*
X64491000Y-88796596D01*
X64508435Y-88884249D01*
X64535037Y-88924062D01*
X64574851Y-88983648D01*
X64607379Y-89005382D01*
X64674251Y-89050065D01*
X64761904Y-89067500D01*
X64761907Y-89067500D01*
X66043093Y-89067500D01*
X66043096Y-89067500D01*
X66130749Y-89050065D01*
X66230148Y-88983648D01*
X66296565Y-88884249D01*
X66314000Y-88796596D01*
X66314000Y-88035995D01*
X69571000Y-88035995D01*
X69571000Y-88276004D01*
X69633116Y-88507824D01*
X69633117Y-88507828D01*
X69753119Y-88715674D01*
X69922826Y-88885381D01*
X69998900Y-88929303D01*
X70130671Y-89005382D01*
X70130673Y-89005382D01*
X70130674Y-89005383D01*
X70297427Y-89050064D01*
X70362495Y-89067499D01*
X70362496Y-89067500D01*
X70362499Y-89067500D01*
X70602504Y-89067500D01*
X70602504Y-89067499D01*
X70834326Y-89005383D01*
X71042174Y-88885381D01*
X71211881Y-88715674D01*
X71331883Y-88507826D01*
X71393999Y-88276004D01*
X71394000Y-88276004D01*
X71394000Y-88035996D01*
X71393999Y-88035995D01*
X71374895Y-87964699D01*
X71331883Y-87804174D01*
X71331882Y-87804173D01*
X71331882Y-87804171D01*
X71211880Y-87596325D01*
X71042174Y-87426619D01*
X70834328Y-87306617D01*
X70834324Y-87306616D01*
X70602504Y-87244500D01*
X70602501Y-87244500D01*
X70362499Y-87244500D01*
X70362496Y-87244500D01*
X70130675Y-87306616D01*
X70130671Y-87306617D01*
X69922825Y-87426619D01*
X69922825Y-87426620D01*
X69753120Y-87596325D01*
X69753119Y-87596325D01*
X69633117Y-87804171D01*
X69633116Y-87804175D01*
X69571000Y-88035995D01*
X66314000Y-88035995D01*
X66314000Y-87515404D01*
X66296565Y-87427751D01*
X66256750Y-87368165D01*
X66230148Y-87328351D01*
X66170562Y-87288537D01*
X66130749Y-87261935D01*
X66043096Y-87244500D01*
X64761904Y-87244500D01*
X64674251Y-87261935D01*
X64574851Y-87328351D01*
X64512944Y-87421003D01*
X64508435Y-87427751D01*
X64491000Y-87515404D01*
X53976954Y-87515404D01*
X51957545Y-85495995D01*
X67031000Y-85495995D01*
X67031000Y-85736004D01*
X67093116Y-85967824D01*
X67093117Y-85967828D01*
X67213119Y-86175674D01*
X67382826Y-86345381D01*
X67458900Y-86389303D01*
X67590671Y-86465382D01*
X67590673Y-86465382D01*
X67590674Y-86465383D01*
X67773508Y-86514373D01*
X67822495Y-86527499D01*
X67822496Y-86527500D01*
X67822499Y-86527500D01*
X68062504Y-86527500D01*
X68062504Y-86527499D01*
X68294326Y-86465383D01*
X68502174Y-86345381D01*
X68671881Y-86175674D01*
X68791883Y-85967826D01*
X68853999Y-85736004D01*
X68854000Y-85736004D01*
X68854000Y-85495996D01*
X68853999Y-85495995D01*
X68791883Y-85264175D01*
X68791882Y-85264171D01*
X68671880Y-85056325D01*
X68502174Y-84886619D01*
X68294328Y-84766617D01*
X68294324Y-84766616D01*
X68062504Y-84704500D01*
X68062501Y-84704500D01*
X67822499Y-84704500D01*
X67822496Y-84704500D01*
X67590675Y-84766616D01*
X67590671Y-84766617D01*
X67382825Y-84886619D01*
X67382825Y-84886620D01*
X67213120Y-85056325D01*
X67213119Y-85056325D01*
X67093117Y-85264171D01*
X67093116Y-85264175D01*
X67031000Y-85495995D01*
X51957545Y-85495995D01*
X48178852Y-81717302D01*
X48164500Y-81682654D01*
X48164500Y-79115404D01*
X64491000Y-79115404D01*
X64491000Y-80396596D01*
X64508435Y-80484249D01*
X64524043Y-80507608D01*
X64574851Y-80583648D01*
X64607379Y-80605382D01*
X64674251Y-80650065D01*
X64761904Y-80667500D01*
X64761907Y-80667500D01*
X66043093Y-80667500D01*
X66043096Y-80667500D01*
X66130749Y-80650065D01*
X66230148Y-80583648D01*
X66292759Y-80489943D01*
X66323940Y-80469110D01*
X66360723Y-80476426D01*
X66381558Y-80507608D01*
X66382500Y-80517168D01*
X66382500Y-81580638D01*
X66396508Y-81614456D01*
X66413509Y-81655499D01*
X66447279Y-81737027D01*
X66447280Y-81737028D01*
X66447280Y-81737029D01*
X71904948Y-87194696D01*
X71919300Y-87229344D01*
X71919300Y-87421003D01*
X71958403Y-87515404D01*
X72022626Y-87670453D01*
X72022627Y-87670454D01*
X72022628Y-87670456D01*
X72213544Y-87861372D01*
X72213545Y-87861372D01*
X72213547Y-87861374D01*
X72462998Y-87964700D01*
X72463000Y-87964700D01*
X72733000Y-87964700D01*
X72733002Y-87964700D01*
X72982453Y-87861374D01*
X72982455Y-87861372D01*
X72982456Y-87861372D01*
X73173372Y-87670456D01*
X73173372Y-87670455D01*
X73173374Y-87670453D01*
X73276700Y-87421002D01*
X73276700Y-87150998D01*
X73173374Y-86901547D01*
X73173372Y-86901545D01*
X73173372Y-86901544D01*
X72982456Y-86710628D01*
X72982454Y-86710627D01*
X72982453Y-86710626D01*
X72836329Y-86650099D01*
X72733003Y-86607300D01*
X72733002Y-86607300D01*
X72541344Y-86607300D01*
X72506696Y-86592948D01*
X71181191Y-85267443D01*
X126907500Y-85267443D01*
X126907500Y-85504556D01*
X126968867Y-85733578D01*
X126968868Y-85733582D01*
X127087421Y-85938920D01*
X127255080Y-86106579D01*
X127330238Y-86149971D01*
X127460417Y-86225131D01*
X127460419Y-86225131D01*
X127460420Y-86225132D01*
X127641041Y-86273529D01*
X127689443Y-86286499D01*
X127689444Y-86286500D01*
X127689447Y-86286500D01*
X127926556Y-86286500D01*
X127926556Y-86286499D01*
X128155580Y-86225132D01*
X128360920Y-86106579D01*
X128528579Y-85938920D01*
X128647132Y-85733580D01*
X128708499Y-85504556D01*
X128708500Y-85504556D01*
X128708500Y-85267444D01*
X128708499Y-85267443D01*
X128651930Y-85056326D01*
X128647132Y-85038420D01*
X128647131Y-85038419D01*
X128647131Y-85038417D01*
X128528578Y-84833079D01*
X128360920Y-84665421D01*
X128155582Y-84546868D01*
X128155578Y-84546867D01*
X127926556Y-84485500D01*
X127926553Y-84485500D01*
X127689447Y-84485500D01*
X127689444Y-84485500D01*
X127460421Y-84546867D01*
X127460417Y-84546868D01*
X127255079Y-84665421D01*
X127255079Y-84665422D01*
X127087422Y-84833079D01*
X127087421Y-84833079D01*
X126968868Y-85038417D01*
X126968867Y-85038421D01*
X126907500Y-85267443D01*
X71181191Y-85267443D01*
X69508744Y-83594996D01*
X79453900Y-83594996D01*
X79453900Y-83594998D01*
X79453900Y-83865002D01*
X79557226Y-84114453D01*
X79557227Y-84114454D01*
X79557228Y-84114456D01*
X79748144Y-84305372D01*
X79748145Y-84305372D01*
X79748147Y-84305374D01*
X79997598Y-84408700D01*
X79997600Y-84408700D01*
X80267600Y-84408700D01*
X80267602Y-84408700D01*
X80517053Y-84305374D01*
X80517055Y-84305372D01*
X80517056Y-84305372D01*
X80707972Y-84114456D01*
X80707972Y-84114455D01*
X80707974Y-84114453D01*
X80811300Y-83865002D01*
X80811300Y-83746660D01*
X102007500Y-83746660D01*
X102007500Y-83746662D01*
X102007500Y-84025338D01*
X102007500Y-84025340D01*
X102007501Y-84025341D01*
X102114144Y-84282802D01*
X102114146Y-84282805D01*
X102311195Y-84479854D01*
X102311197Y-84479855D01*
X102311198Y-84479856D01*
X102568662Y-84586500D01*
X102568664Y-84586500D01*
X102847336Y-84586500D01*
X102847338Y-84586500D01*
X103104802Y-84479856D01*
X103104803Y-84479854D01*
X103104805Y-84479854D01*
X103301854Y-84282805D01*
X103301854Y-84282803D01*
X103301856Y-84282802D01*
X103408500Y-84025338D01*
X103408500Y-83746662D01*
X103301856Y-83489198D01*
X103301855Y-83489197D01*
X103301854Y-83489195D01*
X103104805Y-83292146D01*
X103104802Y-83292144D01*
X102847341Y-83185501D01*
X102847339Y-83185500D01*
X102847338Y-83185500D01*
X102568662Y-83185500D01*
X102568660Y-83185500D01*
X102568658Y-83185501D01*
X102311197Y-83292144D01*
X102114144Y-83489197D01*
X102007501Y-83746658D01*
X102007500Y-83746660D01*
X80811300Y-83746660D01*
X80811300Y-83673344D01*
X80825652Y-83638696D01*
X80838496Y-83625852D01*
X80873144Y-83611500D01*
X96092635Y-83611500D01*
X96092637Y-83611500D01*
X96203221Y-83565694D01*
X96249027Y-83546721D01*
X100109306Y-79686442D01*
X112807500Y-79686442D01*
X112807500Y-79686444D01*
X112807500Y-79885556D01*
X112883697Y-80069510D01*
X112883698Y-80069511D01*
X112883699Y-80069513D01*
X113024487Y-80210301D01*
X113024488Y-80210301D01*
X113024490Y-80210303D01*
X113208444Y-80286500D01*
X113208446Y-80286500D01*
X113407554Y-80286500D01*
X113407556Y-80286500D01*
X113591510Y-80210303D01*
X113591512Y-80210301D01*
X113591513Y-80210301D01*
X113732301Y-80069513D01*
X113732301Y-80069512D01*
X113732303Y-80069510D01*
X113808500Y-79885556D01*
X113808500Y-79686444D01*
X113802286Y-79671442D01*
X138622500Y-79671442D01*
X138622500Y-79870557D01*
X138654062Y-79946754D01*
X138698697Y-80054510D01*
X138698698Y-80054511D01*
X138698699Y-80054513D01*
X138839487Y-80195301D01*
X138839488Y-80195301D01*
X138839490Y-80195303D01*
X139023444Y-80271500D01*
X139023446Y-80271500D01*
X139222554Y-80271500D01*
X139222556Y-80271500D01*
X139406510Y-80195303D01*
X139406512Y-80195301D01*
X139406513Y-80195301D01*
X139547301Y-80054513D01*
X139547301Y-80054512D01*
X139547303Y-80054510D01*
X139623500Y-79870556D01*
X139623500Y-79671444D01*
X139547303Y-79487490D01*
X139547301Y-79487488D01*
X139547301Y-79487487D01*
X139406513Y-79346699D01*
X139406511Y-79346698D01*
X139406510Y-79346697D01*
X139258769Y-79285500D01*
X139222557Y-79270500D01*
X139222556Y-79270500D01*
X139023444Y-79270500D01*
X139023442Y-79270500D01*
X138839488Y-79346698D01*
X138698698Y-79487488D01*
X138622500Y-79671442D01*
X113802286Y-79671442D01*
X113732303Y-79502490D01*
X113732301Y-79502488D01*
X113732301Y-79502487D01*
X113591513Y-79361699D01*
X113591511Y-79361698D01*
X113591510Y-79361697D01*
X113483754Y-79317062D01*
X113407557Y-79285500D01*
X113407556Y-79285500D01*
X113208444Y-79285500D01*
X113208442Y-79285500D01*
X113024488Y-79361698D01*
X112883698Y-79502488D01*
X112807500Y-79686442D01*
X100109306Y-79686442D01*
X101409306Y-78386442D01*
X112807500Y-78386442D01*
X112807500Y-78386444D01*
X112807500Y-78585556D01*
X112883697Y-78769510D01*
X112883698Y-78769511D01*
X112883699Y-78769513D01*
X113024487Y-78910301D01*
X113024488Y-78910301D01*
X113024490Y-78910303D01*
X113208444Y-78986500D01*
X113208446Y-78986500D01*
X113407554Y-78986500D01*
X113407556Y-78986500D01*
X113591510Y-78910303D01*
X113591512Y-78910301D01*
X113591513Y-78910301D01*
X113732301Y-78769513D01*
X113732301Y-78769512D01*
X113732303Y-78769510D01*
X113808500Y-78585556D01*
X113808500Y-78386444D01*
X113802286Y-78371442D01*
X138622500Y-78371442D01*
X138622500Y-78570557D01*
X138654062Y-78646754D01*
X138698697Y-78754510D01*
X138698698Y-78754511D01*
X138698699Y-78754513D01*
X138839487Y-78895301D01*
X138839488Y-78895301D01*
X138839490Y-78895303D01*
X139023444Y-78971500D01*
X139023446Y-78971500D01*
X139222554Y-78971500D01*
X139222556Y-78971500D01*
X139406510Y-78895303D01*
X139406512Y-78895301D01*
X139406513Y-78895301D01*
X139547301Y-78754513D01*
X139547301Y-78754512D01*
X139547303Y-78754510D01*
X139623500Y-78570556D01*
X139623500Y-78371444D01*
X139547303Y-78187490D01*
X139547301Y-78187488D01*
X139547301Y-78187487D01*
X139406513Y-78046699D01*
X139406511Y-78046698D01*
X139406510Y-78046697D01*
X139258769Y-77985500D01*
X139222557Y-77970500D01*
X139222556Y-77970500D01*
X139023444Y-77970500D01*
X139023442Y-77970500D01*
X138839488Y-78046698D01*
X138698698Y-78187488D01*
X138622500Y-78371442D01*
X113802286Y-78371442D01*
X113732303Y-78202490D01*
X113732301Y-78202488D01*
X113732301Y-78202487D01*
X113591513Y-78061699D01*
X113591511Y-78061698D01*
X113591510Y-78061697D01*
X113483754Y-78017062D01*
X113407557Y-77985500D01*
X113407556Y-77985500D01*
X113208444Y-77985500D01*
X113208442Y-77985500D01*
X113024488Y-78061698D01*
X112883698Y-78202488D01*
X112883697Y-78202489D01*
X112883697Y-78202490D01*
X112870625Y-78234048D01*
X112807500Y-78386442D01*
X101409306Y-78386442D01*
X102609306Y-77186442D01*
X112807500Y-77186442D01*
X112807500Y-77385557D01*
X112813896Y-77400998D01*
X112883697Y-77569510D01*
X112883698Y-77569511D01*
X112883699Y-77569513D01*
X113024487Y-77710301D01*
X113024488Y-77710301D01*
X113024490Y-77710303D01*
X113208444Y-77786500D01*
X113208446Y-77786500D01*
X113407554Y-77786500D01*
X113407556Y-77786500D01*
X113591510Y-77710303D01*
X113591512Y-77710301D01*
X113591513Y-77710301D01*
X113732301Y-77569513D01*
X113732301Y-77569512D01*
X113732303Y-77569510D01*
X113808500Y-77385556D01*
X113808500Y-77186444D01*
X113802286Y-77171442D01*
X138622500Y-77171442D01*
X138622500Y-77370557D01*
X138635110Y-77401000D01*
X138698697Y-77554510D01*
X138698698Y-77554511D01*
X138698699Y-77554513D01*
X138839487Y-77695301D01*
X138839488Y-77695301D01*
X138839490Y-77695303D01*
X139023444Y-77771500D01*
X139023446Y-77771500D01*
X139222554Y-77771500D01*
X139222556Y-77771500D01*
X139406510Y-77695303D01*
X139406512Y-77695301D01*
X139406513Y-77695301D01*
X139547301Y-77554513D01*
X139547301Y-77554512D01*
X139547303Y-77554510D01*
X139623500Y-77370556D01*
X139623500Y-77171444D01*
X139547303Y-76987490D01*
X139547301Y-76987488D01*
X139547301Y-76987487D01*
X139406513Y-76846699D01*
X139406511Y-76846698D01*
X139406510Y-76846697D01*
X139258769Y-76785500D01*
X139222557Y-76770500D01*
X139222556Y-76770500D01*
X139023444Y-76770500D01*
X139023442Y-76770500D01*
X138839488Y-76846698D01*
X138698698Y-76987488D01*
X138622500Y-77171442D01*
X113802286Y-77171442D01*
X113732303Y-77002490D01*
X113732301Y-77002488D01*
X113732301Y-77002487D01*
X113591513Y-76861699D01*
X113591511Y-76861698D01*
X113591510Y-76861697D01*
X113483754Y-76817062D01*
X113407557Y-76785500D01*
X113407556Y-76785500D01*
X113208444Y-76785500D01*
X113208442Y-76785500D01*
X113067540Y-76843865D01*
X113029167Y-76859760D01*
X113024488Y-76861698D01*
X112883698Y-77002488D01*
X112807500Y-77186442D01*
X102609306Y-77186442D01*
X103909306Y-75886442D01*
X112807500Y-75886442D01*
X112807500Y-76085557D01*
X112826119Y-76130505D01*
X112883697Y-76269510D01*
X112883698Y-76269511D01*
X112883699Y-76269513D01*
X113024487Y-76410301D01*
X113024488Y-76410301D01*
X113024490Y-76410303D01*
X113208444Y-76486500D01*
X113208446Y-76486500D01*
X113407554Y-76486500D01*
X113407556Y-76486500D01*
X113591510Y-76410303D01*
X113591512Y-76410301D01*
X113591513Y-76410301D01*
X113732301Y-76269513D01*
X113732301Y-76269512D01*
X113732303Y-76269510D01*
X113808500Y-76085556D01*
X113808500Y-75886444D01*
X113802286Y-75871442D01*
X138622500Y-75871442D01*
X138622500Y-76070557D01*
X138639473Y-76111532D01*
X138698697Y-76254510D01*
X138698698Y-76254511D01*
X138698699Y-76254513D01*
X138839487Y-76395301D01*
X138839488Y-76395301D01*
X138839490Y-76395303D01*
X139023444Y-76471500D01*
X139023446Y-76471500D01*
X139222554Y-76471500D01*
X139222556Y-76471500D01*
X139406510Y-76395303D01*
X139406512Y-76395301D01*
X139406513Y-76395301D01*
X139547301Y-76254513D01*
X139547301Y-76254512D01*
X139547303Y-76254510D01*
X139623500Y-76070556D01*
X139623500Y-75871444D01*
X139547303Y-75687490D01*
X139547301Y-75687488D01*
X139547301Y-75687487D01*
X139406513Y-75546699D01*
X139406511Y-75546698D01*
X139406510Y-75546697D01*
X139258769Y-75485500D01*
X139222557Y-75470500D01*
X139222556Y-75470500D01*
X139023444Y-75470500D01*
X139023442Y-75470500D01*
X138839488Y-75546698D01*
X138698698Y-75687488D01*
X138622500Y-75871442D01*
X113802286Y-75871442D01*
X113732303Y-75702490D01*
X113732301Y-75702488D01*
X113732301Y-75702487D01*
X113591513Y-75561699D01*
X113591511Y-75561698D01*
X113591510Y-75561697D01*
X113483754Y-75517062D01*
X113407557Y-75485500D01*
X113407556Y-75485500D01*
X113208444Y-75485500D01*
X113208442Y-75485500D01*
X113024488Y-75561698D01*
X112883698Y-75702488D01*
X112807500Y-75886442D01*
X103909306Y-75886442D01*
X105209306Y-74586442D01*
X112807500Y-74586442D01*
X112807500Y-74586444D01*
X112807500Y-74785556D01*
X112883697Y-74969510D01*
X112883698Y-74969511D01*
X112883699Y-74969513D01*
X113024487Y-75110301D01*
X113024488Y-75110301D01*
X113024490Y-75110303D01*
X113208444Y-75186500D01*
X113208446Y-75186500D01*
X113407554Y-75186500D01*
X113407556Y-75186500D01*
X113591510Y-75110303D01*
X113591512Y-75110301D01*
X113591513Y-75110301D01*
X113732301Y-74969513D01*
X113732301Y-74969512D01*
X113732303Y-74969510D01*
X113808500Y-74785556D01*
X113808500Y-74586444D01*
X113802286Y-74571442D01*
X138622500Y-74571442D01*
X138622500Y-74770557D01*
X138645891Y-74827027D01*
X138698697Y-74954510D01*
X138698698Y-74954511D01*
X138698699Y-74954513D01*
X138839487Y-75095301D01*
X138839488Y-75095301D01*
X138839490Y-75095303D01*
X139023444Y-75171500D01*
X139023446Y-75171500D01*
X139222554Y-75171500D01*
X139222556Y-75171500D01*
X139406510Y-75095303D01*
X139406512Y-75095301D01*
X139406513Y-75095301D01*
X139547301Y-74954513D01*
X139547301Y-74954512D01*
X139547303Y-74954510D01*
X139623500Y-74770556D01*
X139623500Y-74571444D01*
X139547303Y-74387490D01*
X139547301Y-74387488D01*
X139547301Y-74387487D01*
X139406513Y-74246699D01*
X139406511Y-74246698D01*
X139406510Y-74246697D01*
X139258769Y-74185500D01*
X139222557Y-74170500D01*
X139222556Y-74170500D01*
X139023444Y-74170500D01*
X139023442Y-74170500D01*
X138839488Y-74246698D01*
X138698698Y-74387488D01*
X138622500Y-74571442D01*
X113802286Y-74571442D01*
X113732303Y-74402490D01*
X113732301Y-74402488D01*
X113732301Y-74402487D01*
X113591513Y-74261699D01*
X113591511Y-74261698D01*
X113591510Y-74261697D01*
X113483754Y-74217062D01*
X113407557Y-74185500D01*
X113407556Y-74185500D01*
X113208444Y-74185500D01*
X113208442Y-74185500D01*
X113024488Y-74261698D01*
X112883698Y-74402488D01*
X112807500Y-74586442D01*
X105209306Y-74586442D01*
X106409306Y-73386442D01*
X112807500Y-73386442D01*
X112807500Y-73386444D01*
X112807500Y-73585556D01*
X112883697Y-73769510D01*
X112883698Y-73769511D01*
X112883699Y-73769513D01*
X113024487Y-73910301D01*
X113024488Y-73910301D01*
X113024490Y-73910303D01*
X113208444Y-73986500D01*
X113208446Y-73986500D01*
X113407554Y-73986500D01*
X113407556Y-73986500D01*
X113591510Y-73910303D01*
X113591512Y-73910301D01*
X113591513Y-73910301D01*
X113732301Y-73769513D01*
X113732301Y-73769512D01*
X113732303Y-73769510D01*
X113808500Y-73585556D01*
X113808500Y-73386444D01*
X113802286Y-73371442D01*
X138622500Y-73371442D01*
X138622500Y-73371444D01*
X138622500Y-73570556D01*
X138698697Y-73754510D01*
X138698698Y-73754511D01*
X138698699Y-73754513D01*
X138839487Y-73895301D01*
X138839488Y-73895301D01*
X138839490Y-73895303D01*
X139023444Y-73971500D01*
X139023446Y-73971500D01*
X139222554Y-73971500D01*
X139222556Y-73971500D01*
X139406510Y-73895303D01*
X139406512Y-73895301D01*
X139406513Y-73895301D01*
X139547301Y-73754513D01*
X139547301Y-73754512D01*
X139547303Y-73754510D01*
X139623500Y-73570556D01*
X139623500Y-73371444D01*
X139547303Y-73187490D01*
X139547301Y-73187488D01*
X139547301Y-73187487D01*
X139406513Y-73046699D01*
X139406511Y-73046698D01*
X139406510Y-73046697D01*
X139258769Y-72985500D01*
X139222557Y-72970500D01*
X139222556Y-72970500D01*
X139023444Y-72970500D01*
X139023442Y-72970500D01*
X138839488Y-73046698D01*
X138698698Y-73187488D01*
X138622500Y-73371442D01*
X113802286Y-73371442D01*
X113732303Y-73202490D01*
X113732301Y-73202488D01*
X113732301Y-73202487D01*
X113591513Y-73061699D01*
X113591511Y-73061698D01*
X113591510Y-73061697D01*
X113448979Y-73002658D01*
X113407557Y-72985500D01*
X113407556Y-72985500D01*
X113208444Y-72985500D01*
X113208442Y-72985500D01*
X113024488Y-73061698D01*
X112883698Y-73202488D01*
X112807500Y-73386442D01*
X106409306Y-73386442D01*
X107709306Y-72086442D01*
X112807500Y-72086442D01*
X112807500Y-72086444D01*
X112807500Y-72285556D01*
X112883697Y-72469510D01*
X112883698Y-72469511D01*
X112883699Y-72469513D01*
X113024487Y-72610301D01*
X113024488Y-72610301D01*
X113024490Y-72610303D01*
X113208444Y-72686500D01*
X113208446Y-72686500D01*
X113407554Y-72686500D01*
X113407556Y-72686500D01*
X113591510Y-72610303D01*
X113591512Y-72610301D01*
X113591513Y-72610301D01*
X113732301Y-72469513D01*
X113732301Y-72469512D01*
X113732303Y-72469510D01*
X113808500Y-72285556D01*
X113808500Y-72086444D01*
X113802286Y-72071442D01*
X138622500Y-72071442D01*
X138622500Y-72270557D01*
X138654062Y-72346754D01*
X138698697Y-72454510D01*
X138698698Y-72454511D01*
X138698699Y-72454513D01*
X138839487Y-72595301D01*
X138839488Y-72595301D01*
X138839490Y-72595303D01*
X139023444Y-72671500D01*
X139023446Y-72671500D01*
X139222554Y-72671500D01*
X139222556Y-72671500D01*
X139406510Y-72595303D01*
X139406512Y-72595301D01*
X139406513Y-72595301D01*
X139547301Y-72454513D01*
X139547301Y-72454512D01*
X139547303Y-72454510D01*
X139623500Y-72270556D01*
X139623500Y-72071444D01*
X139547303Y-71887490D01*
X139547301Y-71887488D01*
X139547301Y-71887487D01*
X139406513Y-71746699D01*
X139406511Y-71746698D01*
X139406510Y-71746697D01*
X139258769Y-71685500D01*
X139222557Y-71670500D01*
X139222556Y-71670500D01*
X139023444Y-71670500D01*
X139023442Y-71670500D01*
X138921198Y-71712852D01*
X138846364Y-71743850D01*
X138839488Y-71746698D01*
X138698698Y-71887488D01*
X138622500Y-72071442D01*
X113802286Y-72071442D01*
X113732303Y-71902490D01*
X113732301Y-71902488D01*
X113732301Y-71902487D01*
X113591513Y-71761699D01*
X113591511Y-71761698D01*
X113591510Y-71761697D01*
X113473589Y-71712852D01*
X113407557Y-71685500D01*
X113407556Y-71685500D01*
X113208444Y-71685500D01*
X113208442Y-71685500D01*
X113024488Y-71761698D01*
X112883698Y-71902488D01*
X112807500Y-72086442D01*
X107709306Y-72086442D01*
X109009306Y-70786442D01*
X112807500Y-70786442D01*
X112807500Y-70786444D01*
X112807500Y-70985556D01*
X112883697Y-71169510D01*
X112883698Y-71169511D01*
X112883699Y-71169513D01*
X113024487Y-71310301D01*
X113024488Y-71310301D01*
X113024490Y-71310303D01*
X113208444Y-71386500D01*
X113208446Y-71386500D01*
X113407554Y-71386500D01*
X113407556Y-71386500D01*
X113591510Y-71310303D01*
X113591512Y-71310301D01*
X113591513Y-71310301D01*
X113732301Y-71169513D01*
X113732301Y-71169512D01*
X113732303Y-71169510D01*
X113808500Y-70985556D01*
X113808500Y-70786444D01*
X113802286Y-70771442D01*
X138622500Y-70771442D01*
X138622500Y-70970557D01*
X138654062Y-71046754D01*
X138698697Y-71154510D01*
X138698698Y-71154511D01*
X138698699Y-71154513D01*
X138839487Y-71295301D01*
X138839488Y-71295301D01*
X138839490Y-71295303D01*
X139023444Y-71371500D01*
X139023446Y-71371500D01*
X139222554Y-71371500D01*
X139222556Y-71371500D01*
X139406510Y-71295303D01*
X139406512Y-71295301D01*
X139406513Y-71295301D01*
X139547301Y-71154513D01*
X139547301Y-71154512D01*
X139547303Y-71154510D01*
X139623500Y-70970556D01*
X139623500Y-70771444D01*
X139547303Y-70587490D01*
X139547301Y-70587488D01*
X139547301Y-70587487D01*
X139406513Y-70446699D01*
X139406511Y-70446698D01*
X139406510Y-70446697D01*
X139258769Y-70385500D01*
X139222557Y-70370500D01*
X139222556Y-70370500D01*
X139023444Y-70370500D01*
X139023442Y-70370500D01*
X138839488Y-70446698D01*
X138698698Y-70587488D01*
X138622500Y-70771442D01*
X113802286Y-70771442D01*
X113732303Y-70602490D01*
X113732301Y-70602488D01*
X113732301Y-70602487D01*
X113591513Y-70461699D01*
X113591511Y-70461698D01*
X113591510Y-70461697D01*
X113483754Y-70417062D01*
X113407557Y-70385500D01*
X113407556Y-70385500D01*
X113208444Y-70385500D01*
X113208442Y-70385500D01*
X113024488Y-70461698D01*
X112883698Y-70602488D01*
X112807500Y-70786442D01*
X109009306Y-70786442D01*
X110309306Y-69486442D01*
X112807500Y-69486442D01*
X112807500Y-69685557D01*
X112839062Y-69761754D01*
X112883697Y-69869510D01*
X112883698Y-69869511D01*
X112883699Y-69869513D01*
X113024487Y-70010301D01*
X113024488Y-70010301D01*
X113024490Y-70010303D01*
X113208444Y-70086500D01*
X113208446Y-70086500D01*
X113407554Y-70086500D01*
X113407556Y-70086500D01*
X113591510Y-70010303D01*
X113591512Y-70010301D01*
X113591513Y-70010301D01*
X113732301Y-69869513D01*
X113732301Y-69869512D01*
X113732303Y-69869510D01*
X113808500Y-69685556D01*
X113808500Y-69486444D01*
X113802286Y-69471442D01*
X138622500Y-69471442D01*
X138622500Y-69670557D01*
X138635336Y-69701544D01*
X138698697Y-69854510D01*
X138698698Y-69854511D01*
X138698699Y-69854513D01*
X138839487Y-69995301D01*
X138839488Y-69995301D01*
X138839490Y-69995303D01*
X139023444Y-70071500D01*
X139023446Y-70071500D01*
X139222554Y-70071500D01*
X139222556Y-70071500D01*
X139406510Y-69995303D01*
X139406512Y-69995301D01*
X139406513Y-69995301D01*
X139547301Y-69854513D01*
X139547301Y-69854512D01*
X139547303Y-69854510D01*
X139623500Y-69670556D01*
X139623500Y-69471444D01*
X139547303Y-69287490D01*
X139547301Y-69287488D01*
X139547301Y-69287487D01*
X139446256Y-69186442D01*
X157307500Y-69186442D01*
X157307500Y-69385557D01*
X157339062Y-69461754D01*
X157383697Y-69569510D01*
X157383698Y-69569511D01*
X157383699Y-69569513D01*
X157524487Y-69710301D01*
X157524488Y-69710301D01*
X157524490Y-69710303D01*
X157708444Y-69786500D01*
X157708446Y-69786500D01*
X157907554Y-69786500D01*
X157907556Y-69786500D01*
X158091510Y-69710303D01*
X158091512Y-69710301D01*
X158091513Y-69710301D01*
X158232301Y-69569513D01*
X158232301Y-69569512D01*
X158232303Y-69569510D01*
X158308500Y-69385556D01*
X158308500Y-69186444D01*
X158232303Y-69002490D01*
X158232301Y-69002488D01*
X158232301Y-69002487D01*
X158091513Y-68861699D01*
X158091511Y-68861698D01*
X158091510Y-68861697D01*
X157967435Y-68810303D01*
X157907557Y-68785500D01*
X157907556Y-68785500D01*
X157708444Y-68785500D01*
X157708442Y-68785500D01*
X157524488Y-68861698D01*
X157383698Y-69002488D01*
X157307500Y-69186442D01*
X139446256Y-69186442D01*
X139406513Y-69146699D01*
X139406511Y-69146698D01*
X139406510Y-69146697D01*
X139278669Y-69093743D01*
X139222557Y-69070500D01*
X139222556Y-69070500D01*
X139023444Y-69070500D01*
X139023442Y-69070500D01*
X138839488Y-69146698D01*
X138698698Y-69287488D01*
X138622500Y-69471442D01*
X113802286Y-69471442D01*
X113732303Y-69302490D01*
X113732301Y-69302488D01*
X113732301Y-69302487D01*
X113591513Y-69161699D01*
X113591511Y-69161698D01*
X113591510Y-69161697D01*
X113483754Y-69117062D01*
X113407557Y-69085500D01*
X113407556Y-69085500D01*
X113208444Y-69085500D01*
X113208442Y-69085500D01*
X113024488Y-69161698D01*
X112883698Y-69302488D01*
X112807500Y-69486442D01*
X110309306Y-69486442D01*
X111509306Y-68286442D01*
X112807500Y-68286442D01*
X112807500Y-68485557D01*
X112807891Y-68486500D01*
X112883697Y-68669510D01*
X112883698Y-68669511D01*
X112883699Y-68669513D01*
X113024487Y-68810301D01*
X113024488Y-68810301D01*
X113024490Y-68810303D01*
X113208444Y-68886500D01*
X113208446Y-68886500D01*
X113407554Y-68886500D01*
X113407556Y-68886500D01*
X113591510Y-68810303D01*
X113591512Y-68810301D01*
X113591513Y-68810301D01*
X113732301Y-68669513D01*
X113732301Y-68669512D01*
X113732303Y-68669510D01*
X113808500Y-68485556D01*
X113808500Y-68286444D01*
X113802286Y-68271442D01*
X138707500Y-68271442D01*
X138707500Y-68470557D01*
X138714104Y-68486499D01*
X138783697Y-68654510D01*
X138783698Y-68654511D01*
X138783699Y-68654513D01*
X138924487Y-68795301D01*
X138924488Y-68795301D01*
X138924490Y-68795303D01*
X139108444Y-68871500D01*
X139108446Y-68871500D01*
X139307554Y-68871500D01*
X139307556Y-68871500D01*
X139491510Y-68795303D01*
X139491512Y-68795301D01*
X139491513Y-68795301D01*
X139632301Y-68654513D01*
X139632301Y-68654512D01*
X139632303Y-68654510D01*
X139708500Y-68470556D01*
X139708500Y-68271444D01*
X139632303Y-68087490D01*
X139632301Y-68087488D01*
X139632301Y-68087487D01*
X139491513Y-67946699D01*
X139491511Y-67946698D01*
X139491510Y-67946697D01*
X139343769Y-67885500D01*
X139307557Y-67870500D01*
X139307556Y-67870500D01*
X139108444Y-67870500D01*
X139108442Y-67870500D01*
X138924488Y-67946698D01*
X138783698Y-68087488D01*
X138707500Y-68271442D01*
X113802286Y-68271442D01*
X113732303Y-68102490D01*
X113732301Y-68102488D01*
X113732301Y-68102487D01*
X113591513Y-67961699D01*
X113591511Y-67961698D01*
X113591510Y-67961697D01*
X113483754Y-67917062D01*
X113407557Y-67885500D01*
X113407556Y-67885500D01*
X113208444Y-67885500D01*
X113208442Y-67885500D01*
X113024488Y-67961698D01*
X112883698Y-68102488D01*
X112807500Y-68286442D01*
X111509306Y-68286442D01*
X112328305Y-67467443D01*
X140007500Y-67467443D01*
X140007500Y-67704556D01*
X140068867Y-67933578D01*
X140068868Y-67933582D01*
X140157728Y-68087490D01*
X140187421Y-68138920D01*
X140355080Y-68306579D01*
X140409946Y-68338256D01*
X140560417Y-68425131D01*
X140560419Y-68425131D01*
X140560420Y-68425132D01*
X140686570Y-68458934D01*
X140789443Y-68486499D01*
X140789444Y-68486500D01*
X140789447Y-68486500D01*
X141026556Y-68486500D01*
X141026556Y-68486499D01*
X141255580Y-68425132D01*
X141460920Y-68306579D01*
X141628579Y-68138920D01*
X141747132Y-67933580D01*
X141808499Y-67704556D01*
X141808500Y-67704556D01*
X141808500Y-67467444D01*
X141808499Y-67467443D01*
X141768732Y-67319033D01*
X141747132Y-67238420D01*
X141747131Y-67238419D01*
X141747131Y-67238417D01*
X141647410Y-67065696D01*
X141628579Y-67033080D01*
X141460920Y-66865421D01*
X141255582Y-66746868D01*
X141255578Y-66746867D01*
X141026556Y-66685500D01*
X141026553Y-66685500D01*
X140789447Y-66685500D01*
X140789444Y-66685500D01*
X140560421Y-66746867D01*
X140560417Y-66746868D01*
X140355079Y-66865421D01*
X140355079Y-66865422D01*
X140187422Y-67033079D01*
X140187421Y-67033079D01*
X140068868Y-67238417D01*
X140068867Y-67238421D01*
X140007500Y-67467443D01*
X112328305Y-67467443D01*
X113669896Y-66125852D01*
X113704544Y-66111500D01*
X118053377Y-66111500D01*
X118088025Y-66125852D01*
X118223544Y-66261372D01*
X118223545Y-66261372D01*
X118223547Y-66261374D01*
X118472998Y-66364700D01*
X118473000Y-66364700D01*
X118743000Y-66364700D01*
X118743002Y-66364700D01*
X118992453Y-66261374D01*
X118992455Y-66261372D01*
X118992456Y-66261372D01*
X119183372Y-66070456D01*
X119183372Y-66070455D01*
X119183374Y-66070453D01*
X119286700Y-65821002D01*
X119286700Y-65550998D01*
X119268187Y-65506304D01*
X119238381Y-65434344D01*
X119232612Y-65420417D01*
X127771748Y-65420417D01*
X127771748Y-65420419D01*
X127771748Y-65686485D01*
X127771748Y-65686487D01*
X127771749Y-65686488D01*
X127873566Y-65932297D01*
X127873568Y-65932300D01*
X128061700Y-66120432D01*
X128061702Y-66120433D01*
X128061703Y-66120434D01*
X128307515Y-66222252D01*
X128307517Y-66222252D01*
X128573579Y-66222252D01*
X128573581Y-66222252D01*
X128819393Y-66120434D01*
X128819394Y-66120432D01*
X128819396Y-66120432D01*
X129007528Y-65932300D01*
X129007528Y-65932298D01*
X129007530Y-65932297D01*
X129109348Y-65686485D01*
X129109348Y-65420419D01*
X129007530Y-65174607D01*
X129007529Y-65174606D01*
X129007528Y-65174604D01*
X128819396Y-64986472D01*
X128819393Y-64986470D01*
X128573584Y-64884653D01*
X128573582Y-64884652D01*
X128573581Y-64884652D01*
X128307515Y-64884652D01*
X128307513Y-64884652D01*
X128307511Y-64884653D01*
X128061702Y-64986470D01*
X127873566Y-65174606D01*
X127771749Y-65420415D01*
X127771748Y-65420417D01*
X119232612Y-65420417D01*
X119214566Y-65376852D01*
X119183374Y-65301547D01*
X119183372Y-65301545D01*
X119183372Y-65301544D01*
X118992456Y-65110628D01*
X118992454Y-65110627D01*
X118992453Y-65110626D01*
X118828714Y-65042803D01*
X118743003Y-65007300D01*
X118743002Y-65007300D01*
X118472998Y-65007300D01*
X118472996Y-65007300D01*
X118223545Y-65110627D01*
X118223544Y-65110627D01*
X118088025Y-65246148D01*
X118053377Y-65260500D01*
X113423361Y-65260500D01*
X113324268Y-65301547D01*
X113266971Y-65325280D01*
X113266970Y-65325280D01*
X95846104Y-82746148D01*
X95811456Y-82760500D01*
X85560830Y-82760500D01*
X85526182Y-82746148D01*
X85511830Y-82711500D01*
X85515559Y-82692751D01*
X85586700Y-82521002D01*
X85586700Y-82250998D01*
X85483374Y-82001547D01*
X85483372Y-82001545D01*
X85483372Y-82001544D01*
X85292456Y-81810628D01*
X85292454Y-81810627D01*
X85292453Y-81810626D01*
X85114772Y-81737028D01*
X85043003Y-81707300D01*
X85043002Y-81707300D01*
X84772998Y-81707300D01*
X84772996Y-81707300D01*
X84566344Y-81792898D01*
X84536227Y-81805374D01*
X84523545Y-81810627D01*
X84332627Y-82001545D01*
X84229300Y-82250996D01*
X84229300Y-82250998D01*
X84229300Y-82521002D01*
X84300440Y-82692749D01*
X84300440Y-82730251D01*
X84273922Y-82756770D01*
X84255170Y-82760500D01*
X80591963Y-82760500D01*
X80591961Y-82760500D01*
X80591958Y-82760501D01*
X80481377Y-82806304D01*
X80481378Y-82806305D01*
X80435571Y-82825279D01*
X80223904Y-83036948D01*
X80189256Y-83051300D01*
X79997596Y-83051300D01*
X79748145Y-83154627D01*
X79557227Y-83345545D01*
X79453900Y-83594996D01*
X69508744Y-83594996D01*
X68264744Y-82350996D01*
X72929300Y-82350996D01*
X72929300Y-82621003D01*
X72972099Y-82724329D01*
X73032626Y-82870453D01*
X73032627Y-82870454D01*
X73032628Y-82870456D01*
X73223544Y-83061372D01*
X73223545Y-83061372D01*
X73223547Y-83061374D01*
X73472998Y-83164700D01*
X73473000Y-83164700D01*
X73743000Y-83164700D01*
X73743002Y-83164700D01*
X73992453Y-83061374D01*
X73992455Y-83061372D01*
X73992456Y-83061372D01*
X74183372Y-82870456D01*
X74183372Y-82870455D01*
X74183374Y-82870453D01*
X74286700Y-82621002D01*
X74286700Y-82350998D01*
X74183374Y-82101547D01*
X74183372Y-82101545D01*
X74183372Y-82101544D01*
X73992456Y-81910628D01*
X73992454Y-81910627D01*
X73992453Y-81910626D01*
X73751037Y-81810628D01*
X73743003Y-81807300D01*
X73743002Y-81807300D01*
X73472998Y-81807300D01*
X73472996Y-81807300D01*
X73323920Y-81869050D01*
X73228200Y-81908699D01*
X73223545Y-81910627D01*
X73032627Y-82101545D01*
X72929300Y-82350996D01*
X68264744Y-82350996D01*
X67247852Y-81334104D01*
X67233500Y-81299456D01*
X67233500Y-79635995D01*
X69571000Y-79635995D01*
X69571000Y-79876004D01*
X69633116Y-80107824D01*
X69633117Y-80107828D01*
X69727614Y-80271499D01*
X69753119Y-80315674D01*
X69922826Y-80485381D01*
X69961324Y-80507608D01*
X70130671Y-80605382D01*
X70130673Y-80605382D01*
X70130674Y-80605383D01*
X70297427Y-80650064D01*
X70362495Y-80667499D01*
X70362496Y-80667500D01*
X70362499Y-80667500D01*
X70602504Y-80667500D01*
X70602504Y-80667499D01*
X70834326Y-80605383D01*
X71042174Y-80485381D01*
X71211881Y-80315674D01*
X71331883Y-80107826D01*
X71393999Y-79876004D01*
X71394000Y-79876004D01*
X71394000Y-79635996D01*
X71393999Y-79635995D01*
X71380873Y-79587008D01*
X71331883Y-79404174D01*
X71331882Y-79404173D01*
X71331882Y-79404171D01*
X71211880Y-79196325D01*
X71042174Y-79026619D01*
X70834328Y-78906617D01*
X70834324Y-78906616D01*
X70602504Y-78844500D01*
X70602501Y-78844500D01*
X70362499Y-78844500D01*
X70362496Y-78844500D01*
X70130675Y-78906616D01*
X70130671Y-78906617D01*
X69922825Y-79026619D01*
X69922825Y-79026620D01*
X69753120Y-79196325D01*
X69753119Y-79196325D01*
X69633117Y-79404171D01*
X69633116Y-79404175D01*
X69571000Y-79635995D01*
X67233500Y-79635995D01*
X67233500Y-77914351D01*
X67247852Y-77879703D01*
X67282500Y-77865351D01*
X67317148Y-77879703D01*
X67382826Y-77945381D01*
X67426333Y-77970500D01*
X67590671Y-78065382D01*
X67590673Y-78065382D01*
X67590674Y-78065383D01*
X67762308Y-78111372D01*
X67822495Y-78127499D01*
X67822496Y-78127500D01*
X67822499Y-78127500D01*
X68062504Y-78127500D01*
X68062504Y-78127499D01*
X68294326Y-78065383D01*
X68502174Y-77945381D01*
X68671881Y-77775674D01*
X68791883Y-77567826D01*
X68853999Y-77336004D01*
X68854000Y-77336004D01*
X68854000Y-77095996D01*
X68853999Y-77095995D01*
X68793566Y-76870456D01*
X68791883Y-76864174D01*
X68791882Y-76864173D01*
X68791882Y-76864171D01*
X68671880Y-76656325D01*
X68502174Y-76486619D01*
X68294328Y-76366617D01*
X68294324Y-76366616D01*
X68062504Y-76304500D01*
X68062501Y-76304500D01*
X67822499Y-76304500D01*
X67822496Y-76304500D01*
X67590675Y-76366616D01*
X67590671Y-76366617D01*
X67382825Y-76486619D01*
X67382825Y-76486620D01*
X67317148Y-76552297D01*
X67282500Y-76566649D01*
X67247852Y-76552297D01*
X67233500Y-76517649D01*
X67233500Y-69414351D01*
X67247852Y-69379703D01*
X67282500Y-69365351D01*
X67317148Y-69379703D01*
X67382826Y-69445381D01*
X67427965Y-69471442D01*
X67590671Y-69565382D01*
X67590673Y-69565382D01*
X67590674Y-69565383D01*
X67773508Y-69614373D01*
X67822495Y-69627499D01*
X67822496Y-69627500D01*
X67822499Y-69627500D01*
X68062504Y-69627500D01*
X68062504Y-69627499D01*
X68294326Y-69565383D01*
X68502174Y-69445381D01*
X68671881Y-69275674D01*
X68791065Y-69069243D01*
X68820818Y-69046413D01*
X68858000Y-69051308D01*
X68880830Y-69081061D01*
X68882500Y-69093743D01*
X68882500Y-74670637D01*
X68905858Y-74727027D01*
X68947279Y-74827027D01*
X68947280Y-74827028D01*
X68947280Y-74827029D01*
X71564948Y-77444696D01*
X71579300Y-77479344D01*
X71579300Y-77671003D01*
X71595578Y-77710301D01*
X71682626Y-77920453D01*
X71682627Y-77920454D01*
X71682628Y-77920456D01*
X71873544Y-78111372D01*
X71873545Y-78111372D01*
X71873547Y-78111374D01*
X72122998Y-78214700D01*
X72123000Y-78214700D01*
X72393000Y-78214700D01*
X72393002Y-78214700D01*
X72642453Y-78111374D01*
X72642455Y-78111372D01*
X72642456Y-78111372D01*
X72833372Y-77920456D01*
X72833372Y-77920455D01*
X72833374Y-77920453D01*
X72936700Y-77671002D01*
X72936700Y-77400998D01*
X72833374Y-77151547D01*
X72833372Y-77151545D01*
X72833372Y-77151544D01*
X72642456Y-76960628D01*
X72642454Y-76960627D01*
X72642453Y-76960626D01*
X72496329Y-76900099D01*
X72393003Y-76857300D01*
X72393002Y-76857300D01*
X72201344Y-76857300D01*
X72166696Y-76842948D01*
X69747852Y-74424104D01*
X69733500Y-74389456D01*
X69733500Y-71914351D01*
X69747852Y-71879703D01*
X69782500Y-71865351D01*
X69817148Y-71879703D01*
X69922826Y-71985381D01*
X69998900Y-72029303D01*
X70130671Y-72105382D01*
X70130673Y-72105382D01*
X70130674Y-72105383D01*
X70313508Y-72154373D01*
X70362495Y-72167499D01*
X70362496Y-72167500D01*
X70362499Y-72167500D01*
X70602504Y-72167500D01*
X70602504Y-72167499D01*
X70834326Y-72105383D01*
X71042174Y-71985381D01*
X71211881Y-71815674D01*
X71331883Y-71607826D01*
X71393999Y-71376004D01*
X71394000Y-71376004D01*
X71394000Y-71135996D01*
X71393999Y-71135995D01*
X71331883Y-70904175D01*
X71331882Y-70904171D01*
X71238815Y-70742977D01*
X71211881Y-70696326D01*
X71042174Y-70526619D01*
X70834328Y-70406617D01*
X70834324Y-70406616D01*
X70602504Y-70344500D01*
X70602501Y-70344500D01*
X70362499Y-70344500D01*
X70362496Y-70344500D01*
X70130675Y-70406616D01*
X70130671Y-70406617D01*
X69922825Y-70526619D01*
X69922825Y-70526620D01*
X69817148Y-70632297D01*
X69782500Y-70646649D01*
X69747852Y-70632297D01*
X69733500Y-70597649D01*
X69733500Y-69630996D01*
X73029300Y-69630996D01*
X73029300Y-69630998D01*
X73029300Y-69901002D01*
X73132626Y-70150453D01*
X73132627Y-70150454D01*
X73132628Y-70150456D01*
X73323544Y-70341372D01*
X73323545Y-70341372D01*
X73323547Y-70341374D01*
X73572998Y-70444700D01*
X73573000Y-70444700D01*
X73843000Y-70444700D01*
X73843002Y-70444700D01*
X74092453Y-70341374D01*
X74092455Y-70341372D01*
X74092456Y-70341372D01*
X74283372Y-70150456D01*
X74283372Y-70150455D01*
X74283374Y-70150453D01*
X74386700Y-69901002D01*
X74386700Y-69630998D01*
X74283374Y-69381547D01*
X74283372Y-69381545D01*
X74283372Y-69381544D01*
X74092456Y-69190628D01*
X74092454Y-69190627D01*
X74092453Y-69190626D01*
X73946329Y-69130099D01*
X73843003Y-69087300D01*
X73843002Y-69087300D01*
X73572998Y-69087300D01*
X73572996Y-69087300D01*
X73429596Y-69146699D01*
X73333639Y-69186446D01*
X73323545Y-69190627D01*
X73132627Y-69381545D01*
X73132626Y-69381546D01*
X73132626Y-69381547D01*
X73130965Y-69385557D01*
X73029300Y-69630996D01*
X69733500Y-69630996D01*
X69733500Y-64082542D01*
X69747851Y-64047895D01*
X71249086Y-62546660D01*
X72107500Y-62546660D01*
X72107500Y-62546662D01*
X72107500Y-62825338D01*
X72107500Y-62825340D01*
X72107501Y-62825341D01*
X72214144Y-63082802D01*
X72214146Y-63082805D01*
X72411195Y-63279854D01*
X72411197Y-63279855D01*
X72411198Y-63279856D01*
X72668662Y-63386500D01*
X72668664Y-63386500D01*
X72947336Y-63386500D01*
X72947338Y-63386500D01*
X73204802Y-63279856D01*
X73204803Y-63279854D01*
X73204805Y-63279854D01*
X73401854Y-63082805D01*
X73401854Y-63082803D01*
X73401856Y-63082802D01*
X73508500Y-62825338D01*
X73508500Y-62546662D01*
X73401856Y-62289198D01*
X73401855Y-62289197D01*
X73401854Y-62289195D01*
X73204805Y-62092146D01*
X73204802Y-62092144D01*
X72947341Y-61985501D01*
X72947339Y-61985500D01*
X72947338Y-61985500D01*
X72668662Y-61985500D01*
X72668660Y-61985500D01*
X72668658Y-61985501D01*
X72411197Y-62092144D01*
X72214144Y-62289197D01*
X72107501Y-62546658D01*
X72107500Y-62546660D01*
X71249086Y-62546660D01*
X74968852Y-58826893D01*
X75003500Y-58812542D01*
X75038148Y-58826894D01*
X75052500Y-58861542D01*
X75052500Y-59040556D01*
X75128697Y-59224510D01*
X75128698Y-59224511D01*
X75128699Y-59224513D01*
X75269487Y-59365301D01*
X75269488Y-59365301D01*
X75269490Y-59365303D01*
X75453444Y-59441500D01*
X75453446Y-59441500D01*
X75652554Y-59441500D01*
X75652556Y-59441500D01*
X75836510Y-59365303D01*
X75836512Y-59365301D01*
X75836513Y-59365301D01*
X75977301Y-59224513D01*
X75977301Y-59224512D01*
X75977303Y-59224510D01*
X76053500Y-59040556D01*
X76053500Y-58841444D01*
X75977303Y-58657490D01*
X75977301Y-58657488D01*
X75977301Y-58657487D01*
X75836513Y-58516699D01*
X75836511Y-58516698D01*
X75836510Y-58516697D01*
X75726186Y-58470999D01*
X75652557Y-58440500D01*
X75652556Y-58440500D01*
X75473542Y-58440500D01*
X75438894Y-58426148D01*
X75424542Y-58391500D01*
X75426637Y-58386442D01*
X76357500Y-58386442D01*
X76357500Y-58585557D01*
X76387296Y-58657490D01*
X76433697Y-58769510D01*
X76433698Y-58769511D01*
X76433699Y-58769513D01*
X76574487Y-58910301D01*
X76574488Y-58910301D01*
X76574490Y-58910303D01*
X76758444Y-58986500D01*
X76758446Y-58986500D01*
X76957554Y-58986500D01*
X76957556Y-58986500D01*
X77141510Y-58910303D01*
X77141512Y-58910301D01*
X77141513Y-58910301D01*
X77282301Y-58769513D01*
X77282301Y-58769512D01*
X77282303Y-58769510D01*
X77358500Y-58585556D01*
X77358500Y-58528521D01*
X77372852Y-58493873D01*
X77407500Y-58479521D01*
X77555045Y-58479521D01*
X77555047Y-58479521D01*
X77739001Y-58403324D01*
X77739003Y-58403322D01*
X77739004Y-58403322D01*
X77879792Y-58262534D01*
X77879792Y-58262533D01*
X77879794Y-58262531D01*
X77944588Y-58106105D01*
X77971106Y-58079589D01*
X78003509Y-58079589D01*
X78003710Y-58078579D01*
X78008442Y-58079520D01*
X78008444Y-58079521D01*
X78008446Y-58079521D01*
X78207554Y-58079521D01*
X78207556Y-58079521D01*
X78391510Y-58003324D01*
X78391512Y-58003322D01*
X78391513Y-58003322D01*
X78532301Y-57862534D01*
X78532301Y-57862533D01*
X78532303Y-57862531D01*
X78608500Y-57678577D01*
X78608500Y-57678568D01*
X78608784Y-57677145D01*
X78609597Y-57675926D01*
X78610347Y-57674118D01*
X78610706Y-57674266D01*
X78629614Y-57645959D01*
X78666395Y-57638636D01*
X78675590Y-57641424D01*
X78708444Y-57655033D01*
X78708446Y-57655033D01*
X78907554Y-57655033D01*
X78907556Y-57655033D01*
X79091510Y-57578836D01*
X79091512Y-57578834D01*
X79091513Y-57578834D01*
X79232301Y-57438046D01*
X79232301Y-57438045D01*
X79232303Y-57438043D01*
X79308500Y-57254089D01*
X79308500Y-57202256D01*
X79322852Y-57167608D01*
X79357500Y-57153256D01*
X79507554Y-57153256D01*
X79507556Y-57153256D01*
X79691510Y-57077059D01*
X79691512Y-57077057D01*
X79691513Y-57077057D01*
X79832301Y-56936269D01*
X79832301Y-56936268D01*
X79832303Y-56936266D01*
X79908500Y-56752312D01*
X79908500Y-56553200D01*
X79832303Y-56369246D01*
X79832301Y-56369244D01*
X79832301Y-56369243D01*
X79691513Y-56228455D01*
X79691511Y-56228454D01*
X79691510Y-56228453D01*
X79583754Y-56183818D01*
X79507557Y-56152256D01*
X79507556Y-56152256D01*
X79308444Y-56152256D01*
X79308442Y-56152256D01*
X79165420Y-56211499D01*
X79130770Y-56225852D01*
X79124488Y-56228454D01*
X78983698Y-56369244D01*
X78907500Y-56553198D01*
X78907500Y-56605033D01*
X78893148Y-56639681D01*
X78858500Y-56654033D01*
X78708442Y-56654033D01*
X78524488Y-56730231D01*
X78383698Y-56871021D01*
X78307499Y-57054978D01*
X78307213Y-57056418D01*
X78306397Y-57057637D01*
X78305653Y-57059436D01*
X78305295Y-57059287D01*
X78286376Y-57087599D01*
X78249593Y-57094914D01*
X78240404Y-57092126D01*
X78207560Y-57078522D01*
X78207557Y-57078521D01*
X78207556Y-57078521D01*
X78008444Y-57078521D01*
X78008442Y-57078521D01*
X77870886Y-57135500D01*
X77837368Y-57149384D01*
X77824488Y-57154719D01*
X77683698Y-57295509D01*
X77618903Y-57451934D01*
X77592384Y-57478452D01*
X77559979Y-57478453D01*
X77559779Y-57479462D01*
X77555049Y-57478521D01*
X77555047Y-57478521D01*
X77355935Y-57478521D01*
X77355933Y-57478521D01*
X77171979Y-57554719D01*
X77031189Y-57695509D01*
X76954991Y-57879463D01*
X76954991Y-57936500D01*
X76940639Y-57971148D01*
X76905991Y-57985500D01*
X76758442Y-57985500D01*
X76620253Y-58042741D01*
X76579966Y-58059429D01*
X76574488Y-58061698D01*
X76433698Y-58202488D01*
X76357500Y-58386442D01*
X75426637Y-58386442D01*
X75438894Y-58356852D01*
X75448776Y-58346970D01*
X76993257Y-56802490D01*
X78669895Y-55125852D01*
X78704543Y-55111500D01*
X81930656Y-55111500D01*
X81965304Y-55125852D01*
X81979656Y-55160500D01*
X81965304Y-55195148D01*
X72789304Y-64371148D01*
X72754656Y-64385500D01*
X72562996Y-64385500D01*
X72313545Y-64488827D01*
X72122627Y-64679745D01*
X72019300Y-64929196D01*
X72019300Y-65199203D01*
X72044690Y-65260500D01*
X72122626Y-65448653D01*
X72122627Y-65448654D01*
X72122628Y-65448656D01*
X72313544Y-65639572D01*
X72313545Y-65639572D01*
X72313547Y-65639574D01*
X72562998Y-65742900D01*
X72563000Y-65742900D01*
X72833000Y-65742900D01*
X72833002Y-65742900D01*
X73082453Y-65639574D01*
X73082455Y-65639572D01*
X73082456Y-65639572D01*
X73273372Y-65448656D01*
X73273372Y-65448655D01*
X73273374Y-65448653D01*
X73376700Y-65199202D01*
X73376700Y-65007544D01*
X73391052Y-64972896D01*
X74917288Y-63446660D01*
X75407500Y-63446660D01*
X75407500Y-63446662D01*
X75407500Y-63725338D01*
X75407500Y-63725340D01*
X75407501Y-63725341D01*
X75514144Y-63982802D01*
X75514146Y-63982805D01*
X75711195Y-64179854D01*
X75711197Y-64179855D01*
X75711198Y-64179856D01*
X75968662Y-64286500D01*
X75968664Y-64286500D01*
X76247336Y-64286500D01*
X76247338Y-64286500D01*
X76504802Y-64179856D01*
X76504803Y-64179854D01*
X76504805Y-64179854D01*
X76701854Y-63982805D01*
X76701854Y-63982803D01*
X76701856Y-63982802D01*
X76808500Y-63725338D01*
X76808500Y-63446662D01*
X76701856Y-63189198D01*
X76701855Y-63189197D01*
X76701854Y-63189195D01*
X76504805Y-62992146D01*
X76504802Y-62992144D01*
X76247341Y-62885501D01*
X76247339Y-62885500D01*
X76247338Y-62885500D01*
X75968662Y-62885500D01*
X75968660Y-62885500D01*
X75968658Y-62885501D01*
X75711197Y-62992144D01*
X75514144Y-63189197D01*
X75407501Y-63446658D01*
X75407500Y-63446660D01*
X74917288Y-63446660D01*
X75817288Y-62546660D01*
X83807500Y-62546660D01*
X83807500Y-62546662D01*
X83807500Y-62825338D01*
X83807500Y-62825340D01*
X83807501Y-62825341D01*
X83914144Y-63082802D01*
X83914146Y-63082805D01*
X84111195Y-63279854D01*
X84111197Y-63279855D01*
X84111198Y-63279856D01*
X84368662Y-63386500D01*
X84368664Y-63386500D01*
X84647336Y-63386500D01*
X84647338Y-63386500D01*
X84904802Y-63279856D01*
X84904803Y-63279854D01*
X84904805Y-63279854D01*
X85101854Y-63082805D01*
X85101854Y-63082803D01*
X85101856Y-63082802D01*
X85208500Y-62825338D01*
X85208500Y-62546662D01*
X85101856Y-62289198D01*
X85101855Y-62289197D01*
X85101854Y-62289195D01*
X84904805Y-62092146D01*
X84904802Y-62092144D01*
X84647341Y-61985501D01*
X84647339Y-61985500D01*
X84647338Y-61985500D01*
X84368662Y-61985500D01*
X84368660Y-61985500D01*
X84368658Y-61985501D01*
X84111197Y-62092144D01*
X83914144Y-62289197D01*
X83807501Y-62546658D01*
X83807500Y-62546660D01*
X75817288Y-62546660D01*
X76977506Y-61386442D01*
X79607500Y-61386442D01*
X79607500Y-61386444D01*
X79607500Y-61585556D01*
X79683697Y-61769510D01*
X79683698Y-61769511D01*
X79683699Y-61769513D01*
X79824487Y-61910301D01*
X79824488Y-61910301D01*
X79824490Y-61910303D01*
X80008444Y-61986500D01*
X80008446Y-61986500D01*
X80207554Y-61986500D01*
X80207556Y-61986500D01*
X80391510Y-61910303D01*
X80391512Y-61910301D01*
X80391513Y-61910301D01*
X80532301Y-61769513D01*
X80532301Y-61769512D01*
X80532303Y-61769510D01*
X80608500Y-61585556D01*
X80608500Y-61386444D01*
X80532303Y-61202490D01*
X80532301Y-61202488D01*
X80532301Y-61202487D01*
X80391513Y-61061699D01*
X80391511Y-61061698D01*
X80391510Y-61061697D01*
X80283754Y-61017062D01*
X80207557Y-60985500D01*
X80207556Y-60985500D01*
X80008444Y-60985500D01*
X80008442Y-60985500D01*
X79824488Y-61061698D01*
X79683698Y-61202488D01*
X79607500Y-61386442D01*
X76977506Y-61386442D01*
X79522506Y-58841442D01*
X86952500Y-58841442D01*
X86952500Y-58841444D01*
X86952500Y-59040556D01*
X87028697Y-59224510D01*
X87028698Y-59224511D01*
X87028699Y-59224513D01*
X87169487Y-59365301D01*
X87169488Y-59365301D01*
X87169490Y-59365303D01*
X87353444Y-59441500D01*
X87353446Y-59441500D01*
X87552554Y-59441500D01*
X87552556Y-59441500D01*
X87736510Y-59365303D01*
X87736512Y-59365301D01*
X87736513Y-59365301D01*
X87877301Y-59224513D01*
X87877301Y-59224512D01*
X87877303Y-59224510D01*
X87953500Y-59040556D01*
X87953500Y-58841444D01*
X87877303Y-58657490D01*
X87877301Y-58657488D01*
X87877301Y-58657487D01*
X87736513Y-58516699D01*
X87736511Y-58516698D01*
X87736510Y-58516697D01*
X87626186Y-58470999D01*
X87552557Y-58440500D01*
X87552556Y-58440500D01*
X87353444Y-58440500D01*
X87353442Y-58440500D01*
X87224591Y-58493873D01*
X87185813Y-58509936D01*
X87169488Y-58516698D01*
X87028698Y-58657488D01*
X86952500Y-58841442D01*
X79522506Y-58841442D01*
X82738096Y-55625852D01*
X82772744Y-55611500D01*
X92684256Y-55611500D01*
X92718904Y-55625852D01*
X92733256Y-55660500D01*
X92718904Y-55695148D01*
X91934838Y-56479213D01*
X91900190Y-56493565D01*
X91865542Y-56479213D01*
X91854920Y-56463317D01*
X91788303Y-56302490D01*
X91788301Y-56302488D01*
X91788301Y-56302487D01*
X91647513Y-56161699D01*
X91647511Y-56161698D01*
X91647510Y-56161697D01*
X91539754Y-56117062D01*
X91463557Y-56085500D01*
X91463556Y-56085500D01*
X91264444Y-56085500D01*
X91264442Y-56085500D01*
X91080488Y-56161698D01*
X90939698Y-56302488D01*
X90863500Y-56486442D01*
X90863500Y-56536921D01*
X90849148Y-56571569D01*
X90814500Y-56585921D01*
X90810221Y-56585500D01*
X90807556Y-56585500D01*
X90608444Y-56585500D01*
X90608442Y-56585500D01*
X90477641Y-56639681D01*
X90442993Y-56654033D01*
X90424488Y-56661698D01*
X90283698Y-56802488D01*
X90207501Y-56986441D01*
X90207500Y-56986446D01*
X90207500Y-57046585D01*
X90193148Y-57081233D01*
X90158500Y-57095585D01*
X90139749Y-57091855D01*
X90107560Y-57078522D01*
X90107557Y-57078521D01*
X90107556Y-57078521D01*
X89908444Y-57078521D01*
X89908442Y-57078521D01*
X89770886Y-57135500D01*
X89737368Y-57149384D01*
X89724488Y-57154719D01*
X89583699Y-57295508D01*
X89583697Y-57295509D01*
X89519481Y-57450538D01*
X89492962Y-57477056D01*
X89464206Y-57477060D01*
X89463729Y-57479463D01*
X89458996Y-57478521D01*
X89458995Y-57478521D01*
X89259883Y-57478521D01*
X89259881Y-57478521D01*
X89075927Y-57554719D01*
X88935137Y-57695509D01*
X88858939Y-57879463D01*
X88858939Y-57917544D01*
X88844587Y-57952192D01*
X88809939Y-57966544D01*
X88708442Y-57966544D01*
X88524488Y-58042742D01*
X88383698Y-58183532D01*
X88307500Y-58367486D01*
X88307500Y-58566601D01*
X88315352Y-58585556D01*
X88383697Y-58750554D01*
X88383698Y-58750555D01*
X88383699Y-58750557D01*
X88524487Y-58891345D01*
X88524488Y-58891345D01*
X88524490Y-58891347D01*
X88708444Y-58967544D01*
X88708446Y-58967544D01*
X88907554Y-58967544D01*
X88907556Y-58967544D01*
X89091510Y-58891347D01*
X89091512Y-58891345D01*
X89091513Y-58891345D01*
X89232301Y-58750557D01*
X89232301Y-58750556D01*
X89232303Y-58750554D01*
X89308500Y-58566600D01*
X89308500Y-58528521D01*
X89322852Y-58493873D01*
X89357500Y-58479521D01*
X89458993Y-58479521D01*
X89458995Y-58479521D01*
X89642949Y-58403324D01*
X89642951Y-58403322D01*
X89642952Y-58403322D01*
X89783740Y-58262534D01*
X89783740Y-58262533D01*
X89783742Y-58262531D01*
X89847957Y-58107502D01*
X89874476Y-58080985D01*
X89903231Y-58080985D01*
X89903710Y-58078579D01*
X89908442Y-58079520D01*
X89908444Y-58079521D01*
X89908446Y-58079521D01*
X90107554Y-58079521D01*
X90107556Y-58079521D01*
X90267441Y-58013294D01*
X90304941Y-58013294D01*
X90331460Y-58039812D01*
X90331460Y-58077315D01*
X90320838Y-58093212D01*
X84199304Y-64214748D01*
X84164656Y-64229100D01*
X83972996Y-64229100D01*
X83723545Y-64332427D01*
X83532627Y-64523345D01*
X83429300Y-64772796D01*
X83429300Y-65042803D01*
X83457394Y-65110627D01*
X83532626Y-65292253D01*
X83532627Y-65292254D01*
X83532627Y-65292255D01*
X83617225Y-65376852D01*
X83631577Y-65411500D01*
X83617225Y-65446148D01*
X83582577Y-65460500D01*
X80823363Y-65460500D01*
X80823361Y-65460500D01*
X80823358Y-65460501D01*
X80712777Y-65506304D01*
X80712778Y-65506305D01*
X80666971Y-65525279D01*
X78847279Y-67344972D01*
X78847279Y-67344974D01*
X78782500Y-67501361D01*
X78782500Y-68580341D01*
X78768148Y-68614989D01*
X78733500Y-68629341D01*
X78698852Y-68614989D01*
X78688230Y-68599093D01*
X78678557Y-68575742D01*
X78630174Y-68458934D01*
X78630172Y-68458932D01*
X78630172Y-68458931D01*
X78439256Y-68268015D01*
X78439254Y-68268014D01*
X78439253Y-68268013D01*
X78293129Y-68207486D01*
X78189803Y-68164687D01*
X78189802Y-68164687D01*
X77919798Y-68164687D01*
X77919796Y-68164687D01*
X77670345Y-68268014D01*
X77479427Y-68458932D01*
X77376100Y-68708383D01*
X77376100Y-68978390D01*
X77386082Y-69002488D01*
X77479426Y-69227840D01*
X77479427Y-69227841D01*
X77479428Y-69227843D01*
X77670344Y-69418759D01*
X77670345Y-69418759D01*
X77670347Y-69418761D01*
X77919798Y-69522087D01*
X78015300Y-69522087D01*
X78049948Y-69536439D01*
X78064300Y-69571087D01*
X78064300Y-73518123D01*
X78086019Y-73570556D01*
X78129079Y-73674513D01*
X78129080Y-73674514D01*
X78129081Y-73674516D01*
X80566097Y-76111532D01*
X80566099Y-76111533D01*
X80566100Y-76111534D01*
X80611905Y-76130507D01*
X80722490Y-76176313D01*
X84466243Y-76176313D01*
X84500891Y-76190665D01*
X84515243Y-76225313D01*
X84500891Y-76259961D01*
X80223904Y-80536948D01*
X80189256Y-80551300D01*
X79997596Y-80551300D01*
X79790944Y-80636898D01*
X79759159Y-80650065D01*
X79748145Y-80654627D01*
X79557227Y-80845545D01*
X79453900Y-81094996D01*
X79453900Y-81094998D01*
X79453900Y-81365002D01*
X79557226Y-81614453D01*
X79557227Y-81614454D01*
X79557228Y-81614456D01*
X79748144Y-81805372D01*
X79748145Y-81805372D01*
X79748147Y-81805374D01*
X79997598Y-81908700D01*
X79997600Y-81908700D01*
X80267600Y-81908700D01*
X80267602Y-81908700D01*
X80517053Y-81805374D01*
X80517055Y-81805372D01*
X80517056Y-81805372D01*
X80707972Y-81614456D01*
X80707972Y-81614455D01*
X80707974Y-81614453D01*
X80811300Y-81365002D01*
X80811300Y-81173344D01*
X80825652Y-81138696D01*
X85120483Y-76843865D01*
X85155131Y-76829513D01*
X85782927Y-76829513D01*
X85817575Y-76843865D01*
X85828196Y-76859760D01*
X85832625Y-76870451D01*
X85832628Y-76870456D01*
X86023544Y-77061372D01*
X86023545Y-77061372D01*
X86023547Y-77061374D01*
X86272998Y-77164700D01*
X86273000Y-77164700D01*
X86543000Y-77164700D01*
X86543002Y-77164700D01*
X86792453Y-77061374D01*
X86792455Y-77061372D01*
X86792456Y-77061372D01*
X86983372Y-76870456D01*
X86983372Y-76870455D01*
X86983374Y-76870453D01*
X87086700Y-76621002D01*
X87086700Y-76350998D01*
X87052947Y-76269510D01*
X87042407Y-76244064D01*
X87042407Y-76206561D01*
X87068926Y-76180043D01*
X87087677Y-76176313D01*
X100627822Y-76176313D01*
X100627824Y-76176313D01*
X100738408Y-76130507D01*
X100784214Y-76111534D01*
X113269896Y-63625852D01*
X113304544Y-63611500D01*
X151367635Y-63611500D01*
X151367637Y-63611500D01*
X151478221Y-63565694D01*
X151524027Y-63546721D01*
X156141696Y-58929052D01*
X156176344Y-58914700D01*
X156368000Y-58914700D01*
X156368002Y-58914700D01*
X156617453Y-58811374D01*
X156617455Y-58811372D01*
X156617456Y-58811372D01*
X156808372Y-58620456D01*
X156808372Y-58620455D01*
X156808374Y-58620453D01*
X156911700Y-58371002D01*
X156911700Y-58100998D01*
X156808374Y-57851547D01*
X156808372Y-57851545D01*
X156808372Y-57851544D01*
X156617456Y-57660628D01*
X156617454Y-57660627D01*
X156617453Y-57660626D01*
X156470324Y-57599683D01*
X156368003Y-57557300D01*
X156368002Y-57557300D01*
X156097998Y-57557300D01*
X156097996Y-57557300D01*
X155848545Y-57660627D01*
X155657627Y-57851545D01*
X155554300Y-58100996D01*
X155554300Y-58292656D01*
X155539948Y-58327304D01*
X151121104Y-62746148D01*
X151086456Y-62760500D01*
X113023363Y-62760500D01*
X113023361Y-62760500D01*
X113023358Y-62760501D01*
X112912777Y-62806304D01*
X112912778Y-62806305D01*
X112866971Y-62825279D01*
X100381291Y-75310961D01*
X100346643Y-75325313D01*
X81003671Y-75325313D01*
X80969023Y-75310961D01*
X78929652Y-73271590D01*
X78915300Y-73236942D01*
X78915300Y-73051658D01*
X78929652Y-73017010D01*
X78964300Y-73002658D01*
X78998948Y-73017010D01*
X80828657Y-74846720D01*
X80828659Y-74846721D01*
X80828660Y-74846722D01*
X80985049Y-74911500D01*
X81154323Y-74911500D01*
X82853377Y-74911500D01*
X82888025Y-74925852D01*
X83023544Y-75061372D01*
X83023545Y-75061372D01*
X83023547Y-75061374D01*
X83272998Y-75164700D01*
X83273000Y-75164700D01*
X83543000Y-75164700D01*
X83543002Y-75164700D01*
X83792453Y-75061374D01*
X83792455Y-75061372D01*
X83792456Y-75061372D01*
X83983372Y-74870456D01*
X83983372Y-74870455D01*
X83983374Y-74870453D01*
X84086700Y-74621002D01*
X84086700Y-74350998D01*
X83983374Y-74101547D01*
X83983372Y-74101545D01*
X83983372Y-74101544D01*
X83792456Y-73910628D01*
X83792454Y-73910627D01*
X83792453Y-73910626D01*
X83646329Y-73850099D01*
X83543003Y-73807300D01*
X83543002Y-73807300D01*
X83272998Y-73807300D01*
X83272996Y-73807300D01*
X83023545Y-73910627D01*
X83023544Y-73910627D01*
X82888025Y-74046148D01*
X82853377Y-74060500D01*
X81266230Y-74060500D01*
X81231582Y-74046148D01*
X79647852Y-72462418D01*
X79633500Y-72427770D01*
X79633500Y-71747500D01*
X79647852Y-71712852D01*
X79682500Y-71698500D01*
X79717148Y-71712852D01*
X79748147Y-71743851D01*
X79997598Y-71847177D01*
X79997600Y-71847177D01*
X80267600Y-71847177D01*
X80267602Y-71847177D01*
X80517053Y-71743851D01*
X80652575Y-71608329D01*
X80687223Y-71593977D01*
X99110158Y-71593977D01*
X99110160Y-71593977D01*
X99220744Y-71548171D01*
X99266550Y-71529198D01*
X103655552Y-67140196D01*
X103690200Y-67125844D01*
X103724848Y-67140196D01*
X103739200Y-67174844D01*
X103739200Y-67319033D01*
X103739200Y-67319035D01*
X103739201Y-67319036D01*
X103841018Y-67564845D01*
X103841020Y-67564848D01*
X104029152Y-67752980D01*
X104029154Y-67752981D01*
X104029155Y-67752982D01*
X104274967Y-67854800D01*
X104274969Y-67854800D01*
X104541031Y-67854800D01*
X104541033Y-67854800D01*
X104786845Y-67752982D01*
X104786846Y-67752980D01*
X104786848Y-67752980D01*
X104974980Y-67564848D01*
X104974980Y-67564846D01*
X104974982Y-67564845D01*
X105076800Y-67319033D01*
X105076800Y-67052967D01*
X104974982Y-66807155D01*
X104974981Y-66807154D01*
X104974980Y-66807152D01*
X104786848Y-66619020D01*
X104786845Y-66619018D01*
X104541036Y-66517201D01*
X104541034Y-66517200D01*
X104541033Y-66517200D01*
X104541031Y-66517200D01*
X104396844Y-66517200D01*
X104362196Y-66502848D01*
X104347844Y-66468200D01*
X104362196Y-66433552D01*
X109069896Y-61725852D01*
X109104544Y-61711500D01*
X148467635Y-61711500D01*
X148467637Y-61711500D01*
X148587871Y-61661697D01*
X148624027Y-61646721D01*
X151341696Y-58929052D01*
X151376344Y-58914700D01*
X151568000Y-58914700D01*
X151568002Y-58914700D01*
X151817453Y-58811374D01*
X151817455Y-58811372D01*
X151817456Y-58811372D01*
X152008372Y-58620456D01*
X152008372Y-58620455D01*
X152008374Y-58620453D01*
X152111700Y-58371002D01*
X152111700Y-58100998D01*
X152008374Y-57851547D01*
X152008372Y-57851545D01*
X152008372Y-57851544D01*
X151817456Y-57660628D01*
X151817454Y-57660627D01*
X151817453Y-57660626D01*
X151670324Y-57599683D01*
X151568003Y-57557300D01*
X151568002Y-57557300D01*
X151297998Y-57557300D01*
X151297996Y-57557300D01*
X151048545Y-57660627D01*
X150857627Y-57851545D01*
X150754300Y-58100996D01*
X150754300Y-58292656D01*
X150739948Y-58327304D01*
X148221104Y-60846148D01*
X148186456Y-60860500D01*
X108823363Y-60860500D01*
X108823361Y-60860500D01*
X108823358Y-60860501D01*
X108712777Y-60906304D01*
X108712778Y-60906305D01*
X108666971Y-60925279D01*
X98863627Y-70728625D01*
X98828979Y-70742977D01*
X85329147Y-70742977D01*
X85294499Y-70728625D01*
X85280147Y-70693977D01*
X85294499Y-70659329D01*
X85483372Y-70470456D01*
X85483372Y-70470455D01*
X85483374Y-70470453D01*
X85586700Y-70221002D01*
X85586700Y-69950998D01*
X85483374Y-69701547D01*
X85483372Y-69701545D01*
X85483372Y-69701544D01*
X85292456Y-69510628D01*
X85292454Y-69510627D01*
X85292453Y-69510626D01*
X85134935Y-69445380D01*
X85043003Y-69407300D01*
X85043002Y-69407300D01*
X84772998Y-69407300D01*
X84772996Y-69407300D01*
X84523545Y-69510627D01*
X84332627Y-69701545D01*
X84229300Y-69950996D01*
X84229300Y-69950998D01*
X84229300Y-70221002D01*
X84332626Y-70470453D01*
X84332627Y-70470454D01*
X84332628Y-70470456D01*
X84521501Y-70659329D01*
X84535853Y-70693977D01*
X84521501Y-70728625D01*
X84486853Y-70742977D01*
X80687223Y-70742977D01*
X80652575Y-70728625D01*
X80517055Y-70593104D01*
X80503494Y-70587487D01*
X80356549Y-70526620D01*
X80267603Y-70489777D01*
X80267602Y-70489777D01*
X79997598Y-70489777D01*
X79997596Y-70489777D01*
X79790944Y-70575375D01*
X79761706Y-70587487D01*
X79748145Y-70593104D01*
X79717148Y-70624101D01*
X79682500Y-70638453D01*
X79647852Y-70624101D01*
X79633500Y-70589453D01*
X79633500Y-68966261D01*
X79647852Y-68931613D01*
X79682500Y-68917261D01*
X79701247Y-68920990D01*
X79912998Y-69008700D01*
X79913000Y-69008700D01*
X80183000Y-69008700D01*
X80183002Y-69008700D01*
X80432453Y-68905374D01*
X80432455Y-68905372D01*
X80432456Y-68905372D01*
X80623372Y-68714456D01*
X80623372Y-68714455D01*
X80623374Y-68714453D01*
X80726700Y-68465002D01*
X80726700Y-68273344D01*
X80741052Y-68238696D01*
X81853896Y-67125852D01*
X81888544Y-67111500D01*
X100092635Y-67111500D01*
X100092637Y-67111500D01*
X100203221Y-67065694D01*
X100249027Y-67046721D01*
X107569896Y-59725852D01*
X107604544Y-59711500D01*
X145892635Y-59711500D01*
X145892637Y-59711500D01*
X146049026Y-59646721D01*
X146049028Y-59646719D01*
X146049029Y-59646719D01*
X146168719Y-59527029D01*
X146168719Y-59527027D01*
X146168721Y-59527026D01*
X146182669Y-59493351D01*
X146193287Y-59477459D01*
X146641696Y-59029052D01*
X146676344Y-59014700D01*
X146868000Y-59014700D01*
X146868002Y-59014700D01*
X147117453Y-58911374D01*
X147117455Y-58911372D01*
X147117456Y-58911372D01*
X147308372Y-58720456D01*
X147308372Y-58720455D01*
X147308374Y-58720453D01*
X147411700Y-58471002D01*
X147411700Y-58200998D01*
X147308374Y-57951547D01*
X147308372Y-57951545D01*
X147308372Y-57951544D01*
X147117456Y-57760628D01*
X147117454Y-57760627D01*
X147117453Y-57760626D01*
X146935554Y-57685281D01*
X146868003Y-57657300D01*
X146868002Y-57657300D01*
X146597998Y-57657300D01*
X146597996Y-57657300D01*
X146348545Y-57760627D01*
X146157627Y-57951545D01*
X146157626Y-57951546D01*
X146157626Y-57951547D01*
X146149507Y-57971148D01*
X146054300Y-58200996D01*
X146054300Y-58392656D01*
X146039948Y-58427304D01*
X145621104Y-58846148D01*
X145586456Y-58860500D01*
X107323361Y-58860500D01*
X107227329Y-58900279D01*
X107203134Y-58910301D01*
X107166971Y-58925280D01*
X104592148Y-61500103D01*
X104557500Y-61514455D01*
X104522852Y-61500103D01*
X104508500Y-61465455D01*
X104508500Y-61286446D01*
X104508499Y-61286442D01*
X104432303Y-61102490D01*
X104432301Y-61102488D01*
X104432301Y-61102487D01*
X104291513Y-60961699D01*
X104291511Y-60961698D01*
X104291510Y-60961697D01*
X104183754Y-60917062D01*
X104107557Y-60885500D01*
X104107556Y-60885500D01*
X103908444Y-60885500D01*
X103908442Y-60885500D01*
X103724488Y-60961698D01*
X103583698Y-61102488D01*
X103507500Y-61286442D01*
X103507500Y-61485557D01*
X103519470Y-61514455D01*
X103583697Y-61669510D01*
X103583698Y-61669511D01*
X103583699Y-61669513D01*
X103724487Y-61810301D01*
X103724488Y-61810301D01*
X103724490Y-61810303D01*
X103908444Y-61886500D01*
X103908446Y-61886500D01*
X104087455Y-61886500D01*
X104122103Y-61900852D01*
X104136455Y-61935500D01*
X104122103Y-61970148D01*
X99846104Y-66246148D01*
X99811456Y-66260500D01*
X96053545Y-66260500D01*
X96018897Y-66246148D01*
X96004545Y-66211500D01*
X96018897Y-66176852D01*
X98149088Y-64046660D01*
X99107500Y-64046660D01*
X99107500Y-64046662D01*
X99107500Y-64325338D01*
X99107500Y-64325340D01*
X99107501Y-64325341D01*
X99214144Y-64582802D01*
X99214146Y-64582805D01*
X99411195Y-64779854D01*
X99411197Y-64779855D01*
X99411198Y-64779856D01*
X99668662Y-64886500D01*
X99668664Y-64886500D01*
X99947336Y-64886500D01*
X99947338Y-64886500D01*
X100204802Y-64779856D01*
X100204803Y-64779854D01*
X100204805Y-64779854D01*
X100401854Y-64582805D01*
X100401854Y-64582803D01*
X100401856Y-64582802D01*
X100508500Y-64325338D01*
X100508500Y-64046662D01*
X100401856Y-63789198D01*
X100401855Y-63789197D01*
X100401854Y-63789195D01*
X100204805Y-63592146D01*
X100204802Y-63592144D01*
X99947341Y-63485501D01*
X99947339Y-63485500D01*
X99947338Y-63485500D01*
X99668662Y-63485500D01*
X99668660Y-63485500D01*
X99668658Y-63485501D01*
X99411197Y-63592144D01*
X99214144Y-63789197D01*
X99107501Y-64046658D01*
X99107500Y-64046660D01*
X98149088Y-64046660D01*
X98188560Y-64007188D01*
X99270413Y-62925335D01*
X100373459Y-61822288D01*
X100408106Y-61807937D01*
X100442754Y-61822289D01*
X100457106Y-61856937D01*
X100453376Y-61875688D01*
X100407501Y-61986440D01*
X100407500Y-61986446D01*
X100407500Y-62185557D01*
X100439062Y-62261754D01*
X100483697Y-62369510D01*
X100483698Y-62369511D01*
X100483699Y-62369513D01*
X100624487Y-62510301D01*
X100624488Y-62510301D01*
X100624490Y-62510303D01*
X100808444Y-62586500D01*
X100808446Y-62586500D01*
X101007554Y-62586500D01*
X101007556Y-62586500D01*
X101191510Y-62510303D01*
X101191512Y-62510301D01*
X101191513Y-62510301D01*
X101332301Y-62369513D01*
X101332301Y-62369512D01*
X101332303Y-62369510D01*
X101408500Y-62185556D01*
X101408500Y-61986444D01*
X101332303Y-61802490D01*
X101332301Y-61802488D01*
X101332301Y-61802487D01*
X101191513Y-61661699D01*
X101191511Y-61661698D01*
X101191510Y-61661697D01*
X101083754Y-61617062D01*
X101007557Y-61585500D01*
X101007556Y-61585500D01*
X100808444Y-61585500D01*
X100808442Y-61585500D01*
X100808440Y-61585501D01*
X100697688Y-61631376D01*
X100660185Y-61631376D01*
X100633667Y-61604857D01*
X100633667Y-61567354D01*
X100644286Y-61551461D01*
X104769896Y-57425852D01*
X104804544Y-57411500D01*
X111392635Y-57411500D01*
X111392637Y-57411500D01*
X111503221Y-57365694D01*
X111549027Y-57346721D01*
X115094895Y-53800851D01*
X115129543Y-53786500D01*
X115347336Y-53786500D01*
X115347338Y-53786500D01*
X115604802Y-53679856D01*
X115604803Y-53679854D01*
X115604805Y-53679854D01*
X115801854Y-53482805D01*
X115801854Y-53482803D01*
X115801856Y-53482802D01*
X115908500Y-53225338D01*
X115908500Y-52946662D01*
X115801856Y-52689198D01*
X115801855Y-52689197D01*
X115801854Y-52689195D01*
X115604805Y-52492146D01*
X115604802Y-52492144D01*
X115347341Y-52385501D01*
X115347339Y-52385500D01*
X115347338Y-52385500D01*
X115068662Y-52385500D01*
X115068660Y-52385500D01*
X115068658Y-52385501D01*
X114811197Y-52492144D01*
X114614144Y-52689197D01*
X114507501Y-52946658D01*
X114507500Y-52946664D01*
X114507500Y-53164456D01*
X114493148Y-53199104D01*
X111146104Y-56546148D01*
X111111456Y-56560500D01*
X104692637Y-56560500D01*
X104523363Y-56560500D01*
X104523361Y-56560500D01*
X104523359Y-56560501D01*
X104366973Y-56625278D01*
X104366971Y-56625279D01*
X95546104Y-65446148D01*
X95511456Y-65460500D01*
X84633423Y-65460500D01*
X84598775Y-65446148D01*
X84584423Y-65411500D01*
X84598775Y-65376852D01*
X84683372Y-65292255D01*
X84683374Y-65292253D01*
X84786700Y-65042802D01*
X84786700Y-64851144D01*
X84801052Y-64816496D01*
X85670888Y-63946660D01*
X87407500Y-63946660D01*
X87407500Y-63946662D01*
X87407500Y-64225338D01*
X87407500Y-64225340D01*
X87407501Y-64225341D01*
X87514144Y-64482802D01*
X87514146Y-64482805D01*
X87711195Y-64679854D01*
X87711197Y-64679855D01*
X87711198Y-64679856D01*
X87968662Y-64786500D01*
X87968664Y-64786500D01*
X88247336Y-64786500D01*
X88247338Y-64786500D01*
X88504802Y-64679856D01*
X88504803Y-64679854D01*
X88504805Y-64679854D01*
X88701854Y-64482805D01*
X88701854Y-64482803D01*
X88701856Y-64482802D01*
X88808500Y-64225338D01*
X88808500Y-63946662D01*
X88701856Y-63689198D01*
X88701855Y-63689197D01*
X88701854Y-63689195D01*
X88504805Y-63492146D01*
X88504802Y-63492144D01*
X88247341Y-63385501D01*
X88247339Y-63385500D01*
X88247338Y-63385500D01*
X87968662Y-63385500D01*
X87968660Y-63385500D01*
X87968658Y-63385501D01*
X87711197Y-63492144D01*
X87514144Y-63689197D01*
X87407501Y-63946658D01*
X87407500Y-63946660D01*
X85670888Y-63946660D01*
X86970888Y-62646660D01*
X95707500Y-62646660D01*
X95707500Y-62646662D01*
X95707500Y-62925338D01*
X95707500Y-62925340D01*
X95707501Y-62925341D01*
X95814144Y-63182802D01*
X95814146Y-63182805D01*
X96011195Y-63379854D01*
X96011197Y-63379855D01*
X96011198Y-63379856D01*
X96268662Y-63486500D01*
X96268664Y-63486500D01*
X96547336Y-63486500D01*
X96547338Y-63486500D01*
X96804802Y-63379856D01*
X96804803Y-63379854D01*
X96804805Y-63379854D01*
X97001854Y-63182805D01*
X97001854Y-63182803D01*
X97001856Y-63182802D01*
X97108500Y-62925338D01*
X97108500Y-62646662D01*
X97001856Y-62389198D01*
X97001855Y-62389197D01*
X97001854Y-62389195D01*
X96804805Y-62192146D01*
X96804802Y-62192144D01*
X96547341Y-62085501D01*
X96547339Y-62085500D01*
X96547338Y-62085500D01*
X96268662Y-62085500D01*
X96268660Y-62085500D01*
X96268658Y-62085501D01*
X96011197Y-62192144D01*
X95814144Y-62389197D01*
X95707501Y-62646658D01*
X95707500Y-62646660D01*
X86970888Y-62646660D01*
X88263979Y-61353569D01*
X91558604Y-61353569D01*
X91558604Y-61552684D01*
X91572221Y-61585557D01*
X91634801Y-61736637D01*
X91634802Y-61736638D01*
X91634803Y-61736640D01*
X91775591Y-61877428D01*
X91775592Y-61877428D01*
X91775594Y-61877430D01*
X91959548Y-61953627D01*
X91959550Y-61953627D01*
X92158658Y-61953627D01*
X92158660Y-61953627D01*
X92342614Y-61877430D01*
X92342616Y-61877428D01*
X92342617Y-61877428D01*
X92483405Y-61736640D01*
X92483405Y-61736639D01*
X92483407Y-61736637D01*
X92559604Y-61552683D01*
X92559604Y-61353571D01*
X92483407Y-61169617D01*
X92483405Y-61169615D01*
X92483405Y-61169614D01*
X92342617Y-61028826D01*
X92342615Y-61028825D01*
X92342614Y-61028824D01*
X92180562Y-60961699D01*
X92158661Y-60952627D01*
X92158660Y-60952627D01*
X91959548Y-60952627D01*
X91959546Y-60952627D01*
X91775592Y-61028825D01*
X91634802Y-61169615D01*
X91558604Y-61353569D01*
X88263979Y-61353569D01*
X90806106Y-58811442D01*
X98707500Y-58811442D01*
X98707500Y-59010557D01*
X98719927Y-59040557D01*
X98783697Y-59194510D01*
X98783698Y-59194511D01*
X98783699Y-59194513D01*
X98924487Y-59335301D01*
X98924488Y-59335301D01*
X98924490Y-59335303D01*
X99108444Y-59411500D01*
X99108446Y-59411500D01*
X99307554Y-59411500D01*
X99307556Y-59411500D01*
X99491510Y-59335303D01*
X99491512Y-59335301D01*
X99491513Y-59335301D01*
X99632301Y-59194513D01*
X99632301Y-59194512D01*
X99632303Y-59194510D01*
X99708500Y-59010556D01*
X99708500Y-58811444D01*
X99632303Y-58627490D01*
X99632301Y-58627488D01*
X99632301Y-58627487D01*
X99491513Y-58486699D01*
X99491511Y-58486698D01*
X99491510Y-58486697D01*
X99379982Y-58440500D01*
X99307557Y-58410500D01*
X99307556Y-58410500D01*
X99108444Y-58410500D01*
X99108442Y-58410500D01*
X98984842Y-58461698D01*
X98932810Y-58483251D01*
X98924488Y-58486698D01*
X98783698Y-58627488D01*
X98707500Y-58811442D01*
X90806106Y-58811442D01*
X93391696Y-56225852D01*
X93426344Y-56211500D01*
X102656390Y-56211500D01*
X102691038Y-56225852D01*
X102705390Y-56260500D01*
X102691038Y-56295148D01*
X102683698Y-56302488D01*
X102607500Y-56486442D01*
X102607500Y-56536500D01*
X102593148Y-56571148D01*
X102558500Y-56585500D01*
X102363442Y-56585500D01*
X102232641Y-56639681D01*
X102197993Y-56654033D01*
X102179488Y-56661698D01*
X102038698Y-56802488D01*
X101973538Y-56959794D01*
X101947019Y-56986312D01*
X101912313Y-56986312D01*
X101912288Y-56986441D01*
X101911644Y-56986312D01*
X101909518Y-56986312D01*
X101907556Y-56985500D01*
X101708444Y-56985500D01*
X101708442Y-56985500D01*
X101560973Y-57046585D01*
X101529949Y-57059436D01*
X101524488Y-57061698D01*
X101383698Y-57202488D01*
X101307500Y-57386442D01*
X101307500Y-57436500D01*
X101293148Y-57471148D01*
X101258500Y-57485500D01*
X101063442Y-57485500D01*
X100879488Y-57561698D01*
X100738698Y-57702488D01*
X100662500Y-57886442D01*
X100662500Y-57917544D01*
X100648148Y-57952192D01*
X100613500Y-57966544D01*
X100427398Y-57966544D01*
X100243444Y-58042742D01*
X100102654Y-58183532D01*
X100026456Y-58367486D01*
X100026456Y-58566601D01*
X100034308Y-58585556D01*
X100102653Y-58750554D01*
X100102654Y-58750555D01*
X100102655Y-58750557D01*
X100243443Y-58891345D01*
X100243444Y-58891345D01*
X100243446Y-58891347D01*
X100427400Y-58967544D01*
X100427402Y-58967544D01*
X100626510Y-58967544D01*
X100626512Y-58967544D01*
X100810466Y-58891347D01*
X100810468Y-58891345D01*
X100810469Y-58891345D01*
X100951257Y-58750557D01*
X100951257Y-58750556D01*
X100951259Y-58750554D01*
X101027456Y-58566600D01*
X101027456Y-58535500D01*
X101041808Y-58500852D01*
X101076456Y-58486500D01*
X101262554Y-58486500D01*
X101262556Y-58486500D01*
X101446510Y-58410303D01*
X101446512Y-58410301D01*
X101446513Y-58410301D01*
X101587301Y-58269513D01*
X101587301Y-58269512D01*
X101587303Y-58269510D01*
X101663500Y-58085556D01*
X101663500Y-58035500D01*
X101677852Y-58000852D01*
X101712500Y-57986500D01*
X101907554Y-57986500D01*
X101907556Y-57986500D01*
X102091510Y-57910303D01*
X102091512Y-57910301D01*
X102091513Y-57910301D01*
X102232301Y-57769513D01*
X102232301Y-57769512D01*
X102232303Y-57769510D01*
X102297461Y-57612204D01*
X102323980Y-57585687D01*
X102358684Y-57585687D01*
X102358710Y-57585558D01*
X102359359Y-57585687D01*
X102361481Y-57585687D01*
X102363444Y-57586500D01*
X102363446Y-57586500D01*
X102562554Y-57586500D01*
X102562556Y-57586500D01*
X102746510Y-57510303D01*
X102746512Y-57510301D01*
X102746513Y-57510301D01*
X102887301Y-57369513D01*
X102887301Y-57369512D01*
X102887303Y-57369510D01*
X102963500Y-57185556D01*
X102963500Y-57135500D01*
X102977852Y-57100852D01*
X103012500Y-57086500D01*
X103207554Y-57086500D01*
X103207556Y-57086500D01*
X103391510Y-57010303D01*
X103391512Y-57010301D01*
X103391513Y-57010301D01*
X103532301Y-56869513D01*
X103532301Y-56869512D01*
X103532303Y-56869510D01*
X103608500Y-56685556D01*
X103608500Y-56486444D01*
X103532303Y-56302490D01*
X103532301Y-56302488D01*
X103532301Y-56302487D01*
X103524962Y-56295148D01*
X103510610Y-56260500D01*
X103524962Y-56225852D01*
X103559610Y-56211500D01*
X110492635Y-56211500D01*
X110492637Y-56211500D01*
X110612871Y-56161697D01*
X110649027Y-56146721D01*
X113394896Y-53400852D01*
X113429544Y-53386500D01*
X113647336Y-53386500D01*
X113647338Y-53386500D01*
X113904802Y-53279856D01*
X113904803Y-53279854D01*
X113904805Y-53279854D01*
X114101854Y-53082805D01*
X114101854Y-53082803D01*
X114101856Y-53082802D01*
X114208500Y-52825338D01*
X114208500Y-52546662D01*
X114101856Y-52289198D01*
X114101855Y-52289197D01*
X114101854Y-52289195D01*
X114007806Y-52195148D01*
X113993454Y-52160500D01*
X114007806Y-52125852D01*
X114042454Y-52111500D01*
X118522546Y-52111500D01*
X118557194Y-52125852D01*
X118711195Y-52279854D01*
X118711197Y-52279855D01*
X118711198Y-52279856D01*
X118968662Y-52386500D01*
X118968664Y-52386500D01*
X119247336Y-52386500D01*
X119247338Y-52386500D01*
X119504802Y-52279856D01*
X119504803Y-52279854D01*
X119504805Y-52279854D01*
X119701854Y-52082805D01*
X119701854Y-52082803D01*
X119701856Y-52082802D01*
X119716826Y-52046660D01*
X122407500Y-52046660D01*
X122407500Y-52046662D01*
X122407500Y-52325338D01*
X122407500Y-52325340D01*
X122407501Y-52325341D01*
X122514144Y-52582802D01*
X122514146Y-52582805D01*
X122711195Y-52779854D01*
X122711197Y-52779855D01*
X122711198Y-52779856D01*
X122968662Y-52886500D01*
X122968664Y-52886500D01*
X123247336Y-52886500D01*
X123247338Y-52886500D01*
X123504802Y-52779856D01*
X123504803Y-52779854D01*
X123504805Y-52779854D01*
X123701854Y-52582805D01*
X123701854Y-52582803D01*
X123701856Y-52582802D01*
X123808500Y-52325338D01*
X123808500Y-52046662D01*
X123701856Y-51789198D01*
X123701855Y-51789197D01*
X123701854Y-51789195D01*
X123504805Y-51592146D01*
X123504802Y-51592144D01*
X123247341Y-51485501D01*
X123247339Y-51485500D01*
X123247338Y-51485500D01*
X122968662Y-51485500D01*
X122968660Y-51485500D01*
X122968658Y-51485501D01*
X122711197Y-51592144D01*
X122514144Y-51789197D01*
X122407501Y-52046658D01*
X122407500Y-52046660D01*
X119716826Y-52046660D01*
X119808500Y-51825338D01*
X119808500Y-51546662D01*
X119701856Y-51289198D01*
X119701855Y-51289197D01*
X119701854Y-51289195D01*
X119609317Y-51196658D01*
X146143500Y-51196658D01*
X146143500Y-51196660D01*
X146143500Y-51475336D01*
X146143500Y-51475338D01*
X146143501Y-51475339D01*
X146250144Y-51732800D01*
X146250146Y-51732803D01*
X146447195Y-51929852D01*
X146447197Y-51929853D01*
X146447198Y-51929854D01*
X146704662Y-52036498D01*
X146704664Y-52036498D01*
X146983336Y-52036498D01*
X146983338Y-52036498D01*
X147240802Y-51929854D01*
X147240803Y-51929852D01*
X147240805Y-51929852D01*
X147437854Y-51732803D01*
X147437854Y-51732801D01*
X147437856Y-51732800D01*
X147544500Y-51475336D01*
X147544500Y-51196660D01*
X148107500Y-51196660D01*
X148107500Y-51196662D01*
X148107500Y-51475338D01*
X148107500Y-51475340D01*
X148107501Y-51475341D01*
X148214144Y-51732802D01*
X148214146Y-51732805D01*
X148411195Y-51929854D01*
X148411197Y-51929855D01*
X148411198Y-51929856D01*
X148668662Y-52036500D01*
X148668664Y-52036500D01*
X148947336Y-52036500D01*
X148947338Y-52036500D01*
X149204802Y-51929856D01*
X149204803Y-51929854D01*
X149204805Y-51929854D01*
X149401854Y-51732805D01*
X149401854Y-51732803D01*
X149401856Y-51732802D01*
X149508500Y-51475338D01*
X149508500Y-51196662D01*
X149508500Y-51196660D01*
X149508499Y-51196658D01*
X150103500Y-51196658D01*
X150103500Y-51196660D01*
X150103500Y-51475336D01*
X150103500Y-51475338D01*
X150103501Y-51475339D01*
X150210144Y-51732800D01*
X150210146Y-51732803D01*
X150407195Y-51929852D01*
X150407197Y-51929853D01*
X150407198Y-51929854D01*
X150664662Y-52036498D01*
X150664664Y-52036498D01*
X150943336Y-52036498D01*
X150943338Y-52036498D01*
X151200802Y-51929854D01*
X151200803Y-51929852D01*
X151200805Y-51929852D01*
X151397854Y-51732803D01*
X151397854Y-51732801D01*
X151397856Y-51732800D01*
X151504500Y-51475336D01*
X151504500Y-51196660D01*
X151397856Y-50939196D01*
X151397855Y-50939195D01*
X151397854Y-50939193D01*
X151200805Y-50742144D01*
X151200802Y-50742142D01*
X150943341Y-50635499D01*
X150943339Y-50635498D01*
X150943338Y-50635498D01*
X150664662Y-50635498D01*
X150664660Y-50635498D01*
X150664658Y-50635499D01*
X150407197Y-50742142D01*
X150210144Y-50939195D01*
X150103501Y-51196656D01*
X150103500Y-51196658D01*
X149508499Y-51196658D01*
X149421035Y-50985501D01*
X149401856Y-50939198D01*
X149401855Y-50939197D01*
X149401854Y-50939195D01*
X149204805Y-50742146D01*
X149204802Y-50742144D01*
X148947341Y-50635501D01*
X148947339Y-50635500D01*
X148947338Y-50635500D01*
X148668662Y-50635500D01*
X148668660Y-50635500D01*
X148668658Y-50635501D01*
X148411197Y-50742144D01*
X148214144Y-50939197D01*
X148107501Y-51196658D01*
X148107500Y-51196660D01*
X147544500Y-51196660D01*
X147437856Y-50939196D01*
X147437855Y-50939195D01*
X147437854Y-50939193D01*
X147240805Y-50742144D01*
X147240802Y-50742142D01*
X146983341Y-50635499D01*
X146983339Y-50635498D01*
X146983338Y-50635498D01*
X146704662Y-50635498D01*
X146704660Y-50635498D01*
X146704658Y-50635499D01*
X146447197Y-50742142D01*
X146250144Y-50939195D01*
X146143501Y-51196656D01*
X146143500Y-51196658D01*
X119609317Y-51196658D01*
X119504805Y-51092146D01*
X119504802Y-51092144D01*
X119247341Y-50985501D01*
X119247339Y-50985500D01*
X119247338Y-50985500D01*
X118968662Y-50985500D01*
X118968660Y-50985500D01*
X118968658Y-50985501D01*
X118711197Y-51092144D01*
X118711195Y-51092145D01*
X118557194Y-51246148D01*
X118522546Y-51260500D01*
X117715026Y-51260500D01*
X117680378Y-51246148D01*
X117666026Y-51211500D01*
X117680378Y-51176852D01*
X117696275Y-51166230D01*
X117725609Y-51154079D01*
X117904802Y-51079856D01*
X117904803Y-51079854D01*
X117904805Y-51079854D01*
X118101854Y-50882805D01*
X118101854Y-50882803D01*
X118101856Y-50882802D01*
X118208500Y-50625338D01*
X118208500Y-50346662D01*
X118101856Y-50089198D01*
X118101855Y-50089197D01*
X118101854Y-50089195D01*
X117904805Y-49892146D01*
X117904802Y-49892144D01*
X117647341Y-49785501D01*
X117647339Y-49785500D01*
X117647338Y-49785500D01*
X117368662Y-49785500D01*
X117368660Y-49785500D01*
X117368658Y-49785501D01*
X117111197Y-49892144D01*
X117111195Y-49892145D01*
X116957194Y-50046148D01*
X116922546Y-50060500D01*
X111592637Y-50060500D01*
X111423363Y-50060500D01*
X111423361Y-50060500D01*
X111423359Y-50060501D01*
X111266973Y-50125278D01*
X111266971Y-50125279D01*
X108046104Y-53346148D01*
X108011456Y-53360500D01*
X99310247Y-53360500D01*
X99275599Y-53346148D01*
X99261247Y-53311500D01*
X99264977Y-53292749D01*
X99371185Y-53036338D01*
X99371185Y-52757662D01*
X99264541Y-52500198D01*
X99264540Y-52500197D01*
X99264539Y-52500195D01*
X99067490Y-52303146D01*
X99067487Y-52303144D01*
X98810026Y-52196501D01*
X98810024Y-52196500D01*
X98810023Y-52196500D01*
X98531347Y-52196500D01*
X98531345Y-52196500D01*
X98531343Y-52196501D01*
X98273882Y-52303144D01*
X98076829Y-52500197D01*
X97970186Y-52757658D01*
X97970185Y-52757660D01*
X97970185Y-52757662D01*
X97970185Y-53036338D01*
X98073804Y-53286500D01*
X98076393Y-53292749D01*
X98076393Y-53330252D01*
X98049874Y-53356770D01*
X98031123Y-53360500D01*
X87625848Y-53360500D01*
X87591200Y-53346148D01*
X87576848Y-53311500D01*
X87580578Y-53292749D01*
X87599551Y-53246943D01*
X87608500Y-53225338D01*
X87608500Y-52946662D01*
X87501856Y-52689198D01*
X87501855Y-52689197D01*
X87501854Y-52689195D01*
X87304805Y-52492146D01*
X87304802Y-52492144D01*
X87047341Y-52385501D01*
X87047339Y-52385500D01*
X87047338Y-52385500D01*
X86768662Y-52385500D01*
X86768660Y-52385500D01*
X86768658Y-52385501D01*
X86511197Y-52492144D01*
X86314144Y-52689197D01*
X86207501Y-52946658D01*
X86207500Y-52946660D01*
X86207500Y-52946662D01*
X86207500Y-53225338D01*
X86207500Y-53225340D01*
X86207501Y-53225341D01*
X86235422Y-53292749D01*
X86235422Y-53330252D01*
X86208903Y-53356770D01*
X86190152Y-53360500D01*
X78223361Y-53360500D01*
X78134038Y-53397500D01*
X78125946Y-53400852D01*
X78066971Y-53425280D01*
X78066970Y-53425280D01*
X66447279Y-65044972D01*
X66447279Y-65044974D01*
X66382500Y-65201361D01*
X66382500Y-78994831D01*
X66368148Y-79029479D01*
X66333500Y-79043831D01*
X66298852Y-79029479D01*
X66292758Y-79022054D01*
X66230148Y-78928351D01*
X66170562Y-78888537D01*
X66130749Y-78861935D01*
X66043096Y-78844500D01*
X64761904Y-78844500D01*
X64674251Y-78861935D01*
X64574851Y-78928351D01*
X64512242Y-79022054D01*
X64508435Y-79027751D01*
X64491000Y-79115404D01*
X48164500Y-79115404D01*
X48164500Y-63346660D01*
X63587500Y-63346660D01*
X63587500Y-63346662D01*
X63587500Y-63625338D01*
X63587500Y-63625340D01*
X63587501Y-63625341D01*
X63694144Y-63882802D01*
X63694146Y-63882805D01*
X63891195Y-64079854D01*
X63891197Y-64079855D01*
X63891198Y-64079856D01*
X64148662Y-64186500D01*
X64148664Y-64186500D01*
X64427336Y-64186500D01*
X64427338Y-64186500D01*
X64684802Y-64079856D01*
X64684803Y-64079854D01*
X64684805Y-64079854D01*
X64881854Y-63882805D01*
X64881854Y-63882803D01*
X64881856Y-63882802D01*
X64988500Y-63625338D01*
X64988500Y-63346662D01*
X64881856Y-63089198D01*
X64881855Y-63089197D01*
X64881854Y-63089195D01*
X64684805Y-62892146D01*
X64684802Y-62892144D01*
X64427341Y-62785501D01*
X64427339Y-62785500D01*
X64427338Y-62785500D01*
X64148662Y-62785500D01*
X64148660Y-62785500D01*
X64148658Y-62785501D01*
X63891197Y-62892144D01*
X63694144Y-63089197D01*
X63587501Y-63346658D01*
X63587500Y-63346660D01*
X48164500Y-63346660D01*
X48164500Y-62146660D01*
X60107500Y-62146660D01*
X60107500Y-62146662D01*
X60107500Y-62425338D01*
X60107500Y-62425340D01*
X60107501Y-62425341D01*
X60214144Y-62682802D01*
X60214146Y-62682805D01*
X60411195Y-62879854D01*
X60411197Y-62879855D01*
X60411198Y-62879856D01*
X60668662Y-62986500D01*
X60668664Y-62986500D01*
X60947336Y-62986500D01*
X60947338Y-62986500D01*
X61204802Y-62879856D01*
X61204803Y-62879854D01*
X61204805Y-62879854D01*
X61401854Y-62682805D01*
X61401854Y-62682803D01*
X61401856Y-62682802D01*
X61508500Y-62425338D01*
X61508500Y-62146662D01*
X61401856Y-61889198D01*
X61401855Y-61889197D01*
X61401854Y-61889195D01*
X61204805Y-61692146D01*
X61204802Y-61692144D01*
X60947341Y-61585501D01*
X60947339Y-61585500D01*
X60947338Y-61585500D01*
X60668662Y-61585500D01*
X60668660Y-61585500D01*
X60668658Y-61585501D01*
X60411197Y-61692144D01*
X60214144Y-61889197D01*
X60107501Y-62146658D01*
X60107500Y-62146660D01*
X48164500Y-62146660D01*
X48164500Y-61286442D01*
X67707500Y-61286442D01*
X67707500Y-61485557D01*
X67719470Y-61514455D01*
X67783697Y-61669510D01*
X67783698Y-61669511D01*
X67783699Y-61669513D01*
X67924487Y-61810301D01*
X67924488Y-61810301D01*
X67924490Y-61810303D01*
X68108444Y-61886500D01*
X68108446Y-61886500D01*
X68307554Y-61886500D01*
X68307556Y-61886500D01*
X68491510Y-61810303D01*
X68491512Y-61810301D01*
X68491513Y-61810301D01*
X68632301Y-61669513D01*
X68632301Y-61669512D01*
X68632303Y-61669510D01*
X68708500Y-61485556D01*
X68708500Y-61286444D01*
X68632303Y-61102490D01*
X68632301Y-61102488D01*
X68632301Y-61102487D01*
X68491513Y-60961699D01*
X68491511Y-60961698D01*
X68491510Y-60961697D01*
X68383754Y-60917062D01*
X68307557Y-60885500D01*
X68307556Y-60885500D01*
X68108444Y-60885500D01*
X68108442Y-60885500D01*
X67924488Y-60961698D01*
X67783698Y-61102488D01*
X67707500Y-61286442D01*
X48164500Y-61286442D01*
X48164500Y-58786442D01*
X63207500Y-58786442D01*
X63207500Y-58985557D01*
X63219572Y-59014700D01*
X63283697Y-59169510D01*
X63283698Y-59169511D01*
X63283699Y-59169513D01*
X63424487Y-59310301D01*
X63424488Y-59310301D01*
X63424490Y-59310303D01*
X63608444Y-59386500D01*
X63608446Y-59386500D01*
X63807554Y-59386500D01*
X63807556Y-59386500D01*
X63991510Y-59310303D01*
X63991512Y-59310301D01*
X63991513Y-59310301D01*
X64132301Y-59169513D01*
X64132301Y-59169512D01*
X64132303Y-59169510D01*
X64208500Y-58985556D01*
X64208500Y-58786444D01*
X64132303Y-58602490D01*
X64132301Y-58602488D01*
X64132301Y-58602487D01*
X63991513Y-58461699D01*
X63991511Y-58461698D01*
X63991510Y-58461697D01*
X63867435Y-58410303D01*
X63807557Y-58385500D01*
X63807556Y-58385500D01*
X63608444Y-58385500D01*
X63608442Y-58385500D01*
X63424488Y-58461698D01*
X63283698Y-58602488D01*
X63207500Y-58786442D01*
X48164500Y-58786442D01*
X48164500Y-58279463D01*
X64515521Y-58279463D01*
X64515521Y-58478578D01*
X64547083Y-58554775D01*
X64591718Y-58662531D01*
X64591719Y-58662532D01*
X64591720Y-58662534D01*
X64732508Y-58803322D01*
X64732509Y-58803322D01*
X64732511Y-58803324D01*
X64916465Y-58879521D01*
X64916467Y-58879521D01*
X65115575Y-58879521D01*
X65115577Y-58879521D01*
X65299531Y-58803324D01*
X65299533Y-58803322D01*
X65299534Y-58803322D01*
X65440322Y-58662534D01*
X65440322Y-58662533D01*
X65440324Y-58662531D01*
X65503601Y-58509769D01*
X65530120Y-58483251D01*
X65548871Y-58479521D01*
X65707554Y-58479521D01*
X65707556Y-58479521D01*
X65891510Y-58403324D01*
X65891512Y-58403322D01*
X65891513Y-58403322D01*
X66032301Y-58262534D01*
X66032301Y-58262533D01*
X66032303Y-58262531D01*
X66103817Y-58089881D01*
X66130336Y-58063364D01*
X66167838Y-58063364D01*
X66206844Y-58079521D01*
X66206846Y-58079521D01*
X66405954Y-58079521D01*
X66405956Y-58079521D01*
X66589910Y-58003324D01*
X66589912Y-58003322D01*
X66589913Y-58003322D01*
X66730701Y-57862534D01*
X66730701Y-57862533D01*
X66730703Y-57862531D01*
X66804123Y-57685280D01*
X66830642Y-57658763D01*
X66849393Y-57655033D01*
X67007554Y-57655033D01*
X67007556Y-57655033D01*
X67191510Y-57578836D01*
X67191512Y-57578834D01*
X67191513Y-57578834D01*
X67332301Y-57438046D01*
X67332301Y-57438045D01*
X67332303Y-57438043D01*
X67408500Y-57254089D01*
X67408500Y-57194653D01*
X67422852Y-57160005D01*
X67457500Y-57145653D01*
X67476251Y-57149383D01*
X67485600Y-57153256D01*
X67485602Y-57153256D01*
X67684710Y-57153256D01*
X67684712Y-57153256D01*
X67868666Y-57077059D01*
X67868668Y-57077057D01*
X67868669Y-57077057D01*
X68009457Y-56936269D01*
X68009457Y-56936268D01*
X68009459Y-56936266D01*
X68085656Y-56752312D01*
X68085656Y-56553200D01*
X68009459Y-56369246D01*
X68009457Y-56369244D01*
X68009457Y-56369243D01*
X67868669Y-56228455D01*
X67868667Y-56228454D01*
X67868666Y-56228453D01*
X67760910Y-56183818D01*
X67684713Y-56152256D01*
X67684712Y-56152256D01*
X67485600Y-56152256D01*
X67485598Y-56152256D01*
X67342576Y-56211499D01*
X67307926Y-56225852D01*
X67301644Y-56228454D01*
X67160854Y-56369244D01*
X67084656Y-56553198D01*
X67084656Y-56612635D01*
X67070304Y-56647283D01*
X67035656Y-56661635D01*
X67016905Y-56657905D01*
X67007559Y-56654034D01*
X67007557Y-56654033D01*
X67007556Y-56654033D01*
X66808444Y-56654033D01*
X66808442Y-56654033D01*
X66624488Y-56730231D01*
X66483698Y-56871021D01*
X66483697Y-56871022D01*
X66483697Y-56871023D01*
X66436279Y-56985500D01*
X66410277Y-57048273D01*
X66383758Y-57074791D01*
X66365007Y-57078521D01*
X66206842Y-57078521D01*
X66069286Y-57135500D01*
X66035768Y-57149384D01*
X66022888Y-57154719D01*
X65882098Y-57295509D01*
X65810583Y-57468159D01*
X65784064Y-57494677D01*
X65746562Y-57494677D01*
X65707560Y-57478522D01*
X65707557Y-57478521D01*
X65707556Y-57478521D01*
X65508444Y-57478521D01*
X65508442Y-57478521D01*
X65324488Y-57554719D01*
X65183698Y-57695509D01*
X65120420Y-57848273D01*
X65093901Y-57874791D01*
X65075150Y-57878521D01*
X64916463Y-57878521D01*
X64776493Y-57936500D01*
X64738610Y-57952192D01*
X64732509Y-57954719D01*
X64591719Y-58095509D01*
X64591718Y-58095510D01*
X64591718Y-58095511D01*
X64587329Y-58106107D01*
X64515521Y-58279463D01*
X48164500Y-58279463D01*
X48164500Y-52946660D01*
X62207500Y-52946660D01*
X62207500Y-52946662D01*
X62207500Y-53225338D01*
X62207500Y-53225340D01*
X62207501Y-53225341D01*
X62314144Y-53482802D01*
X62314146Y-53482805D01*
X62511195Y-53679854D01*
X62511197Y-53679855D01*
X62511198Y-53679856D01*
X62768662Y-53786500D01*
X62768664Y-53786500D01*
X63047336Y-53786500D01*
X63047338Y-53786500D01*
X63304802Y-53679856D01*
X63304803Y-53679854D01*
X63304805Y-53679854D01*
X63501854Y-53482805D01*
X63501854Y-53482803D01*
X63501856Y-53482802D01*
X63608500Y-53225338D01*
X63608500Y-52946662D01*
X63570755Y-52855536D01*
X63562492Y-52835587D01*
X63556723Y-52821660D01*
X73959320Y-52821660D01*
X73959320Y-52821662D01*
X73959320Y-53100338D01*
X73959320Y-53100340D01*
X73959321Y-53100341D01*
X74065964Y-53357802D01*
X74065966Y-53357805D01*
X74263015Y-53554854D01*
X74263017Y-53554855D01*
X74263018Y-53554856D01*
X74520482Y-53661500D01*
X74520484Y-53661500D01*
X74799156Y-53661500D01*
X74799158Y-53661500D01*
X75056622Y-53554856D01*
X75056623Y-53554854D01*
X75056625Y-53554854D01*
X75253674Y-53357805D01*
X75253674Y-53357803D01*
X75253676Y-53357802D01*
X75360320Y-53100338D01*
X75360320Y-52821662D01*
X75253676Y-52564198D01*
X75253675Y-52564197D01*
X75253674Y-52564195D01*
X75136139Y-52446660D01*
X76107500Y-52446660D01*
X76107500Y-52446662D01*
X76107500Y-52725338D01*
X76107500Y-52725340D01*
X76107501Y-52725341D01*
X76214144Y-52982802D01*
X76214146Y-52982805D01*
X76411195Y-53179854D01*
X76411197Y-53179855D01*
X76411198Y-53179856D01*
X76668662Y-53286500D01*
X76668664Y-53286500D01*
X76947336Y-53286500D01*
X76947338Y-53286500D01*
X77204802Y-53179856D01*
X77204803Y-53179854D01*
X77204805Y-53179854D01*
X77401854Y-52982805D01*
X77401854Y-52982803D01*
X77401856Y-52982802D01*
X77508500Y-52725338D01*
X77508500Y-52446662D01*
X77401856Y-52189198D01*
X77401855Y-52189197D01*
X77401854Y-52189195D01*
X77271168Y-52058509D01*
X77256816Y-52023861D01*
X77271168Y-51989213D01*
X77305816Y-51974861D01*
X77324567Y-51978590D01*
X77343662Y-51986500D01*
X77343664Y-51986500D01*
X77622336Y-51986500D01*
X77622338Y-51986500D01*
X77879802Y-51879856D01*
X77879803Y-51879854D01*
X77879805Y-51879854D01*
X78076854Y-51682805D01*
X78076854Y-51682803D01*
X78076856Y-51682802D01*
X78183500Y-51425338D01*
X78183500Y-51146662D01*
X78076856Y-50889198D01*
X78076855Y-50889197D01*
X78076854Y-50889195D01*
X77966166Y-50778507D01*
X77951814Y-50743859D01*
X77966166Y-50709211D01*
X77982059Y-50698591D01*
X78082100Y-50657154D01*
X78082101Y-50657152D01*
X78082103Y-50657152D01*
X78279152Y-50460103D01*
X78279152Y-50460101D01*
X78279154Y-50460100D01*
X78284721Y-50446660D01*
X78907500Y-50446660D01*
X78907500Y-50446662D01*
X78907500Y-50725338D01*
X78907500Y-50725340D01*
X78907501Y-50725341D01*
X79014144Y-50982802D01*
X79014146Y-50982805D01*
X79211195Y-51179854D01*
X79211197Y-51179855D01*
X79211198Y-51179856D01*
X79468662Y-51286500D01*
X79541928Y-51286500D01*
X79576576Y-51300852D01*
X79590928Y-51335500D01*
X79587198Y-51354251D01*
X79507501Y-51546658D01*
X79507500Y-51546660D01*
X79507500Y-51546662D01*
X79507500Y-51825338D01*
X79507500Y-51825340D01*
X79507501Y-51825341D01*
X79614144Y-52082802D01*
X79614146Y-52082805D01*
X79811195Y-52279854D01*
X79811197Y-52279855D01*
X79811198Y-52279856D01*
X80068662Y-52386500D01*
X80068664Y-52386500D01*
X80347336Y-52386500D01*
X80347338Y-52386500D01*
X80604802Y-52279856D01*
X80604803Y-52279854D01*
X80604805Y-52279854D01*
X80801854Y-52082805D01*
X80801854Y-52082803D01*
X80801856Y-52082802D01*
X80816826Y-52046660D01*
X100107500Y-52046660D01*
X100107500Y-52046662D01*
X100107500Y-52325338D01*
X100107500Y-52325340D01*
X100107501Y-52325341D01*
X100214144Y-52582802D01*
X100214146Y-52582805D01*
X100411195Y-52779854D01*
X100411197Y-52779855D01*
X100411198Y-52779856D01*
X100668662Y-52886500D01*
X100668664Y-52886500D01*
X100947336Y-52886500D01*
X100947338Y-52886500D01*
X101204802Y-52779856D01*
X101204803Y-52779854D01*
X101204805Y-52779854D01*
X101401854Y-52582805D01*
X101401854Y-52582803D01*
X101401856Y-52582802D01*
X101508500Y-52325338D01*
X101508500Y-52228406D01*
X101522852Y-52193758D01*
X101557500Y-52179406D01*
X101576251Y-52183135D01*
X101618662Y-52200703D01*
X101618664Y-52200703D01*
X101897336Y-52200703D01*
X101897338Y-52200703D01*
X102086523Y-52122341D01*
X102399950Y-52122341D01*
X102399950Y-52122343D01*
X102399950Y-52401019D01*
X102399950Y-52401021D01*
X102399951Y-52401022D01*
X102506594Y-52658483D01*
X102506596Y-52658486D01*
X102703645Y-52855535D01*
X102703647Y-52855536D01*
X102703648Y-52855537D01*
X102961112Y-52962181D01*
X102961114Y-52962181D01*
X103239786Y-52962181D01*
X103239788Y-52962181D01*
X103497252Y-52855537D01*
X103497253Y-52855535D01*
X103497255Y-52855535D01*
X103694304Y-52658486D01*
X103694304Y-52658484D01*
X103694306Y-52658483D01*
X103800950Y-52401019D01*
X103800950Y-52231786D01*
X103815302Y-52197138D01*
X103849950Y-52182786D01*
X103863926Y-52185566D01*
X103863928Y-52185558D01*
X103868660Y-52186499D01*
X103868662Y-52186500D01*
X103868664Y-52186500D01*
X104147336Y-52186500D01*
X104147338Y-52186500D01*
X104404802Y-52079856D01*
X104404803Y-52079854D01*
X104404805Y-52079854D01*
X104601854Y-51882805D01*
X104601854Y-51882803D01*
X104601856Y-51882802D01*
X104708500Y-51625338D01*
X104708500Y-51346662D01*
X104601856Y-51089198D01*
X104601855Y-51089197D01*
X104601854Y-51089195D01*
X104404805Y-50892146D01*
X104404802Y-50892144D01*
X104147341Y-50785501D01*
X104147339Y-50785500D01*
X104147338Y-50785500D01*
X103868662Y-50785500D01*
X103868660Y-50785500D01*
X103868658Y-50785501D01*
X103611197Y-50892144D01*
X103414144Y-51089197D01*
X103307501Y-51346658D01*
X103307500Y-51346664D01*
X103307500Y-51515894D01*
X103293148Y-51550542D01*
X103258500Y-51564894D01*
X103244521Y-51562114D01*
X103244520Y-51562122D01*
X103239790Y-51561181D01*
X103239788Y-51561181D01*
X102961112Y-51561181D01*
X102961110Y-51561181D01*
X102961108Y-51561182D01*
X102703647Y-51667825D01*
X102506594Y-51864878D01*
X102399951Y-52122339D01*
X102399950Y-52122341D01*
X102086523Y-52122341D01*
X102154802Y-52094059D01*
X102154803Y-52094057D01*
X102154805Y-52094057D01*
X102351854Y-51897008D01*
X102351854Y-51897006D01*
X102351856Y-51897005D01*
X102458500Y-51639541D01*
X102458500Y-51435500D01*
X102472852Y-51400852D01*
X102507500Y-51386500D01*
X102572336Y-51386500D01*
X102572338Y-51386500D01*
X102829802Y-51279856D01*
X102829803Y-51279854D01*
X102829805Y-51279854D01*
X103026854Y-51082805D01*
X103026854Y-51082803D01*
X103026856Y-51082802D01*
X103133500Y-50825338D01*
X103133500Y-50546662D01*
X103026856Y-50289198D01*
X103026855Y-50289197D01*
X103026854Y-50289195D01*
X102829805Y-50092146D01*
X102829802Y-50092144D01*
X102572341Y-49985501D01*
X102572339Y-49985500D01*
X102572338Y-49985500D01*
X102293662Y-49985500D01*
X102293660Y-49985500D01*
X102293658Y-49985501D01*
X102036197Y-50092144D01*
X101839144Y-50289197D01*
X101732501Y-50546658D01*
X101732500Y-50546664D01*
X101732500Y-50750703D01*
X101718148Y-50785351D01*
X101683500Y-50799703D01*
X101618662Y-50799703D01*
X101618660Y-50799703D01*
X101618658Y-50799704D01*
X101361197Y-50906347D01*
X101164144Y-51103400D01*
X101057501Y-51360861D01*
X101057500Y-51360867D01*
X101057500Y-51457796D01*
X101043148Y-51492444D01*
X101008500Y-51506796D01*
X100989749Y-51503066D01*
X100947342Y-51485501D01*
X100947339Y-51485500D01*
X100947338Y-51485500D01*
X100668662Y-51485500D01*
X100668660Y-51485500D01*
X100668658Y-51485501D01*
X100411197Y-51592144D01*
X100214144Y-51789197D01*
X100107501Y-52046658D01*
X100107500Y-52046660D01*
X80816826Y-52046660D01*
X80908500Y-51825338D01*
X80908500Y-51546662D01*
X80801856Y-51289198D01*
X80801855Y-51289197D01*
X80801854Y-51289195D01*
X80604805Y-51092146D01*
X80604802Y-51092144D01*
X80347341Y-50985501D01*
X80347339Y-50985500D01*
X80347338Y-50985500D01*
X80347336Y-50985500D01*
X80274072Y-50985500D01*
X80239424Y-50971148D01*
X80225072Y-50936500D01*
X80228802Y-50917749D01*
X80283642Y-50785351D01*
X80308500Y-50725338D01*
X80308500Y-50446662D01*
X80201856Y-50189198D01*
X80201855Y-50189197D01*
X80201854Y-50189195D01*
X80004805Y-49992146D01*
X80004802Y-49992144D01*
X79747341Y-49885501D01*
X79747339Y-49885500D01*
X79747338Y-49885500D01*
X79468662Y-49885500D01*
X79468660Y-49885500D01*
X79468658Y-49885501D01*
X79211197Y-49992144D01*
X79014144Y-50189197D01*
X78907501Y-50446658D01*
X78907500Y-50446660D01*
X78284721Y-50446660D01*
X78385798Y-50202636D01*
X78385798Y-49923960D01*
X78279154Y-49666496D01*
X78279153Y-49666495D01*
X78279152Y-49666493D01*
X78082103Y-49469444D01*
X78082100Y-49469442D01*
X77824639Y-49362799D01*
X77824637Y-49362798D01*
X77824636Y-49362798D01*
X77545960Y-49362798D01*
X77545958Y-49362798D01*
X77545956Y-49362799D01*
X77288495Y-49469442D01*
X77091442Y-49666495D01*
X76984799Y-49923956D01*
X76984798Y-49923958D01*
X76984798Y-49923960D01*
X76984798Y-50202636D01*
X76984798Y-50202638D01*
X76984799Y-50202639D01*
X77091442Y-50460100D01*
X77091443Y-50460102D01*
X77202131Y-50570789D01*
X77216483Y-50605437D01*
X77202131Y-50640085D01*
X77186235Y-50650707D01*
X77086196Y-50692145D01*
X76889144Y-50889197D01*
X76782501Y-51146658D01*
X76782500Y-51146660D01*
X76782500Y-51146662D01*
X76782500Y-51425338D01*
X76782500Y-51425340D01*
X76782501Y-51425341D01*
X76889144Y-51682802D01*
X76889146Y-51682805D01*
X77019831Y-51813490D01*
X77034183Y-51848138D01*
X77019831Y-51882786D01*
X76985183Y-51897138D01*
X76966432Y-51893408D01*
X76947342Y-51885501D01*
X76947339Y-51885500D01*
X76947338Y-51885500D01*
X76668662Y-51885500D01*
X76668660Y-51885500D01*
X76668658Y-51885501D01*
X76411197Y-51992144D01*
X76214144Y-52189197D01*
X76107501Y-52446658D01*
X76107500Y-52446660D01*
X75136139Y-52446660D01*
X75056625Y-52367146D01*
X75056622Y-52367144D01*
X74799161Y-52260501D01*
X74799159Y-52260500D01*
X74799158Y-52260500D01*
X74520482Y-52260500D01*
X74520480Y-52260500D01*
X74520478Y-52260501D01*
X74263017Y-52367144D01*
X74065964Y-52564197D01*
X73959321Y-52821658D01*
X73959320Y-52821660D01*
X63556723Y-52821660D01*
X63535800Y-52771148D01*
X63501856Y-52689198D01*
X63501855Y-52689197D01*
X63501854Y-52689195D01*
X63304805Y-52492146D01*
X63304802Y-52492144D01*
X63047341Y-52385501D01*
X63047339Y-52385500D01*
X63047338Y-52385500D01*
X62768662Y-52385500D01*
X62768660Y-52385500D01*
X62768658Y-52385501D01*
X62511197Y-52492144D01*
X62314144Y-52689197D01*
X62207501Y-52946658D01*
X62207500Y-52946660D01*
X48164500Y-52946660D01*
X48164500Y-49046660D01*
X62707500Y-49046660D01*
X62707500Y-49046662D01*
X62707500Y-49325338D01*
X62707500Y-49325340D01*
X62707501Y-49325341D01*
X62814144Y-49582802D01*
X62814146Y-49582805D01*
X63011195Y-49779854D01*
X63011197Y-49779855D01*
X63011198Y-49779856D01*
X63268662Y-49886500D01*
X63268664Y-49886500D01*
X63547336Y-49886500D01*
X63547338Y-49886500D01*
X63804802Y-49779856D01*
X63804803Y-49779854D01*
X63804805Y-49779854D01*
X64001854Y-49582805D01*
X64001854Y-49582803D01*
X64001856Y-49582802D01*
X64108500Y-49325338D01*
X64108500Y-49146660D01*
X86607500Y-49146660D01*
X86607500Y-49146662D01*
X86607500Y-49425338D01*
X86607500Y-49425340D01*
X86607501Y-49425341D01*
X86714144Y-49682802D01*
X86714146Y-49682805D01*
X86911195Y-49879854D01*
X86911197Y-49879855D01*
X86911198Y-49879856D01*
X87168662Y-49986500D01*
X87168664Y-49986500D01*
X87447336Y-49986500D01*
X87447338Y-49986500D01*
X87704802Y-49879856D01*
X87704803Y-49879854D01*
X87704805Y-49879854D01*
X87901854Y-49682805D01*
X87901854Y-49682803D01*
X87901856Y-49682802D01*
X88008500Y-49425338D01*
X88008500Y-49146662D01*
X87901856Y-48889198D01*
X87901855Y-48889197D01*
X87901854Y-48889195D01*
X87704805Y-48692146D01*
X87704802Y-48692144D01*
X87447341Y-48585501D01*
X87447339Y-48585500D01*
X87447338Y-48585500D01*
X87168662Y-48585500D01*
X87168660Y-48585500D01*
X87168658Y-48585501D01*
X86911197Y-48692144D01*
X86714144Y-48889197D01*
X86607501Y-49146658D01*
X86607500Y-49146660D01*
X64108500Y-49146660D01*
X64108500Y-49046662D01*
X64001856Y-48789198D01*
X64001855Y-48789197D01*
X64001854Y-48789195D01*
X63804805Y-48592146D01*
X63804802Y-48592144D01*
X63547341Y-48485501D01*
X63547339Y-48485500D01*
X63547338Y-48485500D01*
X63268662Y-48485500D01*
X63268660Y-48485500D01*
X63268658Y-48485501D01*
X63011197Y-48592144D01*
X62814144Y-48789197D01*
X62707501Y-49046658D01*
X62707500Y-49046660D01*
X48164500Y-49046660D01*
X48164500Y-48035000D01*
X48178852Y-48000352D01*
X48213500Y-47986000D01*
X133214500Y-47986000D01*
X133249148Y-48000352D01*
G37*
%TD.AperFunction*%
%TD*%
M02*
